export const TestPiece = '{"notes": [ { "duration": 0.9489583333333333, "durationTicks": 911, "midi": 69, "name": "A4", "ticks": 0, "time": 0, "velocity": 0.6299212598425197 }, { "duration": 0.9489583333333333, "durationTicks": 911, "midi": 67, "name": "G4", "ticks": 960, "time": 1, "velocity": 0.6299212598425197 }, { "duration": 0.9489583333333331, "durationTicks": 911, "midi": 65, "name": "F4", "ticks": 1920, "time": 2, "velocity": 0.6299212598425197 }, { "duration": 0.9489583333333331, "durationTicks": 911, "midi": 69, "name": "A4", "ticks": 2880, "time": 3, "velocity": 0.6299212598425197 }, { "duration": 0.47395833333333304, "durationTicks": 455, "midi": 67, "name": "G4", "ticks": 3840, "time": 4, "velocity": 0.6299212598425197 }, { "duration": 0.47395833333333304, "durationTicks": 455, "midi": 65, "name": "F4", "ticks": 4320, "time": 4.5, "velocity": 0.6299212598425197 }, { "duration": 0.47395833333333304, "durationTicks": 455, "midi": 64, "name": "E4", "ticks": 4800, "time": 5, "velocity": 0.6299212598425197 }, { "duration": 0.47395833333333304, "durationTicks": 455, "midi": 62, "name": "D4", "ticks": 5280, "time": 5.5, "velocity": 0.6299212598425197 }, { "duration": 1.8989583333333337, "durationTicks": 1823, "midi": 60, "name": "C4", "ticks": 5760, "time": 6, "velocity": 0.6299212598425197 } ]}';
export const SamplePiece =
  '{"notes": [ { "duration": 0.23645833333333321, "durationTicks": 227, "midi": 89, "name": "F6", "ticks": 8160, "time": 8.5, "velocity": 0.6299212598425197 }, { "duration": 0.23645833333333321, "durationTicks": 227, "midi": 86, "name": "D6", "ticks": 8400, "time": 8.75, "velocity": 0.6299212598425197 }, { "duration": 0.4739583333333339, "durationTicks": 455, "midi": 89, "name": "F6", "ticks": 8640, "time": 9, "velocity": 0.6299212598425197 }, { "duration": 0.4739583333333339, "durationTicks": 455, "midi": 88, "name": "E6", "ticks": 9120, "time": 9.5, "velocity": 0.6299212598425197 }, { "duration": 0.4739583333333339, "durationTicks": 455, "midi": 85, "name": "C#6", "ticks": 9600, "time": 10, "velocity": 0.6299212598425197 }, { "duration": 0.4739583333333339, "durationTicks": 455, "midi": 86, "name": "D6", "ticks": 10080, "time": 10.5, "velocity": 0.6299212598425197 }, { "duration": 0.23645833333333321, "durationTicks": 227, "midi": 84, "name": "C6", "ticks": 10560, "time": 11, "velocity": 0.6299212598425197 }, { "duration": 0.23645833333333321, "durationTicks": 227, "midi": 84, "name": "C6", "ticks": 10800, "time": 11.25, "velocity": 0.6299212598425197 }, { "duration": 0.4739583333333339, "durationTicks": 455, "midi": 84, "name": "C6", "ticks": 11040, "time": 11.5, "velocity": 0.6299212598425197 }, { "duration": 0.23645833333333321, "durationTicks": 227, "midi": 83, "name": "B5", "ticks": 11520, "time": 12, "velocity": 0.6299212598425197 }, { "duration": 0.23645833333333321, "durationTicks": 227, "midi": 83, "name": "B5", "ticks": 11760, "time": 12.25, "velocity": 0.6299212598425197 }, { "duration": 0.4739583333333339, "durationTicks": 455, "midi": 83, "name": "B5", "ticks": 12000, "time": 12.5, "velocity": 0.6299212598425197 }, { "duration": 0.23645833333333321, "durationTicks": 227, "midi": 82, "name": "A#5", "ticks": 12480, "time": 13, "velocity": 0.6299212598425197 }, { "duration": 0.23645833333333321, "durationTicks": 227, "midi": 82, "name": "A#5", "ticks": 12720, "time": 13.25, "velocity": 0.6299212598425197 }, { "duration": 0.4739583333333339, "durationTicks": 455, "midi": 82, "name": "A#5", "ticks": 12960, "time": 13.5, "velocity": 0.6299212598425197 }, { "duration": 0.23645833333333321, "durationTicks": 227, "midi": 81, "name": "A5", "ticks": 13440, "time": 14, "velocity": 0.6299212598425197 }, { "duration": 0.23645833333333321, "durationTicks": 227, "midi": 86, "name": "D6", "ticks": 13680, "time": 14.25, "velocity": 0.6299212598425197 }, { "duration": 0.23645833333333321, "durationTicks": 227, "midi": 82, "name": "A#5", "ticks": 13920, "time": 14.5, "velocity": 0.6299212598425197 }, { "duration": 0.23645833333333321, "durationTicks": 227, "midi": 86, "name": "D6", "ticks": 14160, "time": 14.75, "velocity": 0.6299212598425197 }, { "duration": 0.4739583333333339, "durationTicks": 455, "midi": 81, "name": "A5", "ticks": 14400, "time": 15, "velocity": 0.6299212598425197 }, { "duration": 0.236458333333335, "durationTicks": 227, "midi": 77, "name": "F5", "ticks": 15840, "time": 16.5, "velocity": 0.6299212598425197 }, { "duration": 0.236458333333335, "durationTicks": 227, "midi": 74, "name": "D5", "ticks": 16080, "time": 16.75, "velocity": 0.6299212598425197 }, { "duration": 0.47395833333333215, "durationTicks": 455, "midi": 77, "name": "F5", "ticks": 16320, "time": 17, "velocity": 0.6299212598425197 }, { "duration": 0.47395833333333215, "durationTicks": 455, "midi": 76, "name": "E5", "ticks": 16800, "time": 17.5, "velocity": 0.6299212598425197 }, { "duration": 0.47395833333333215, "durationTicks": 455, "midi": 82, "name": "A#5", "ticks": 17280, "time": 18, "velocity": 0.6299212598425197 }, { "duration": 0.47395833333333215, "durationTicks": 455, "midi": 81, "name": "A5", "ticks": 17760, "time": 18.5, "velocity": 0.6299212598425197 }, { "duration": 0.236458333333335, "durationTicks": 227, "midi": 89, "name": "F6", "ticks": 18240, "time": 19, "velocity": 0.6299212598425197 }, { "duration": 0.236458333333335, "durationTicks": 227, "midi": 89, "name": "F6", "ticks": 18480, "time": 19.25, "velocity": 0.6299212598425197 }, { "duration": 0.47395833333333215, "durationTicks": 455, "midi": 89, "name": "F6", "ticks": 18720, "time": 19.5, "velocity": 0.6299212598425197 }, { "duration": 0.236458333333335, "durationTicks": 227, "midi": 88, "name": "E6", "ticks": 19200, "time": 20, "velocity": 0.6299212598425197 }, { "duration": 0.236458333333335, "durationTicks": 227, "midi": 88, "name": "E6", "ticks": 19440, "time": 20.25, "velocity": 0.6299212598425197 }, { "duration": 0.47395833333333215, "durationTicks": 455, "midi": 88, "name": "E6", "ticks": 19680, "time": 20.5, "velocity": 0.6299212598425197 }, { "duration": 0.236458333333335, "durationTicks": 227, "midi": 86, "name": "D6", "ticks": 20160, "time": 21, "velocity": 0.6299212598425197 }, { "duration": 0.236458333333335, "durationTicks": 227, "midi": 86, "name": "D6", "ticks": 20400, "time": 21.25, "velocity": 0.6299212598425197 }, { "duration": 0.47395833333333215, "durationTicks": 455, "midi": 86, "name": "D6", "ticks": 20640, "time": 21.5, "velocity": 0.6299212598425197 }, { "duration": 0.236458333333335, "durationTicks": 227, "midi": 85, "name": "C#6", "ticks": 21120, "time": 22, "velocity": 0.6299212598425197 }, { "duration": 0.236458333333335, "durationTicks": 227, "midi": 88, "name": "E6", "ticks": 21360, "time": 22.25, "velocity": 0.6299212598425197 }, { "duration": 0.236458333333335, "durationTicks": 227, "midi": 86, "name": "D6", "ticks": 21600, "time": 22.5, "velocity": 0.6299212598425197 }, { "duration": 0.236458333333335, "durationTicks": 227, "midi": 88, "name": "E6", "ticks": 21840, "time": 22.75, "velocity": 0.6299212598425197 }, { "duration": 0.47395833333333215, "durationTicks": 455, "midi": 85, "name": "C#6", "ticks": 22080, "time": 23, "velocity": 0.6299212598425197 }, { "duration": 0.236458333333335, "durationTicks": 227, "midi": 89, "name": "F6", "ticks": 23520, "time": 24.5, "velocity": 0.6299212598425197 }, { "duration": 0.236458333333335, "durationTicks": 227, "midi": 86, "name": "D6", "ticks": 23760, "time": 24.75, "velocity": 0.6299212598425197 }, { "duration": 0.47395833333333215, "durationTicks": 455, "midi": 89, "name": "F6", "ticks": 24000, "time": 25, "velocity": 0.6299212598425197 }, { "duration": 0.47395833333333215, "durationTicks": 455, "midi": 88, "name": "E6", "ticks": 24480, "time": 25.5, "velocity": 0.6299212598425197 }, { "duration": 0.47395833333333215, "durationTicks": 455, "midi": 85, "name": "C#6", "ticks": 24960, "time": 26, "velocity": 0.6299212598425197 }, { "duration": 0.47395833333333215, "durationTicks": 455, "midi": 86, "name": "D6", "ticks": 25440, "time": 26.5, "velocity": 0.6299212598425197 }, { "duration": 0.236458333333335, "durationTicks": 227, "midi": 84, "name": "C6", "ticks": 25920, "time": 27, "velocity": 0.6299212598425197 }, { "duration": 0.236458333333335, "durationTicks": 227, "midi": 84, "name": "C6", "ticks": 26160, "time": 27.25, "velocity": 0.6299212598425197 }, { "duration": 0.47395833333333215, "durationTicks": 455, "midi": 84, "name": "C6", "ticks": 26400, "time": 27.5, "velocity": 0.6299212598425197 }, { "duration": 0.236458333333335, "durationTicks": 227, "midi": 83, "name": "B5", "ticks": 26880, "time": 28, "velocity": 0.6299212598425197 }, { "duration": 0.236458333333335, "durationTicks": 227, "midi": 83, "name": "B5", "ticks": 27120, "time": 28.25, "velocity": 0.6299212598425197 }, { "duration": 0.47395833333333215, "durationTicks": 455, "midi": 83, "name": "B5", "ticks": 27360, "time": 28.5, "velocity": 0.6299212598425197 }, { "duration": 0.236458333333335, "durationTicks": 227, "midi": 82, "name": "A#5", "ticks": 27840, "time": 29, "velocity": 0.6299212598425197 }, { "duration": 0.236458333333335, "durationTicks": 227, "midi": 82, "name": "A#5", "ticks": 28080, "time": 29.25, "velocity": 0.6299212598425197 }, { "duration": 0.47395833333333215, "durationTicks": 455, "midi": 82, "name": "A#5", "ticks": 28320, "time": 29.5, "velocity": 0.6299212598425197 }, { "duration": 0.236458333333335, "durationTicks": 227, "midi": 81, "name": "A5", "ticks": 28800, "time": 30, "velocity": 0.6299212598425197 }, { "duration": 0.236458333333335, "durationTicks": 227, "midi": 86, "name": "D6", "ticks": 29040, "time": 30.25, "velocity": 0.6299212598425197 }, { "duration": 0.236458333333335, "durationTicks": 227, "midi": 82, "name": "A#5", "ticks": 29280, "time": 30.5, "velocity": 0.6299212598425197 }, { "duration": 0.236458333333335, "durationTicks": 227, "midi": 86, "name": "D6", "ticks": 29520, "time": 30.75, "velocity": 0.6299212598425197 }, { "duration": 0.47395833333333215, "durationTicks": 455, "midi": 81, "name": "A5", "ticks": 29760, "time": 31, "velocity": 0.6299212598425197 }, { "duration": 0.23645833333333144, "durationTicks": 227, "midi": 80, "name": "G#5", "ticks": 31200, "time": 32.5, "velocity": 0.6299212598425197 }, { "duration": 0.23645833333333144, "durationTicks": 227, "midi": 86, "name": "D6", "ticks": 31200, "time": 32.5, "velocity": 0.6299212598425197 }, { "duration": 0.23645833333333144, "durationTicks": 227, "midi": 82, "name": "A#5", "ticks": 31440, "time": 32.75, "velocity": 0.6299212598425197 }, { "duration": 0.4739583333333357, "durationTicks": 455, "midi": 80, "name": "G#5", "ticks": 31680, "time": 33, "velocity": 0.6299212598425197 }, { "duration": 0.4739583333333357, "durationTicks": 455, "midi": 86, "name": "D6", "ticks": 31680, "time": 33, "velocity": 0.6299212598425197 }, { "duration": 0.4739583333333357, "durationTicks": 455, "midi": 79, "name": "G5", "ticks": 32160, "time": 33.5, "velocity": 0.6299212598425197 }, { "duration": 0.4739583333333357, "durationTicks": 455, "midi": 81, "name": "A5", "ticks": 32160, "time": 33.5, "velocity": 0.6299212598425197 }, { "duration": 0.4739583333333357, "durationTicks": 455, "midi": 85, "name": "C#6", "ticks": 32160, "time": 33.5, "velocity": 0.6299212598425197 }, { "duration": 0.23645833333333144, "durationTicks": 227, "midi": 78, "name": "F#5", "ticks": 33120, "time": 34.5, "velocity": 0.6299212598425197 }, { "duration": 0.23645833333333144, "durationTicks": 227, "midi": 84, "name": "C6", "ticks": 33120, "time": 34.5, "velocity": 0.6299212598425197 }, { "duration": 0.23645833333333144, "durationTicks": 227, "midi": 81, "name": "A5", "ticks": 33360, "time": 34.75, "velocity": 0.6299212598425197 }, { "duration": 0.4739583333333357, "durationTicks": 455, "midi": 78, "name": "F#5", "ticks": 33600, "time": 35, "velocity": 0.6299212598425197 }, { "duration": 0.4739583333333357, "durationTicks": 455, "midi": 84, "name": "C6", "ticks": 33600, "time": 35, "velocity": 0.6299212598425197 }, { "duration": 0.4739583333333357, "durationTicks": 455, "midi": 77, "name": "F5", "ticks": 34080, "time": 35.5, "velocity": 0.6299212598425197 }, { "duration": 0.4739583333333357, "durationTicks": 455, "midi": 79, "name": "G5", "ticks": 34080, "time": 35.5, "velocity": 0.6299212598425197 }, { "duration": 0.4739583333333357, "durationTicks": 455, "midi": 83, "name": "B5", "ticks": 34080, "time": 35.5, "velocity": 0.6299212598425197 }, { "duration": 0.23645833333333144, "durationTicks": 227, "midi": 76, "name": "E5", "ticks": 35040, "time": 36.5, "velocity": 0.6299212598425197 }, { "duration": 0.23645833333333144, "durationTicks": 227, "midi": 82, "name": "A#5", "ticks": 35040, "time": 36.5, "velocity": 0.6299212598425197 }, { "duration": 0.23645833333333144, "durationTicks": 227, "midi": 79, "name": "G5", "ticks": 35280, "time": 36.75, "velocity": 0.6299212598425197 }, { "duration": 0.4739583333333357, "durationTicks": 455, "midi": 76, "name": "E5", "ticks": 35520, "time": 37, "velocity": 0.6299212598425197 }, { "duration": 0.4739583333333357, "durationTicks": 455, "midi": 82, "name": "A#5", "ticks": 35520, "time": 37, "velocity": 0.6299212598425197 }, { "duration": 0.4739583333333357, "durationTicks": 455, "midi": 77, "name": "F5", "ticks": 36000, "time": 37.5, "velocity": 0.6299212598425197 }, { "duration": 0.4739583333333357, "durationTicks": 455, "midi": 81, "name": "A5", "ticks": 36000, "time": 37.5, "velocity": 0.6299212598425197 }, { "duration": 0.4739583333333357, "durationTicks": 455, "midi": 93, "name": "A6", "ticks": 36960, "time": 38.5, "velocity": 0.6299212598425197 }, { "duration": 0.4739583333333357, "durationTicks": 455, "midi": 86, "name": "D6", "ticks": 37440, "time": 39, "velocity": 0.6299212598425197 }, { "duration": 0.23645833333333144, "durationTicks": 227, "midi": 83, "name": "B5", "ticks": 38640, "time": 40.25, "velocity": 0.6299212598425197 }, { "duration": 0.23645833333333144, "durationTicks": 227, "midi": 85, "name": "C#6", "ticks": 39120, "time": 40.75, "velocity": 0.6299212598425197 }, { "duration": 0.23645833333333144, "durationTicks": 227, "midi": 81, "name": "A5", "ticks": 39600, "time": 41.25, "velocity": 0.6299212598425197 }, { "duration": 0.23645833333333144, "durationTicks": 227, "midi": 86, "name": "D6", "ticks": 39600, "time": 41.25, "velocity": 0.6299212598425197 }, { "duration": 0.23645833333333144, "durationTicks": 227, "midi": 81, "name": "A5", "ticks": 40080, "time": 41.75, "velocity": 0.6299212598425197 }, { "duration": 0.23645833333333144, "durationTicks": 227, "midi": 88, "name": "E6", "ticks": 40080, "time": 41.75, "velocity": 0.6299212598425197 }, { "duration": 0.23645833333333144, "durationTicks": 227, "midi": 86, "name": "D6", "ticks": 40560, "time": 42.25, "velocity": 0.6299212598425197 }, { "duration": 0.23645833333333144, "durationTicks": 227, "midi": 89, "name": "F6", "ticks": 40560, "time": 42.25, "velocity": 0.6299212598425197 }, { "duration": 0.23645833333333144, "durationTicks": 227, "midi": 83, "name": "B5", "ticks": 41040, "time": 42.75, "velocity": 0.6299212598425197 }, { "duration": 0.23645833333333144, "durationTicks": 227, "midi": 86, "name": "D6", "ticks": 41040, "time": 42.75, "velocity": 0.6299212598425197 }, { "duration": 0.4739583333333357, "durationTicks": 455, "midi": 81, "name": "A5", "ticks": 41280, "time": 43, "velocity": 0.6299212598425197 }, { "duration": 0.4739583333333357, "durationTicks": 455, "midi": 85, "name": "C#6", "ticks": 41280, "time": 43, "velocity": 0.6299212598425197 }, { "duration": 0.23645833333333144, "durationTicks": 227, "midi": 83, "name": "B5", "ticks": 46320, "time": 48.25, "velocity": 0.6299212598425197 }, { "duration": 0.23645833333333144, "durationTicks": 227, "midi": 85, "name": "C#6", "ticks": 46800, "time": 48.75, "velocity": 0.6299212598425197 }, { "duration": 0.23645833333333144, "durationTicks": 227, "midi": 81, "name": "A5", "ticks": 47280, "time": 49.25, "velocity": 0.6299212598425197 }, { "duration": 0.23645833333333144, "durationTicks": 227, "midi": 86, "name": "D6", "ticks": 47280, "time": 49.25, "velocity": 0.6299212598425197 }, { "duration": 0.23645833333333144, "durationTicks": 227, "midi": 81, "name": "A5", "ticks": 47760, "time": 49.75, "velocity": 0.6299212598425197 }, { "duration": 0.23645833333333144, "durationTicks": 227, "midi": 88, "name": "E6", "ticks": 47760, "time": 49.75, "velocity": 0.6299212598425197 }, { "duration": 0.23645833333333144, "durationTicks": 227, "midi": 86, "name": "D6", "ticks": 48240, "time": 50.25, "velocity": 0.6299212598425197 }, { "duration": 0.23645833333333144, "durationTicks": 227, "midi": 89, "name": "F6", "ticks": 48240, "time": 50.25, "velocity": 0.6299212598425197 }, { "duration": 0.23645833333333144, "durationTicks": 227, "midi": 83, "name": "B5", "ticks": 48720, "time": 50.75, "velocity": 0.6299212598425197 }, { "duration": 0.23645833333333144, "durationTicks": 227, "midi": 86, "name": "D6", "ticks": 48720, "time": 50.75, "velocity": 0.6299212598425197 }, { "duration": 0.4739583333333357, "durationTicks": 455, "midi": 81, "name": "A5", "ticks": 48960, "time": 51, "velocity": 0.6299212598425197 }, { "duration": 0.4739583333333357, "durationTicks": 455, "midi": 85, "name": "C#6", "ticks": 48960, "time": 51, "velocity": 0.6299212598425197 }, { "duration": 0.23645833333333144, "durationTicks": 227, "midi": 77, "name": "F5", "ticks": 54000, "time": 56.25, "velocity": 0.6299212598425197 }, { "duration": 0.23645833333333144, "durationTicks": 227, "midi": 83, "name": "B5", "ticks": 54000, "time": 56.25, "velocity": 0.6299212598425197 }, { "duration": 0.23645833333333144, "durationTicks": 227, "midi": 79, "name": "G5", "ticks": 54480, "time": 56.75, "velocity": 0.6299212598425197 }, { "duration": 0.23645833333333144, "durationTicks": 227, "midi": 85, "name": "C#6", "ticks": 54480, "time": 56.75, "velocity": 0.6299212598425197 }, { "duration": 0.23645833333333144, "durationTicks": 227, "midi": 81, "name": "A5", "ticks": 54960, "time": 57.25, "velocity": 0.6299212598425197 }, { "duration": 0.23645833333333144, "durationTicks": 227, "midi": 86, "name": "D6", "ticks": 54960, "time": 57.25, "velocity": 0.6299212598425197 }, { "duration": 0.23645833333333144, "durationTicks": 227, "midi": 79, "name": "G5", "ticks": 55920, "time": 58.25, "velocity": 0.6299212598425197 }, { "duration": 0.23645833333333144, "durationTicks": 227, "midi": 85, "name": "C#6", "ticks": 55920, "time": 58.25, "velocity": 0.6299212598425197 }, { "duration": 0.23645833333333144, "durationTicks": 227, "midi": 81, "name": "A5", "ticks": 56400, "time": 58.75, "velocity": 0.6299212598425197 }, { "duration": 0.23645833333333144, "durationTicks": 227, "midi": 86, "name": "D6", "ticks": 56400, "time": 58.75, "velocity": 0.6299212598425197 }, { "duration": 0.23645833333333144, "durationTicks": 227, "midi": 85, "name": "C#6", "ticks": 56880, "time": 59.25, "velocity": 0.6299212598425197 }, { "duration": 0.23645833333333144, "durationTicks": 227, "midi": 88, "name": "E6", "ticks": 56880, "time": 59.25, "velocity": 0.6299212598425197 }, { "duration": 0.23645833333333144, "durationTicks": 227, "midi": 81, "name": "A5", "ticks": 57840, "time": 60.25, "velocity": 0.6299212598425197 }, { "duration": 0.23645833333333144, "durationTicks": 227, "midi": 86, "name": "D6", "ticks": 57840, "time": 60.25, "velocity": 0.6299212598425197 }, { "duration": 0.23645833333333144, "durationTicks": 227, "midi": 85, "name": "C#6", "ticks": 58320, "time": 60.75, "velocity": 0.6299212598425197 }, { "duration": 0.23645833333333144, "durationTicks": 227, "midi": 88, "name": "E6", "ticks": 58320, "time": 60.75, "velocity": 0.6299212598425197 }, { "duration": 0.23645833333333144, "durationTicks": 227, "midi": 86, "name": "D6", "ticks": 58800, "time": 61.25, "velocity": 0.6299212598425197 }, { "duration": 0.23645833333333144, "durationTicks": 227, "midi": 89, "name": "F6", "ticks": 58800, "time": 61.25, "velocity": 0.6299212598425197 }, { "duration": 0.23645833333333144, "durationTicks": 227, "midi": 86, "name": "D6", "ticks": 59280, "time": 61.75, "velocity": 0.6299212598425197 }, { "duration": 0.23645833333333144, "durationTicks": 227, "midi": 89, "name": "F6", "ticks": 59280, "time": 61.75, "velocity": 0.6299212598425197 }, { "duration": 0.23645833333333144, "durationTicks": 227, "midi": 86, "name": "D6", "ticks": 59760, "time": 62.25, "velocity": 0.6299212598425197 }, { "duration": 0.23645833333333144, "durationTicks": 227, "midi": 91, "name": "G6", "ticks": 59760, "time": 62.25, "velocity": 0.6299212598425197 }, { "duration": 0.23645833333333144, "durationTicks": 227, "midi": 86, "name": "D6", "ticks": 60240, "time": 62.75, "velocity": 0.6299212598425197 }, { "duration": 0.23645833333333144, "durationTicks": 227, "midi": 91, "name": "G6", "ticks": 60240, "time": 62.75, "velocity": 0.6299212598425197 }, { "duration": 0.4739583333333357, "durationTicks": 455, "midi": 88, "name": "E6", "ticks": 60480, "time": 63, "velocity": 0.6299212598425197 }, { "duration": 0.4739583333333357, "durationTicks": 455, "midi": 93, "name": "A6", "ticks": 60480, "time": 63, "velocity": 0.6299212598425197 }, { "duration": 0.23645833333333144, "durationTicks": 227, "midi": 89, "name": "F6", "ticks": 61440, "time": 64, "velocity": 0.6299212598425197 }, { "duration": 0.23645833333333144, "durationTicks": 227, "midi": 86, "name": "D6", "ticks": 61680, "time": 64.25, "velocity": 0.6299212598425197 }, { "duration": 0.4739583333333286, "durationTicks": 455, "midi": 89, "name": "F6", "ticks": 61920, "time": 64.5, "velocity": 0.6299212598425197 }, { "duration": 0.4739583333333286, "durationTicks": 455, "midi": 88, "name": "E6", "ticks": 62400, "time": 65, "velocity": 0.6299212598425197 }, { "duration": 0.4739583333333286, "durationTicks": 455, "midi": 85, "name": "C#6", "ticks": 62880, "time": 65.5, "velocity": 0.6299212598425197 }, { "duration": 0.4739583333333286, "durationTicks": 455, "midi": 86, "name": "D6", "ticks": 63360, "time": 66, "velocity": 0.6299212598425197 }, { "duration": 0.23645833333333144, "durationTicks": 227, "midi": 84, "name": "C6", "ticks": 63840, "time": 66.5, "velocity": 0.6299212598425197 }, { "duration": 0.23645833333333144, "durationTicks": 227, "midi": 84, "name": "C6", "ticks": 64080, "time": 66.75, "velocity": 0.6299212598425197 }, { "duration": 0.4739583333333286, "durationTicks": 455, "midi": 84, "name": "C6", "ticks": 64320, "time": 67, "velocity": 0.6299212598425197 }, { "duration": 0.23645833333333144, "durationTicks": 227, "midi": 83, "name": "B5", "ticks": 64800, "time": 67.5, "velocity": 0.6299212598425197 }, { "duration": 0.23645833333333144, "durationTicks": 227, "midi": 83, "name": "B5", "ticks": 65040, "time": 67.75, "velocity": 0.6299212598425197 }, { "duration": 0.4739583333333286, "durationTicks": 455, "midi": 83, "name": "B5", "ticks": 65280, "time": 68, "velocity": 0.6299212598425197 }, { "duration": 0.23645833333333144, "durationTicks": 227, "midi": 82, "name": "A#5", "ticks": 65760, "time": 68.5, "velocity": 0.6299212598425197 }, { "duration": 0.23645833333333144, "durationTicks": 227, "midi": 82, "name": "A#5", "ticks": 66000, "time": 68.75, "velocity": 0.6299212598425197 }, { "duration": 0.4739583333333286, "durationTicks": 455, "midi": 82, "name": "A#5", "ticks": 66240, "time": 69, "velocity": 0.6299212598425197 }, { "duration": 0.23645833333333144, "durationTicks": 227, "midi": 81, "name": "A5", "ticks": 67200, "time": 70, "velocity": 0.6299212598425197 }, { "duration": 0.23645833333333144, "durationTicks": 227, "midi": 86, "name": "D6", "ticks": 67440, "time": 70.25, "velocity": 0.6299212598425197 }, { "duration": 0.23645833333333144, "durationTicks": 227, "midi": 82, "name": "A#5", "ticks": 67680, "time": 70.5, "velocity": 0.6299212598425197 }, { "duration": 0.23645833333333144, "durationTicks": 227, "midi": 86, "name": "D6", "ticks": 67920, "time": 70.75, "velocity": 0.6299212598425197 }, { "duration": 0.4739583333333286, "durationTicks": 455, "midi": 81, "name": "A5", "ticks": 68160, "time": 71, "velocity": 0.6299212598425197 }, { "duration": 0.23645833333333144, "durationTicks": 227, "midi": 77, "name": "F5", "ticks": 69600, "time": 72.5, "velocity": 0.6299212598425197 }, { "duration": 0.23645833333333144, "durationTicks": 227, "midi": 74, "name": "D5", "ticks": 69840, "time": 72.75, "velocity": 0.6299212598425197 }, { "duration": 0.4739583333333286, "durationTicks": 455, "midi": 77, "name": "F5", "ticks": 70080, "time": 73, "velocity": 0.6299212598425197 }, { "duration": 0.4739583333333286, "durationTicks": 455, "midi": 76, "name": "E5", "ticks": 70560, "time": 73.5, "velocity": 0.6299212598425197 }, { "duration": 0.4739583333333286, "durationTicks": 455, "midi": 82, "name": "A#5", "ticks": 71040, "time": 74, "velocity": 0.6299212598425197 }, { "duration": 0.4739583333333286, "durationTicks": 455, "midi": 81, "name": "A5", "ticks": 71520, "time": 74.5, "velocity": 0.6299212598425197 }, { "duration": 0.23645833333333144, "durationTicks": 227, "midi": 89, "name": "F6", "ticks": 72000, "time": 75, "velocity": 0.6299212598425197 }, { "duration": 0.23645833333333144, "durationTicks": 227, "midi": 89, "name": "F6", "ticks": 72240, "time": 75.25, "velocity": 0.6299212598425197 }, { "duration": 0.4739583333333286, "durationTicks": 455, "midi": 89, "name": "F6", "ticks": 72480, "time": 75.5, "velocity": 0.6299212598425197 }, { "duration": 0.23645833333333144, "durationTicks": 227, "midi": 88, "name": "E6", "ticks": 72960, "time": 76, "velocity": 0.6299212598425197 }, { "duration": 0.23645833333333144, "durationTicks": 227, "midi": 88, "name": "E6", "ticks": 73200, "time": 76.25, "velocity": 0.6299212598425197 }, { "duration": 0.4739583333333286, "durationTicks": 455, "midi": 88, "name": "E6", "ticks": 73440, "time": 76.5, "velocity": 0.6299212598425197 }, { "duration": 0.23645833333333144, "durationTicks": 227, "midi": 86, "name": "D6", "ticks": 73920, "time": 77, "velocity": 0.6299212598425197 }, { "duration": 0.23645833333333144, "durationTicks": 227, "midi": 86, "name": "D6", "ticks": 74160, "time": 77.25, "velocity": 0.6299212598425197 }, { "duration": 0.4739583333333286, "durationTicks": 455, "midi": 86, "name": "D6", "ticks": 74400, "time": 77.5, "velocity": 0.6299212598425197 }, { "duration": 0.23645833333333144, "durationTicks": 227, "midi": 85, "name": "C#6", "ticks": 74880, "time": 78, "velocity": 0.6299212598425197 }, { "duration": 0.23645833333333144, "durationTicks": 227, "midi": 88, "name": "E6", "ticks": 75120, "time": 78.25, "velocity": 0.6299212598425197 }, { "duration": 0.23645833333333144, "durationTicks": 227, "midi": 86, "name": "D6", "ticks": 75360, "time": 78.5, "velocity": 0.6299212598425197 }, { "duration": 0.23645833333333144, "durationTicks": 227, "midi": 88, "name": "E6", "ticks": 75600, "time": 78.75, "velocity": 0.6299212598425197 }, { "duration": 0.4739583333333286, "durationTicks": 455, "midi": 85, "name": "C#6", "ticks": 75840, "time": 79, "velocity": 0.6299212598425197 }, { "duration": 0.23645833333333144, "durationTicks": 227, "midi": 89, "name": "F6", "ticks": 77280, "time": 80.5, "velocity": 0.6299212598425197 }, { "duration": 0.23645833333333144, "durationTicks": 227, "midi": 86, "name": "D6", "ticks": 77520, "time": 80.75, "velocity": 0.6299212598425197 }, { "duration": 0.4739583333333286, "durationTicks": 455, "midi": 89, "name": "F6", "ticks": 77760, "time": 81, "velocity": 0.6299212598425197 }, { "duration": 0.4739583333333286, "durationTicks": 455, "midi": 88, "name": "E6", "ticks": 78240, "time": 81.5, "velocity": 0.6299212598425197 }, { "duration": 0.4739583333333286, "durationTicks": 455, "midi": 85, "name": "C#6", "ticks": 78720, "time": 82, "velocity": 0.6299212598425197 }, { "duration": 0.4739583333333286, "durationTicks": 455, "midi": 86, "name": "D6", "ticks": 79200, "time": 82.5, "velocity": 0.6299212598425197 }, { "duration": 0.23645833333333144, "durationTicks": 227, "midi": 84, "name": "C6", "ticks": 79680, "time": 83, "velocity": 0.6299212598425197 }, { "duration": 0.23645833333333144, "durationTicks": 227, "midi": 84, "name": "C6", "ticks": 79920, "time": 83.25, "velocity": 0.6299212598425197 }, { "duration": 0.4739583333333286, "durationTicks": 455, "midi": 84, "name": "C6", "ticks": 80160, "time": 83.5, "velocity": 0.6299212598425197 }, { "duration": 0.23645833333333144, "durationTicks": 227, "midi": 83, "name": "B5", "ticks": 80640, "time": 84, "velocity": 0.6299212598425197 }, { "duration": 0.23645833333333144, "durationTicks": 227, "midi": 83, "name": "B5", "ticks": 80880, "time": 84.25, "velocity": 0.6299212598425197 }, { "duration": 0.4739583333333286, "durationTicks": 455, "midi": 83, "name": "B5", "ticks": 81120, "time": 84.5, "velocity": 0.6299212598425197 }, { "duration": 0.23645833333333144, "durationTicks": 227, "midi": 82, "name": "A#5", "ticks": 81600, "time": 85, "velocity": 0.6299212598425197 }, { "duration": 0.23645833333333144, "durationTicks": 227, "midi": 82, "name": "A#5", "ticks": 81840, "time": 85.25, "velocity": 0.6299212598425197 }, { "duration": 0.4739583333333286, "durationTicks": 455, "midi": 82, "name": "A#5", "ticks": 82080, "time": 85.5, "velocity": 0.6299212598425197 }]}';
/*export const SamplePiece: string =
  '{ "header": { "keySignatures": [ { "key": "F", "scale": "major", "ticks": 0 }, { "key": "F", "scale": "major", "ticks": 0 }, { "key": "F", "scale": "major", "ticks": 0 }, { "key": "F", "scale": "major", "ticks": 0 } ], "meta": [], "name": "Piano\u0000", "ppq": 480, "tempos": [ { "bpm": 120, "ticks": 0 } ], "timeSignatures": [ { "ticks": 0, "timeSignature": [ 4, 4 ], "measures": 0 } ] }, "tracks": [ { "channel": 0, "controlChanges": { "7": [ { "number": 7, "ticks": 0, "time": 0, "value": 0.7874015748031497 } ], "10": [ { "number": 10, "ticks": 0, "time": 0, "value": 0.5039370078740157 } ], "91": [ { "number": 91, "ticks": 0, "time": 0, "value": 0 } ], "93": [ { "number": 93, "ticks": 0, "time": 0, "value": 0 } ], "121": [ { "number": 121, "ticks": 0, "time": 0, "value": 0 } ] }, "pitchBends": [], "instrument": { "family": "piano", "name": "acoustic grand piano", "number": 0 }, "name": "Piano\u0000", "notes": [ { "duration": 0.23645833333333321, "durationTicks": 227, "midi": 89, "name": "F6", "ticks": 8160, "time": 8.5, "velocity": 0.6299212598425197 }, { "duration": 0.23645833333333321, "durationTicks": 227, "midi": 86, "name": "D6", "ticks": 8400, "time": 8.75, "velocity": 0.6299212598425197 }, { "duration": 0.4739583333333339, "durationTicks": 455, "midi": 89, "name": "F6", "ticks": 8640, "time": 9, "velocity": 0.6299212598425197 }, { "duration": 0.4739583333333339, "durationTicks": 455, "midi": 88, "name": "E6", "ticks": 9120, "time": 9.5, "velocity": 0.6299212598425197 }, { "duration": 0.4739583333333339, "durationTicks": 455, "midi": 85, "name": "C#6", "ticks": 9600, "time": 10, "velocity": 0.6299212598425197 }, { "duration": 0.4739583333333339, "durationTicks": 455, "midi": 86, "name": "D6", "ticks": 10080, "time": 10.5, "velocity": 0.6299212598425197 }, { "duration": 0.23645833333333321, "durationTicks": 227, "midi": 84, "name": "C6", "ticks": 10560, "time": 11, "velocity": 0.6299212598425197 }, { "duration": 0.23645833333333321, "durationTicks": 227, "midi": 84, "name": "C6", "ticks": 10800, "time": 11.25, "velocity": 0.6299212598425197 }, { "duration": 0.4739583333333339, "durationTicks": 455, "midi": 84, "name": "C6", "ticks": 11040, "time": 11.5, "velocity": 0.6299212598425197 }, { "duration": 0.23645833333333321, "durationTicks": 227, "midi": 83, "name": "B5", "ticks": 11520, "time": 12, "velocity": 0.6299212598425197 }, { "duration": 0.23645833333333321, "durationTicks": 227, "midi": 83, "name": "B5", "ticks": 11760, "time": 12.25, "velocity": 0.6299212598425197 }, { "duration": 0.4739583333333339, "durationTicks": 455, "midi": 83, "name": "B5", "ticks": 12000, "time": 12.5, "velocity": 0.6299212598425197 }, { "duration": 0.23645833333333321, "durationTicks": 227, "midi": 82, "name": "A#5", "ticks": 12480, "time": 13, "velocity": 0.6299212598425197 }, { "duration": 0.23645833333333321, "durationTicks": 227, "midi": 82, "name": "A#5", "ticks": 12720, "time": 13.25, "velocity": 0.6299212598425197 }, { "duration": 0.4739583333333339, "durationTicks": 455, "midi": 82, "name": "A#5", "ticks": 12960, "time": 13.5, "velocity": 0.6299212598425197 }, { "duration": 0.23645833333333321, "durationTicks": 227, "midi": 81, "name": "A5", "ticks": 13440, "time": 14, "velocity": 0.6299212598425197 }, { "duration": 0.23645833333333321, "durationTicks": 227, "midi": 86, "name": "D6", "ticks": 13680, "time": 14.25, "velocity": 0.6299212598425197 }, { "duration": 0.23645833333333321, "durationTicks": 227, "midi": 82, "name": "A#5", "ticks": 13920, "time": 14.5, "velocity": 0.6299212598425197 }, { "duration": 0.23645833333333321, "durationTicks": 227, "midi": 86, "name": "D6", "ticks": 14160, "time": 14.75, "velocity": 0.6299212598425197 }, { "duration": 0.4739583333333339, "durationTicks": 455, "midi": 81, "name": "A5", "ticks": 14400, "time": 15, "velocity": 0.6299212598425197 }, { "duration": 0.236458333333335, "durationTicks": 227, "midi": 77, "name": "F5", "ticks": 15840, "time": 16.5, "velocity": 0.6299212598425197 }, { "duration": 0.236458333333335, "durationTicks": 227, "midi": 74, "name": "D5", "ticks": 16080, "time": 16.75, "velocity": 0.6299212598425197 }, { "duration": 0.47395833333333215, "durationTicks": 455, "midi": 77, "name": "F5", "ticks": 16320, "time": 17, "velocity": 0.6299212598425197 }, { "duration": 0.47395833333333215, "durationTicks": 455, "midi": 76, "name": "E5", "ticks": 16800, "time": 17.5, "velocity": 0.6299212598425197 }, { "duration": 0.47395833333333215, "durationTicks": 455, "midi": 82, "name": "A#5", "ticks": 17280, "time": 18, "velocity": 0.6299212598425197 }, { "duration": 0.47395833333333215, "durationTicks": 455, "midi": 81, "name": "A5", "ticks": 17760, "time": 18.5, "velocity": 0.6299212598425197 }, { "duration": 0.236458333333335, "durationTicks": 227, "midi": 89, "name": "F6", "ticks": 18240, "time": 19, "velocity": 0.6299212598425197 }, { "duration": 0.236458333333335, "durationTicks": 227, "midi": 89, "name": "F6", "ticks": 18480, "time": 19.25, "velocity": 0.6299212598425197 }, { "duration": 0.47395833333333215, "durationTicks": 455, "midi": 89, "name": "F6", "ticks": 18720, "time": 19.5, "velocity": 0.6299212598425197 }, { "duration": 0.236458333333335, "durationTicks": 227, "midi": 88, "name": "E6", "ticks": 19200, "time": 20, "velocity": 0.6299212598425197 }, { "duration": 0.236458333333335, "durationTicks": 227, "midi": 88, "name": "E6", "ticks": 19440, "time": 20.25, "velocity": 0.6299212598425197 }, { "duration": 0.47395833333333215, "durationTicks": 455, "midi": 88, "name": "E6", "ticks": 19680, "time": 20.5, "velocity": 0.6299212598425197 }, { "duration": 0.236458333333335, "durationTicks": 227, "midi": 86, "name": "D6", "ticks": 20160, "time": 21, "velocity": 0.6299212598425197 }, { "duration": 0.236458333333335, "durationTicks": 227, "midi": 86, "name": "D6", "ticks": 20400, "time": 21.25, "velocity": 0.6299212598425197 }, { "duration": 0.47395833333333215, "durationTicks": 455, "midi": 86, "name": "D6", "ticks": 20640, "time": 21.5, "velocity": 0.6299212598425197 }, { "duration": 0.236458333333335, "durationTicks": 227, "midi": 85, "name": "C#6", "ticks": 21120, "time": 22, "velocity": 0.6299212598425197 }, { "duration": 0.236458333333335, "durationTicks": 227, "midi": 88, "name": "E6", "ticks": 21360, "time": 22.25, "velocity": 0.6299212598425197 }, { "duration": 0.236458333333335, "durationTicks": 227, "midi": 86, "name": "D6", "ticks": 21600, "time": 22.5, "velocity": 0.6299212598425197 }, { "duration": 0.236458333333335, "durationTicks": 227, "midi": 88, "name": "E6", "ticks": 21840, "time": 22.75, "velocity": 0.6299212598425197 }, { "duration": 0.47395833333333215, "durationTicks": 455, "midi": 85, "name": "C#6", "ticks": 22080, "time": 23, "velocity": 0.6299212598425197 }, { "duration": 0.236458333333335, "durationTicks": 227, "midi": 89, "name": "F6", "ticks": 23520, "time": 24.5, "velocity": 0.6299212598425197 }, { "duration": 0.236458333333335, "durationTicks": 227, "midi": 86, "name": "D6", "ticks": 23760, "time": 24.75, "velocity": 0.6299212598425197 }, { "duration": 0.47395833333333215, "durationTicks": 455, "midi": 89, "name": "F6", "ticks": 24000, "time": 25, "velocity": 0.6299212598425197 }, { "duration": 0.47395833333333215, "durationTicks": 455, "midi": 88, "name": "E6", "ticks": 24480, "time": 25.5, "velocity": 0.6299212598425197 }, { "duration": 0.47395833333333215, "durationTicks": 455, "midi": 85, "name": "C#6", "ticks": 24960, "time": 26, "velocity": 0.6299212598425197 }, { "duration": 0.47395833333333215, "durationTicks": 455, "midi": 86, "name": "D6", "ticks": 25440, "time": 26.5, "velocity": 0.6299212598425197 }, { "duration": 0.236458333333335, "durationTicks": 227, "midi": 84, "name": "C6", "ticks": 25920, "time": 27, "velocity": 0.6299212598425197 }, { "duration": 0.236458333333335, "durationTicks": 227, "midi": 84, "name": "C6", "ticks": 26160, "time": 27.25, "velocity": 0.6299212598425197 }, { "duration": 0.47395833333333215, "durationTicks": 455, "midi": 84, "name": "C6", "ticks": 26400, "time": 27.5, "velocity": 0.6299212598425197 }, { "duration": 0.236458333333335, "durationTicks": 227, "midi": 83, "name": "B5", "ticks": 26880, "time": 28, "velocity": 0.6299212598425197 }, { "duration": 0.236458333333335, "durationTicks": 227, "midi": 83, "name": "B5", "ticks": 27120, "time": 28.25, "velocity": 0.6299212598425197 }, { "duration": 0.47395833333333215, "durationTicks": 455, "midi": 83, "name": "B5", "ticks": 27360, "time": 28.5, "velocity": 0.6299212598425197 }, { "duration": 0.236458333333335, "durationTicks": 227, "midi": 82, "name": "A#5", "ticks": 27840, "time": 29, "velocity": 0.6299212598425197 }, { "duration": 0.236458333333335, "durationTicks": 227, "midi": 82, "name": "A#5", "ticks": 28080, "time": 29.25, "velocity": 0.6299212598425197 }, { "duration": 0.47395833333333215, "durationTicks": 455, "midi": 82, "name": "A#5", "ticks": 28320, "time": 29.5, "velocity": 0.6299212598425197 }, { "duration": 0.236458333333335, "durationTicks": 227, "midi": 81, "name": "A5", "ticks": 28800, "time": 30, "velocity": 0.6299212598425197 }, { "duration": 0.236458333333335, "durationTicks": 227, "midi": 86, "name": "D6", "ticks": 29040, "time": 30.25, "velocity": 0.6299212598425197 }, { "duration": 0.236458333333335, "durationTicks": 227, "midi": 82, "name": "A#5", "ticks": 29280, "time": 30.5, "velocity": 0.6299212598425197 }, { "duration": 0.236458333333335, "durationTicks": 227, "midi": 86, "name": "D6", "ticks": 29520, "time": 30.75, "velocity": 0.6299212598425197 }, { "duration": 0.47395833333333215, "durationTicks": 455, "midi": 81, "name": "A5", "ticks": 29760, "time": 31, "velocity": 0.6299212598425197 }, { "duration": 0.23645833333333144, "durationTicks": 227, "midi": 80, "name": "G#5", "ticks": 31200, "time": 32.5, "velocity": 0.6299212598425197 }, { "duration": 0.23645833333333144, "durationTicks": 227, "midi": 86, "name": "D6", "ticks": 31200, "time": 32.5, "velocity": 0.6299212598425197 }, { "duration": 0.23645833333333144, "durationTicks": 227, "midi": 82, "name": "A#5", "ticks": 31440, "time": 32.75, "velocity": 0.6299212598425197 }, { "duration": 0.4739583333333357, "durationTicks": 455, "midi": 80, "name": "G#5", "ticks": 31680, "time": 33, "velocity": 0.6299212598425197 }, { "duration": 0.4739583333333357, "durationTicks": 455, "midi": 86, "name": "D6", "ticks": 31680, "time": 33, "velocity": 0.6299212598425197 }, { "duration": 0.4739583333333357, "durationTicks": 455, "midi": 79, "name": "G5", "ticks": 32160, "time": 33.5, "velocity": 0.6299212598425197 }, { "duration": 0.4739583333333357, "durationTicks": 455, "midi": 81, "name": "A5", "ticks": 32160, "time": 33.5, "velocity": 0.6299212598425197 }, { "duration": 0.4739583333333357, "durationTicks": 455, "midi": 85, "name": "C#6", "ticks": 32160, "time": 33.5, "velocity": 0.6299212598425197 }, { "duration": 0.23645833333333144, "durationTicks": 227, "midi": 78, "name": "F#5", "ticks": 33120, "time": 34.5, "velocity": 0.6299212598425197 }, { "duration": 0.23645833333333144, "durationTicks": 227, "midi": 84, "name": "C6", "ticks": 33120, "time": 34.5, "velocity": 0.6299212598425197 }, { "duration": 0.23645833333333144, "durationTicks": 227, "midi": 81, "name": "A5", "ticks": 33360, "time": 34.75, "velocity": 0.6299212598425197 }, { "duration": 0.4739583333333357, "durationTicks": 455, "midi": 78, "name": "F#5", "ticks": 33600, "time": 35, "velocity": 0.6299212598425197 }, { "duration": 0.4739583333333357, "durationTicks": 455, "midi": 84, "name": "C6", "ticks": 33600, "time": 35, "velocity": 0.6299212598425197 }, { "duration": 0.4739583333333357, "durationTicks": 455, "midi": 77, "name": "F5", "ticks": 34080, "time": 35.5, "velocity": 0.6299212598425197 }, { "duration": 0.4739583333333357, "durationTicks": 455, "midi": 79, "name": "G5", "ticks": 34080, "time": 35.5, "velocity": 0.6299212598425197 }, { "duration": 0.4739583333333357, "durationTicks": 455, "midi": 83, "name": "B5", "ticks": 34080, "time": 35.5, "velocity": 0.6299212598425197 }, { "duration": 0.23645833333333144, "durationTicks": 227, "midi": 76, "name": "E5", "ticks": 35040, "time": 36.5, "velocity": 0.6299212598425197 }, { "duration": 0.23645833333333144, "durationTicks": 227, "midi": 82, "name": "A#5", "ticks": 35040, "time": 36.5, "velocity": 0.6299212598425197 }, { "duration": 0.23645833333333144, "durationTicks": 227, "midi": 79, "name": "G5", "ticks": 35280, "time": 36.75, "velocity": 0.6299212598425197 }, { "duration": 0.4739583333333357, "durationTicks": 455, "midi": 76, "name": "E5", "ticks": 35520, "time": 37, "velocity": 0.6299212598425197 }, { "duration": 0.4739583333333357, "durationTicks": 455, "midi": 82, "name": "A#5", "ticks": 35520, "time": 37, "velocity": 0.6299212598425197 }, { "duration": 0.4739583333333357, "durationTicks": 455, "midi": 77, "name": "F5", "ticks": 36000, "time": 37.5, "velocity": 0.6299212598425197 }, { "duration": 0.4739583333333357, "durationTicks": 455, "midi": 81, "name": "A5", "ticks": 36000, "time": 37.5, "velocity": 0.6299212598425197 }, { "duration": 0.4739583333333357, "durationTicks": 455, "midi": 93, "name": "A6", "ticks": 36960, "time": 38.5, "velocity": 0.6299212598425197 }, { "duration": 0.4739583333333357, "durationTicks": 455, "midi": 86, "name": "D6", "ticks": 37440, "time": 39, "velocity": 0.6299212598425197 }, { "duration": 0.23645833333333144, "durationTicks": 227, "midi": 83, "name": "B5", "ticks": 38640, "time": 40.25, "velocity": 0.6299212598425197 }, { "duration": 0.23645833333333144, "durationTicks": 227, "midi": 85, "name": "C#6", "ticks": 39120, "time": 40.75, "velocity": 0.6299212598425197 }, { "duration": 0.23645833333333144, "durationTicks": 227, "midi": 81, "name": "A5", "ticks": 39600, "time": 41.25, "velocity": 0.6299212598425197 }, { "duration": 0.23645833333333144, "durationTicks": 227, "midi": 86, "name": "D6", "ticks": 39600, "time": 41.25, "velocity": 0.6299212598425197 }, { "duration": 0.23645833333333144, "durationTicks": 227, "midi": 81, "name": "A5", "ticks": 40080, "time": 41.75, "velocity": 0.6299212598425197 }, { "duration": 0.23645833333333144, "durationTicks": 227, "midi": 88, "name": "E6", "ticks": 40080, "time": 41.75, "velocity": 0.6299212598425197 }, { "duration": 0.23645833333333144, "durationTicks": 227, "midi": 86, "name": "D6", "ticks": 40560, "time": 42.25, "velocity": 0.6299212598425197 }, { "duration": 0.23645833333333144, "durationTicks": 227, "midi": 89, "name": "F6", "ticks": 40560, "time": 42.25, "velocity": 0.6299212598425197 }, { "duration": 0.23645833333333144, "durationTicks": 227, "midi": 83, "name": "B5", "ticks": 41040, "time": 42.75, "velocity": 0.6299212598425197 }, { "duration": 0.23645833333333144, "durationTicks": 227, "midi": 86, "name": "D6", "ticks": 41040, "time": 42.75, "velocity": 0.6299212598425197 }, { "duration": 0.4739583333333357, "durationTicks": 455, "midi": 81, "name": "A5", "ticks": 41280, "time": 43, "velocity": 0.6299212598425197 }, { "duration": 0.4739583333333357, "durationTicks": 455, "midi": 85, "name": "C#6", "ticks": 41280, "time": 43, "velocity": 0.6299212598425197 }, { "duration": 0.23645833333333144, "durationTicks": 227, "midi": 83, "name": "B5", "ticks": 46320, "time": 48.25, "velocity": 0.6299212598425197 }, { "duration": 0.23645833333333144, "durationTicks": 227, "midi": 85, "name": "C#6", "ticks": 46800, "time": 48.75, "velocity": 0.6299212598425197 }, { "duration": 0.23645833333333144, "durationTicks": 227, "midi": 81, "name": "A5", "ticks": 47280, "time": 49.25, "velocity": 0.6299212598425197 }, { "duration": 0.23645833333333144, "durationTicks": 227, "midi": 86, "name": "D6", "ticks": 47280, "time": 49.25, "velocity": 0.6299212598425197 }, { "duration": 0.23645833333333144, "durationTicks": 227, "midi": 81, "name": "A5", "ticks": 47760, "time": 49.75, "velocity": 0.6299212598425197 }, { "duration": 0.23645833333333144, "durationTicks": 227, "midi": 88, "name": "E6", "ticks": 47760, "time": 49.75, "velocity": 0.6299212598425197 }, { "duration": 0.23645833333333144, "durationTicks": 227, "midi": 86, "name": "D6", "ticks": 48240, "time": 50.25, "velocity": 0.6299212598425197 }, { "duration": 0.23645833333333144, "durationTicks": 227, "midi": 89, "name": "F6", "ticks": 48240, "time": 50.25, "velocity": 0.6299212598425197 }, { "duration": 0.23645833333333144, "durationTicks": 227, "midi": 83, "name": "B5", "ticks": 48720, "time": 50.75, "velocity": 0.6299212598425197 }, { "duration": 0.23645833333333144, "durationTicks": 227, "midi": 86, "name": "D6", "ticks": 48720, "time": 50.75, "velocity": 0.6299212598425197 }, { "duration": 0.4739583333333357, "durationTicks": 455, "midi": 81, "name": "A5", "ticks": 48960, "time": 51, "velocity": 0.6299212598425197 }, { "duration": 0.4739583333333357, "durationTicks": 455, "midi": 85, "name": "C#6", "ticks": 48960, "time": 51, "velocity": 0.6299212598425197 }, { "duration": 0.23645833333333144, "durationTicks": 227, "midi": 77, "name": "F5", "ticks": 54000, "time": 56.25, "velocity": 0.6299212598425197 }, { "duration": 0.23645833333333144, "durationTicks": 227, "midi": 83, "name": "B5", "ticks": 54000, "time": 56.25, "velocity": 0.6299212598425197 }, { "duration": 0.23645833333333144, "durationTicks": 227, "midi": 79, "name": "G5", "ticks": 54480, "time": 56.75, "velocity": 0.6299212598425197 }, { "duration": 0.23645833333333144, "durationTicks": 227, "midi": 85, "name": "C#6", "ticks": 54480, "time": 56.75, "velocity": 0.6299212598425197 }, { "duration": 0.23645833333333144, "durationTicks": 227, "midi": 81, "name": "A5", "ticks": 54960, "time": 57.25, "velocity": 0.6299212598425197 }, { "duration": 0.23645833333333144, "durationTicks": 227, "midi": 86, "name": "D6", "ticks": 54960, "time": 57.25, "velocity": 0.6299212598425197 }, { "duration": 0.23645833333333144, "durationTicks": 227, "midi": 79, "name": "G5", "ticks": 55920, "time": 58.25, "velocity": 0.6299212598425197 }, { "duration": 0.23645833333333144, "durationTicks": 227, "midi": 85, "name": "C#6", "ticks": 55920, "time": 58.25, "velocity": 0.6299212598425197 }, { "duration": 0.23645833333333144, "durationTicks": 227, "midi": 81, "name": "A5", "ticks": 56400, "time": 58.75, "velocity": 0.6299212598425197 }, { "duration": 0.23645833333333144, "durationTicks": 227, "midi": 86, "name": "D6", "ticks": 56400, "time": 58.75, "velocity": 0.6299212598425197 }, { "duration": 0.23645833333333144, "durationTicks": 227, "midi": 85, "name": "C#6", "ticks": 56880, "time": 59.25, "velocity": 0.6299212598425197 }, { "duration": 0.23645833333333144, "durationTicks": 227, "midi": 88, "name": "E6", "ticks": 56880, "time": 59.25, "velocity": 0.6299212598425197 }, { "duration": 0.23645833333333144, "durationTicks": 227, "midi": 81, "name": "A5", "ticks": 57840, "time": 60.25, "velocity": 0.6299212598425197 }, { "duration": 0.23645833333333144, "durationTicks": 227, "midi": 86, "name": "D6", "ticks": 57840, "time": 60.25, "velocity": 0.6299212598425197 }, { "duration": 0.23645833333333144, "durationTicks": 227, "midi": 85, "name": "C#6", "ticks": 58320, "time": 60.75, "velocity": 0.6299212598425197 }, { "duration": 0.23645833333333144, "durationTicks": 227, "midi": 88, "name": "E6", "ticks": 58320, "time": 60.75, "velocity": 0.6299212598425197 }, { "duration": 0.23645833333333144, "durationTicks": 227, "midi": 86, "name": "D6", "ticks": 58800, "time": 61.25, "velocity": 0.6299212598425197 }, { "duration": 0.23645833333333144, "durationTicks": 227, "midi": 89, "name": "F6", "ticks": 58800, "time": 61.25, "velocity": 0.6299212598425197 }, { "duration": 0.23645833333333144, "durationTicks": 227, "midi": 86, "name": "D6", "ticks": 59280, "time": 61.75, "velocity": 0.6299212598425197 }, { "duration": 0.23645833333333144, "durationTicks": 227, "midi": 89, "name": "F6", "ticks": 59280, "time": 61.75, "velocity": 0.6299212598425197 }, { "duration": 0.23645833333333144, "durationTicks": 227, "midi": 86, "name": "D6", "ticks": 59760, "time": 62.25, "velocity": 0.6299212598425197 }, { "duration": 0.23645833333333144, "durationTicks": 227, "midi": 91, "name": "G6", "ticks": 59760, "time": 62.25, "velocity": 0.6299212598425197 }, { "duration": 0.23645833333333144, "durationTicks": 227, "midi": 86, "name": "D6", "ticks": 60240, "time": 62.75, "velocity": 0.6299212598425197 }, { "duration": 0.23645833333333144, "durationTicks": 227, "midi": 91, "name": "G6", "ticks": 60240, "time": 62.75, "velocity": 0.6299212598425197 }, { "duration": 0.4739583333333357, "durationTicks": 455, "midi": 88, "name": "E6", "ticks": 60480, "time": 63, "velocity": 0.6299212598425197 }, { "duration": 0.4739583333333357, "durationTicks": 455, "midi": 93, "name": "A6", "ticks": 60480, "time": 63, "velocity": 0.6299212598425197 }, { "duration": 0.23645833333333144, "durationTicks": 227, "midi": 89, "name": "F6", "ticks": 61440, "time": 64, "velocity": 0.6299212598425197 }, { "duration": 0.23645833333333144, "durationTicks": 227, "midi": 86, "name": "D6", "ticks": 61680, "time": 64.25, "velocity": 0.6299212598425197 }, { "duration": 0.4739583333333286, "durationTicks": 455, "midi": 89, "name": "F6", "ticks": 61920, "time": 64.5, "velocity": 0.6299212598425197 }, { "duration": 0.4739583333333286, "durationTicks": 455, "midi": 88, "name": "E6", "ticks": 62400, "time": 65, "velocity": 0.6299212598425197 }, { "duration": 0.4739583333333286, "durationTicks": 455, "midi": 85, "name": "C#6", "ticks": 62880, "time": 65.5, "velocity": 0.6299212598425197 }, { "duration": 0.4739583333333286, "durationTicks": 455, "midi": 86, "name": "D6", "ticks": 63360, "time": 66, "velocity": 0.6299212598425197 }, { "duration": 0.23645833333333144, "durationTicks": 227, "midi": 84, "name": "C6", "ticks": 63840, "time": 66.5, "velocity": 0.6299212598425197 }, { "duration": 0.23645833333333144, "durationTicks": 227, "midi": 84, "name": "C6", "ticks": 64080, "time": 66.75, "velocity": 0.6299212598425197 }, { "duration": 0.4739583333333286, "durationTicks": 455, "midi": 84, "name": "C6", "ticks": 64320, "time": 67, "velocity": 0.6299212598425197 }, { "duration": 0.23645833333333144, "durationTicks": 227, "midi": 83, "name": "B5", "ticks": 64800, "time": 67.5, "velocity": 0.6299212598425197 }, { "duration": 0.23645833333333144, "durationTicks": 227, "midi": 83, "name": "B5", "ticks": 65040, "time": 67.75, "velocity": 0.6299212598425197 }, { "duration": 0.4739583333333286, "durationTicks": 455, "midi": 83, "name": "B5", "ticks": 65280, "time": 68, "velocity": 0.6299212598425197 }, { "duration": 0.23645833333333144, "durationTicks": 227, "midi": 82, "name": "A#5", "ticks": 65760, "time": 68.5, "velocity": 0.6299212598425197 }, { "duration": 0.23645833333333144, "durationTicks": 227, "midi": 82, "name": "A#5", "ticks": 66000, "time": 68.75, "velocity": 0.6299212598425197 }, { "duration": 0.4739583333333286, "durationTicks": 455, "midi": 82, "name": "A#5", "ticks": 66240, "time": 69, "velocity": 0.6299212598425197 }, { "duration": 0.23645833333333144, "durationTicks": 227, "midi": 81, "name": "A5", "ticks": 67200, "time": 70, "velocity": 0.6299212598425197 }, { "duration": 0.23645833333333144, "durationTicks": 227, "midi": 86, "name": "D6", "ticks": 67440, "time": 70.25, "velocity": 0.6299212598425197 }, { "duration": 0.23645833333333144, "durationTicks": 227, "midi": 82, "name": "A#5", "ticks": 67680, "time": 70.5, "velocity": 0.6299212598425197 }, { "duration": 0.23645833333333144, "durationTicks": 227, "midi": 86, "name": "D6", "ticks": 67920, "time": 70.75, "velocity": 0.6299212598425197 }, { "duration": 0.4739583333333286, "durationTicks": 455, "midi": 81, "name": "A5", "ticks": 68160, "time": 71, "velocity": 0.6299212598425197 }, { "duration": 0.23645833333333144, "durationTicks": 227, "midi": 77, "name": "F5", "ticks": 69600, "time": 72.5, "velocity": 0.6299212598425197 }, { "duration": 0.23645833333333144, "durationTicks": 227, "midi": 74, "name": "D5", "ticks": 69840, "time": 72.75, "velocity": 0.6299212598425197 }, { "duration": 0.4739583333333286, "durationTicks": 455, "midi": 77, "name": "F5", "ticks": 70080, "time": 73, "velocity": 0.6299212598425197 }, { "duration": 0.4739583333333286, "durationTicks": 455, "midi": 76, "name": "E5", "ticks": 70560, "time": 73.5, "velocity": 0.6299212598425197 }, { "duration": 0.4739583333333286, "durationTicks": 455, "midi": 82, "name": "A#5", "ticks": 71040, "time": 74, "velocity": 0.6299212598425197 }, { "duration": 0.4739583333333286, "durationTicks": 455, "midi": 81, "name": "A5", "ticks": 71520, "time": 74.5, "velocity": 0.6299212598425197 }, { "duration": 0.23645833333333144, "durationTicks": 227, "midi": 89, "name": "F6", "ticks": 72000, "time": 75, "velocity": 0.6299212598425197 }, { "duration": 0.23645833333333144, "durationTicks": 227, "midi": 89, "name": "F6", "ticks": 72240, "time": 75.25, "velocity": 0.6299212598425197 }, { "duration": 0.4739583333333286, "durationTicks": 455, "midi": 89, "name": "F6", "ticks": 72480, "time": 75.5, "velocity": 0.6299212598425197 }, { "duration": 0.23645833333333144, "durationTicks": 227, "midi": 88, "name": "E6", "ticks": 72960, "time": 76, "velocity": 0.6299212598425197 }, { "duration": 0.23645833333333144, "durationTicks": 227, "midi": 88, "name": "E6", "ticks": 73200, "time": 76.25, "velocity": 0.6299212598425197 }, { "duration": 0.4739583333333286, "durationTicks": 455, "midi": 88, "name": "E6", "ticks": 73440, "time": 76.5, "velocity": 0.6299212598425197 }, { "duration": 0.23645833333333144, "durationTicks": 227, "midi": 86, "name": "D6", "ticks": 73920, "time": 77, "velocity": 0.6299212598425197 }, { "duration": 0.23645833333333144, "durationTicks": 227, "midi": 86, "name": "D6", "ticks": 74160, "time": 77.25, "velocity": 0.6299212598425197 }, { "duration": 0.4739583333333286, "durationTicks": 455, "midi": 86, "name": "D6", "ticks": 74400, "time": 77.5, "velocity": 0.6299212598425197 }, { "duration": 0.23645833333333144, "durationTicks": 227, "midi": 85, "name": "C#6", "ticks": 74880, "time": 78, "velocity": 0.6299212598425197 }, { "duration": 0.23645833333333144, "durationTicks": 227, "midi": 88, "name": "E6", "ticks": 75120, "time": 78.25, "velocity": 0.6299212598425197 }, { "duration": 0.23645833333333144, "durationTicks": 227, "midi": 86, "name": "D6", "ticks": 75360, "time": 78.5, "velocity": 0.6299212598425197 }, { "duration": 0.23645833333333144, "durationTicks": 227, "midi": 88, "name": "E6", "ticks": 75600, "time": 78.75, "velocity": 0.6299212598425197 }, { "duration": 0.4739583333333286, "durationTicks": 455, "midi": 85, "name": "C#6", "ticks": 75840, "time": 79, "velocity": 0.6299212598425197 }, { "duration": 0.23645833333333144, "durationTicks": 227, "midi": 89, "name": "F6", "ticks": 77280, "time": 80.5, "velocity": 0.6299212598425197 }, { "duration": 0.23645833333333144, "durationTicks": 227, "midi": 86, "name": "D6", "ticks": 77520, "time": 80.75, "velocity": 0.6299212598425197 }, { "duration": 0.4739583333333286, "durationTicks": 455, "midi": 89, "name": "F6", "ticks": 77760, "time": 81, "velocity": 0.6299212598425197 }, { "duration": 0.4739583333333286, "durationTicks": 455, "midi": 88, "name": "E6", "ticks": 78240, "time": 81.5, "velocity": 0.6299212598425197 }, { "duration": 0.4739583333333286, "durationTicks": 455, "midi": 85, "name": "C#6", "ticks": 78720, "time": 82, "velocity": 0.6299212598425197 }, { "duration": 0.4739583333333286, "durationTicks": 455, "midi": 86, "name": "D6", "ticks": 79200, "time": 82.5, "velocity": 0.6299212598425197 }, { "duration": 0.23645833333333144, "durationTicks": 227, "midi": 84, "name": "C6", "ticks": 79680, "time": 83, "velocity": 0.6299212598425197 }, { "duration": 0.23645833333333144, "durationTicks": 227, "midi": 84, "name": "C6", "ticks": 79920, "time": 83.25, "velocity": 0.6299212598425197 }, { "duration": 0.4739583333333286, "durationTicks": 455, "midi": 84, "name": "C6", "ticks": 80160, "time": 83.5, "velocity": 0.6299212598425197 }, { "duration": 0.23645833333333144, "durationTicks": 227, "midi": 83, "name": "B5", "ticks": 80640, "time": 84, "velocity": 0.6299212598425197 }, { "duration": 0.23645833333333144, "durationTicks": 227, "midi": 83, "name": "B5", "ticks": 80880, "time": 84.25, "velocity": 0.6299212598425197 }, { "duration": 0.4739583333333286, "durationTicks": 455, "midi": 83, "name": "B5", "ticks": 81120, "time": 84.5, "velocity": 0.6299212598425197 }, { "duration": 0.23645833333333144, "durationTicks": 227, "midi": 82, "name": "A#5", "ticks": 81600, "time": 85, "velocity": 0.6299212598425197 }, { "duration": 0.23645833333333144, "durationTicks": 227, "midi": 82, "name": "A#5", "ticks": 81840, "time": 85.25, "velocity": 0.6299212598425197 }, { "duration": 0.4739583333333286, "durationTicks": 455, "midi": 82, "name": "A#5", "ticks": 82080, "time": 85.5, "velocity": 0.6299212598425197 }, { "duration": 0.23645833333333144, "durationTicks": 227, "midi": 81, "name": "A5", "ticks": 82560, "time": 86, "velocity": 0.6299212598425197 }, { "duration": 0.23645833333333144, "durationTicks": 227, "midi": 86, "name": "D6", "ticks": 82800, "time": 86.25, "velocity": 0.6299212598425197 }, { "duration": 0.23645833333333144, "durationTicks": 227, "midi": 82, "name": "A#5", "ticks": 83040, "time": 86.5, "velocity": 0.6299212598425197 }, { "duration": 0.23645833333333144, "durationTicks": 227, "midi": 86, "name": "D6", "ticks": 83280, "time": 86.75, "velocity": 0.6299212598425197 }, { "duration": 0.4739583333333286, "durationTicks": 455, "midi": 81, "name": "A5", "ticks": 83520, "time": 87, "velocity": 0.6299212598425197 }, { "duration": 0.23645833333333144, "durationTicks": 227, "midi": 80, "name": "G#5", "ticks": 84960, "time": 88.5, "velocity": 0.6299212598425197 }, { "duration": 0.23645833333333144, "durationTicks": 227, "midi": 86, "name": "D6", "ticks": 84960, "time": 88.5, "velocity": 0.6299212598425197 }, { "duration": 0.23645833333333144, "durationTicks": 227, "midi": 82, "name": "A#5", "ticks": 85200, "time": 88.75, "velocity": 0.6299212598425197 }, { "duration": 0.4739583333333286, "durationTicks": 455, "midi": 80, "name": "G#5", "ticks": 85440, "time": 89, "velocity": 0.6299212598425197 }, { "duration": 0.4739583333333286, "durationTicks": 455, "midi": 86, "name": "D6", "ticks": 85440, "time": 89, "velocity": 0.6299212598425197 }, { "duration": 0.4739583333333286, "durationTicks": 455, "midi": 79, "name": "G5", "ticks": 85920, "time": 89.5, "velocity": 0.6299212598425197 }, { "duration": 0.4739583333333286, "durationTicks": 455, "midi": 81, "name": "A5", "ticks": 85920, "time": 89.5, "velocity": 0.6299212598425197 }, { "duration": 0.4739583333333286, "durationTicks": 455, "midi": 85, "name": "C#6", "ticks": 85920, "time": 89.5, "velocity": 0.6299212598425197 }, { "duration": 0.23645833333333144, "durationTicks": 227, "midi": 78, "name": "F#5", "ticks": 86880, "time": 90.5, "velocity": 0.6299212598425197 }, { "duration": 0.23645833333333144, "durationTicks": 227, "midi": 84, "name": "C6", "ticks": 86880, "time": 90.5, "velocity": 0.6299212598425197 }, { "duration": 0.23645833333333144, "durationTicks": 227, "midi": 81, "name": "A5", "ticks": 87120, "time": 90.75, "velocity": 0.6299212598425197 }, { "duration": 0.4739583333333286, "durationTicks": 455, "midi": 78, "name": "F#5", "ticks": 87360, "time": 91, "velocity": 0.6299212598425197 }, { "duration": 0.4739583333333286, "durationTicks": 455, "midi": 84, "name": "C6", "ticks": 87360, "time": 91, "velocity": 0.6299212598425197 }, { "duration": 0.4739583333333286, "durationTicks": 455, "midi": 77, "name": "F5", "ticks": 87840, "time": 91.5, "velocity": 0.6299212598425197 }, { "duration": 0.4739583333333286, "durationTicks": 455, "midi": 79, "name": "G5", "ticks": 87840, "time": 91.5, "velocity": 0.6299212598425197 }, { "duration": 0.4739583333333286, "durationTicks": 455, "midi": 83, "name": "B5", "ticks": 87840, "time": 91.5, "velocity": 0.6299212598425197 }, { "duration": 0.23645833333333144, "durationTicks": 227, "midi": 76, "name": "E5", "ticks": 88800, "time": 92.5, "velocity": 0.6299212598425197 }, { "duration": 0.23645833333333144, "durationTicks": 227, "midi": 82, "name": "A#5", "ticks": 88800, "time": 92.5, "velocity": 0.6299212598425197 }, { "duration": 0.23645833333333144, "durationTicks": 227, "midi": 79, "name": "G5", "ticks": 89040, "time": 92.75, "velocity": 0.6299212598425197 }, { "duration": 0.4739583333333286, "durationTicks": 455, "midi": 76, "name": "E5", "ticks": 89280, "time": 93, "velocity": 0.6299212598425197 }, { "duration": 0.4739583333333286, "durationTicks": 455, "midi": 82, "name": "A#5", "ticks": 89280, "time": 93, "velocity": 0.6299212598425197 }, { "duration": 0.4739583333333286, "durationTicks": 455, "midi": 77, "name": "F5", "ticks": 89760, "time": 93.5, "velocity": 0.6299212598425197 }, { "duration": 0.4739583333333286, "durationTicks": 455, "midi": 81, "name": "A5", "ticks": 89760, "time": 93.5, "velocity": 0.6299212598425197 }, { "duration": 0.4739583333333286, "durationTicks": 455, "midi": 93, "name": "A6", "ticks": 90720, "time": 94.5, "velocity": 0.6299212598425197 }, { "duration": 0.4739583333333286, "durationTicks": 455, "midi": 86, "name": "D6", "ticks": 91200, "time": 95, "velocity": 0.6299212598425197 } ] }, { "channel": 1, "controlChanges": { "7": [ { "number": 7, "ticks": 0, "time": 0, "value": 0.7874015748031497 } ], "10": [ { "number": 10, "ticks": 0, "time": 0, "value": 0.5039370078740157 } ], "91": [ { "number": 91, "ticks": 0, "time": 0, "value": 0 } ], "93": [ { "number": 93, "ticks": 0, "time": 0, "value": 0 } ], "121": [ { "number": 121, "ticks": 0, "time": 0, "value": 0 } ] }, "pitchBends": [], "instrument": { "family": "piano", "name": "acoustic grand piano", "number": 0 }, "name": "Piano\u0000", "notes": [ { "duration": 0.47395833333333337, "durationTicks": 455, "midi": 57, "name": "A3", "ticks": 480, "time": 0.5, "velocity": 0.6299212598425197 }, { "duration": 0.47395833333333337, "durationTicks": 455, "midi": 62, "name": "D4", "ticks": 480, "time": 0.5, "velocity": 0.6299212598425197 }, { "duration": 0.47395833333333326, "durationTicks": 455, "midi": 58, "name": "A#3", "ticks": 1440, "time": 1.5, "velocity": 0.6299212598425197 }, { "duration": 0.47395833333333326, "durationTicks": 455, "midi": 64, "name": "E4", "ticks": 1440, "time": 1.5, "velocity": 0.6299212598425197 }, { "duration": 0.4739583333333335, "durationTicks": 455, "midi": 59, "name": "B3", "ticks": 2400, "time": 2.5, "velocity": 0.6299212598425197 }, { "duration": 0.4739583333333335, "durationTicks": 455, "midi": 65, "name": "F4", "ticks": 2400, "time": 2.5, "velocity": 0.6299212598425197 }, { "duration": 0.4739583333333335, "durationTicks": 455, "midi": 55, "name": "G3", "ticks": 3360, "time": 3.5, "velocity": 0.6299212598425197 }, { "duration": 0.4739583333333335, "durationTicks": 455, "midi": 61, "name": "C#4", "ticks": 3360, "time": 3.5, "velocity": 0.6299212598425197 }, { "duration": 0.47395833333333304, "durationTicks": 455, "midi": 57, "name": "A3", "ticks": 4320, "time": 4.5, "velocity": 0.6299212598425197 }, { "duration": 0.47395833333333304, "durationTicks": 455, "midi": 62, "name": "D4", "ticks": 4320, "time": 4.5, "velocity": 0.6299212598425197 }, { "duration": 0.47395833333333304, "durationTicks": 455, "midi": 58, "name": "A#3", "ticks": 5280, "time": 5.5, "velocity": 0.6299212598425197 }, { "duration": 0.47395833333333304, "durationTicks": 455, "midi": 64, "name": "E4", "ticks": 5280, "time": 5.5, "velocity": 0.6299212598425197 }, { "duration": 0.47395833333333304, "durationTicks": 455, "midi": 59, "name": "B3", "ticks": 6240, "time": 6.5, "velocity": 0.6299212598425197 }, { "duration": 0.47395833333333304, "durationTicks": 455, "midi": 65, "name": "F4", "ticks": 6240, "time": 6.5, "velocity": 0.6299212598425197 }, { "duration": 0.47395833333333304, "durationTicks": 455, "midi": 55, "name": "G3", "ticks": 7200, "time": 7.5, "velocity": 0.6299212598425197 }, { "duration": 0.47395833333333304, "durationTicks": 455, "midi": 61, "name": "C#4", "ticks": 7200, "time": 7.5, "velocity": 0.6299212598425197 }, { "duration": 0.4739583333333339, "durationTicks": 455, "midi": 57, "name": "A3", "ticks": 8160, "time": 8.5, "velocity": 0.6299212598425197 }, { "duration": 0.4739583333333339, "durationTicks": 455, "midi": 62, "name": "D4", "ticks": 8160, "time": 8.5, "velocity": 0.6299212598425197 }, { "duration": 0.4739583333333339, "durationTicks": 455, "midi": 58, "name": "A#3", "ticks": 9120, "time": 9.5, "velocity": 0.6299212598425197 }, { "duration": 0.4739583333333339, "durationTicks": 455, "midi": 62, "name": "D4", "ticks": 9120, "time": 9.5, "velocity": 0.6299212598425197 }, { "duration": 0.4739583333333339, "durationTicks": 455, "midi": 59, "name": "B3", "ticks": 10080, "time": 10.5, "velocity": 0.6299212598425197 }, { "duration": 0.4739583333333339, "durationTicks": 455, "midi": 62, "name": "D4", "ticks": 10080, "time": 10.5, "velocity": 0.6299212598425197 }, { "duration": 0.4739583333333339, "durationTicks": 455, "midi": 60, "name": "C4", "ticks": 11040, "time": 11.5, "velocity": 0.6299212598425197 }, { "duration": 0.4739583333333339, "durationTicks": 455, "midi": 63, "name": "D#4", "ticks": 11040, "time": 11.5, "velocity": 0.6299212598425197 }, { "duration": 0.4739583333333339, "durationTicks": 455, "midi": 59, "name": "B3", "ticks": 12000, "time": 12.5, "velocity": 0.6299212598425197 }, { "duration": 0.4739583333333339, "durationTicks": 455, "midi": 62, "name": "D4", "ticks": 12000, "time": 12.5, "velocity": 0.6299212598425197 }, { "duration": 0.4739583333333339, "durationTicks": 455, "midi": 58, "name": "A#3", "ticks": 12960, "time": 13.5, "velocity": 0.6299212598425197 }, { "duration": 0.4739583333333339, "durationTicks": 455, "midi": 62, "name": "D4", "ticks": 12960, "time": 13.5, "velocity": 0.6299212598425197 }, { "duration": 0.4739583333333339, "durationTicks": 455, "midi": 70, "name": "A#4", "ticks": 13920, "time": 14.5, "velocity": 0.6299212598425197 }, { "duration": 0.4739583333333339, "durationTicks": 455, "midi": 74, "name": "D5", "ticks": 13920, "time": 14.5, "velocity": 0.6299212598425197 }, { "duration": 0.4739583333333339, "durationTicks": 455, "midi": 69, "name": "A4", "ticks": 14400, "time": 15, "velocity": 0.6299212598425197 }, { "duration": 0.4739583333333339, "durationTicks": 455, "midi": 74, "name": "D5", "ticks": 14400, "time": 15, "velocity": 0.6299212598425197 }, { "duration": 0.11770833333333286, "durationTicks": 113, "midi": 74, "name": "D5", "ticks": 14880, "time": 15.5, "velocity": 0.6299212598425197 }, { "duration": 0.11770833333333286, "durationTicks": 113, "midi": 72, "name": "C5", "ticks": 15000, "time": 15.625, "velocity": 0.6299212598425197 }, { "duration": 0.11770833333333286, "durationTicks": 113, "midi": 70, "name": "A#4", "ticks": 15120, "time": 15.75, "velocity": 0.6299212598425197 }, { "duration": 0.11770833333333286, "durationTicks": 113, "midi": 69, "name": "A4", "ticks": 15240, "time": 15.875, "velocity": 0.6299212598425197 }, { "duration": 0.47395833333333215, "durationTicks": 455, "midi": 68, "name": "G#4", "ticks": 15360, "time": 16, "velocity": 0.6299212598425197 }, { "duration": 0.47395833333333215, "durationTicks": 455, "midi": 65, "name": "F4", "ticks": 15840, "time": 16.5, "velocity": 0.6299212598425197 }, { "duration": 0.47395833333333215, "durationTicks": 455, "midi": 68, "name": "G#4", "ticks": 15840, "time": 16.5, "velocity": 0.6299212598425197 }, { "duration": 0.47395833333333215, "durationTicks": 455, "midi": 64, "name": "E4", "ticks": 16800, "time": 17.5, "velocity": 0.6299212598425197 }, { "duration": 0.47395833333333215, "durationTicks": 455, "midi": 67, "name": "G4", "ticks": 16800, "time": 17.5, "velocity": 0.6299212598425197 }, { "duration": 0.47395833333333215, "durationTicks": 455, "midi": 57, "name": "A3", "ticks": 17760, "time": 18.5, "velocity": 0.6299212598425197 }, { "duration": 0.47395833333333215, "durationTicks": 455, "midi": 65, "name": "F4", "ticks": 17760, "time": 18.5, "velocity": 0.6299212598425197 }, { "duration": 0.47395833333333215, "durationTicks": 455, "midi": 62, "name": "D4", "ticks": 18720, "time": 19.5, "velocity": 0.6299212598425197 }, { "duration": 0.47395833333333215, "durationTicks": 455, "midi": 64, "name": "E4", "ticks": 18720, "time": 19.5, "velocity": 0.6299212598425197 }, { "duration": 0.47395833333333215, "durationTicks": 455, "midi": 64, "name": "E4", "ticks": 19680, "time": 20.5, "velocity": 0.6299212598425197 }, { "duration": 0.47395833333333215, "durationTicks": 455, "midi": 67, "name": "G4", "ticks": 19680, "time": 20.5, "velocity": 0.6299212598425197 }, { "duration": 0.47395833333333215, "durationTicks": 455, "midi": 56, "name": "G#3", "ticks": 20640, "time": 21.5, "velocity": 0.6299212598425197 }, { "duration": 0.47395833333333215, "durationTicks": 455, "midi": 59, "name": "B3", "ticks": 20640, "time": 21.5, "velocity": 0.6299212598425197 }, { "duration": 0.47395833333333215, "durationTicks": 455, "midi": 64, "name": "E4", "ticks": 20640, "time": 21.5, "velocity": 0.6299212598425197 }, { "duration": 0.47395833333333215, "durationTicks": 455, "midi": 61, "name": "C#4", "ticks": 21120, "time": 22, "velocity": 0.6299212598425197 }, { "duration": 0.47395833333333215, "durationTicks": 455, "midi": 64, "name": "E4", "ticks": 21120, "time": 22, "velocity": 0.6299212598425197 }, { "duration": 0.47395833333333215, "durationTicks": 455, "midi": 62, "name": "D4", "ticks": 21600, "time": 22.5, "velocity": 0.6299212598425197 }, { "duration": 0.47395833333333215, "durationTicks": 455, "midi": 64, "name": "E4", "ticks": 21600, "time": 22.5, "velocity": 0.6299212598425197 }, { "duration": 0.47395833333333215, "durationTicks": 455, "midi": 61, "name": "C#4", "ticks": 22080, "time": 23, "velocity": 0.6299212598425197 }, { "duration": 0.47395833333333215, "durationTicks": 455, "midi": 64, "name": "E4", "ticks": 22080, "time": 23, "velocity": 0.6299212598425197 }, { "duration": 0.47395833333333215, "durationTicks": 455, "midi": 62, "name": "D4", "ticks": 23040, "time": 24, "velocity": 0.6299212598425197 }, { "duration": 0.47395833333333215, "durationTicks": 455, "midi": 57, "name": "A3", "ticks": 23520, "time": 24.5, "velocity": 0.6299212598425197 }, { "duration": 0.47395833333333215, "durationTicks": 455, "midi": 62, "name": "D4", "ticks": 23520, "time": 24.5, "velocity": 0.6299212598425197 }, { "duration": 0.47395833333333215, "durationTicks": 455, "midi": 58, "name": "A#3", "ticks": 24480, "time": 25.5, "velocity": 0.6299212598425197 }, { "duration": 0.47395833333333215, "durationTicks": 455, "midi": 62, "name": "D4", "ticks": 24480, "time": 25.5, "velocity": 0.6299212598425197 }, { "duration": 0.47395833333333215, "durationTicks": 455, "midi": 59, "name": "B3", "ticks": 25440, "time": 26.5, "velocity": 0.6299212598425197 }, { "duration": 0.47395833333333215, "durationTicks": 455, "midi": 62, "name": "D4", "ticks": 25440, "time": 26.5, "velocity": 0.6299212598425197 }, { "duration": 0.47395833333333215, "durationTicks": 455, "midi": 60, "name": "C4", "ticks": 26400, "time": 27.5, "velocity": 0.6299212598425197 }, { "duration": 0.47395833333333215, "durationTicks": 455, "midi": 62, "name": "D4", "ticks": 26400, "time": 27.5, "velocity": 0.6299212598425197 }, { "duration": 0.47395833333333215, "durationTicks": 455, "midi": 59, "name": "B3", "ticks": 27360, "time": 28.5, "velocity": 0.6299212598425197 }, { "duration": 0.47395833333333215, "durationTicks": 455, "midi": 62, "name": "D4", "ticks": 27360, "time": 28.5, "velocity": 0.6299212598425197 }, { "duration": 0.47395833333333215, "durationTicks": 455, "midi": 58, "name": "A#3", "ticks": 28320, "time": 29.5, "velocity": 0.6299212598425197 }, { "duration": 0.47395833333333215, "durationTicks": 455, "midi": 62, "name": "D4", "ticks": 28320, "time": 29.5, "velocity": 0.6299212598425197 }, { "duration": 0.47395833333333215, "durationTicks": 455, "midi": 64, "name": "E4", "ticks": 29280, "time": 30.5, "velocity": 0.6299212598425197 }, { "duration": 0.47395833333333215, "durationTicks": 455, "midi": 67, "name": "G4", "ticks": 29280, "time": 30.5, "velocity": 0.6299212598425197 }, { "duration": 0.47395833333333215, "durationTicks": 455, "midi": 65, "name": "F4", "ticks": 29760, "time": 31, "velocity": 0.6299212598425197 }, { "duration": 0.47395833333333215, "durationTicks": 455, "midi": 69, "name": "A4", "ticks": 29760, "time": 31, "velocity": 0.6299212598425197 }, { "duration": 0.11770833333333286, "durationTicks": 113, "midi": 65, "name": "F4", "ticks": 30240, "time": 31.5, "velocity": 0.6299212598425197 }, { "duration": 0.11770833333333286, "durationTicks": 113, "midi": 64, "name": "E4", "ticks": 30360, "time": 31.625, "velocity": 0.6299212598425197 }, { "duration": 0.11770833333333286, "durationTicks": 113, "midi": 62, "name": "D4", "ticks": 30480, "time": 31.75, "velocity": 0.6299212598425197 }, { "duration": 0.11770833333333286, "durationTicks": 113, "midi": 60, "name": "C4", "ticks": 30600, "time": 31.875, "velocity": 0.6299212598425197 }, { "duration": 0.4739583333333357, "durationTicks": 455, "midi": 59, "name": "B3", "ticks": 30720, "time": 32, "velocity": 0.6299212598425197 }, { "duration": 0.94895833333333, "durationTicks": 911, "midi": 68, "name": "G#4", "ticks": 31200, "time": 32.5, "velocity": 0.6299212598425197 }, { "duration": 0.4739583333333357, "durationTicks": 455, "midi": 61, "name": "C#4", "ticks": 32160, "time": 33.5, "velocity": 0.6299212598425197 }, { "duration": 0.4739583333333357, "durationTicks": 455, "midi": 67, "name": "G4", "ticks": 32160, "time": 33.5, "velocity": 0.6299212598425197 }, { "duration": 0.4739583333333357, "durationTicks": 455, "midi": 69, "name": "A4", "ticks": 32160, "time": 33.5, "velocity": 0.6299212598425197 }, { "duration": 0.94895833333333, "durationTicks": 911, "midi": 66, "name": "F#4", "ticks": 33120, "time": 34.5, "velocity": 0.6299212598425197 }, { "duration": 0.4739583333333357, "durationTicks": 455, "midi": 59, "name": "B3", "ticks": 34080, "time": 35.5, "velocity": 0.6299212598425197 }, { "duration": 0.4739583333333357, "durationTicks": 455, "midi": 65, "name": "F4", "ticks": 34080, "time": 35.5, "velocity": 0.6299212598425197 }, { "duration": 0.4739583333333357, "durationTicks": 455, "midi": 67, "name": "G4", "ticks": 34080, "time": 35.5, "velocity": 0.6299212598425197 }, { "duration": 0.94895833333333, "durationTicks": 911, "midi": 64, "name": "E4", "ticks": 35040, "time": 36.5, "velocity": 0.6299212598425197 }, { "duration": 0.4739583333333357, "durationTicks": 455, "midi": 57, "name": "A3", "ticks": 36000, "time": 37.5, "velocity": 0.6299212598425197 }, { "duration": 0.4739583333333357, "durationTicks": 455, "midi": 65, "name": "F4", "ticks": 36000, "time": 37.5, "velocity": 0.6299212598425197 }, { "duration": 0.4739583333333357, "durationTicks": 455, "midi": 61, "name": "C#4", "ticks": 36960, "time": 38.5, "velocity": 0.6299212598425197 }, { "duration": 0.4739583333333357, "durationTicks": 455, "midi": 64, "name": "E4", "ticks": 36960, "time": 38.5, "velocity": 0.6299212598425197 }, { "duration": 0.4739583333333357, "durationTicks": 455, "midi": 57, "name": "A3", "ticks": 37440, "time": 39, "velocity": 0.6299212598425197 }, { "duration": 0.4739583333333357, "durationTicks": 455, "midi": 62, "name": "D4", "ticks": 37440, "time": 39, "velocity": 0.6299212598425197 }, { "duration": 0.4739583333333357, "durationTicks": 455, "midi": 53, "name": "F3", "ticks": 38400, "time": 40, "velocity": 0.6299212598425197 }, { "duration": 0.4739583333333357, "durationTicks": 455, "midi": 55, "name": "G3", "ticks": 38880, "time": 40.5, "velocity": 0.6299212598425197 }, { "duration": 0.94895833333333, "durationTicks": 911, "midi": 57, "name": "A3", "ticks": 39360, "time": 41, "velocity": 0.6299212598425197 }, { "duration": 1.4239583333333314, "durationTicks": 1367, "midi": 57, "name": "A3", "ticks": 40320, "time": 42, "velocity": 0.6299212598425197 }, { "duration": 0.15729166666666572, "durationTicks": 151, "midi": 57, "name": "A3", "ticks": 41760, "time": 43.5, "velocity": 0.6299212598425197 }, { "duration": 0.15729166666666572, "durationTicks": 151, "midi": 58, "name": "A#3", "ticks": 41920, "time": 43.666666666666664, "velocity": 0.6299212598425197 }, { "duration": 0.15729166666666572, "durationTicks": 151, "midi": 57, "name": "A3", "ticks": 42080, "time": 43.833333333333336, "velocity": 0.6299212598425197 }, { "duration": 0.23645833333333144, "durationTicks": 227, "midi": 55, "name": "G3", "ticks": 42240, "time": 44, "velocity": 0.6299212598425197 }, { "duration": 0.23645833333333144, "durationTicks": 227, "midi": 53, "name": "F3", "ticks": 42480, "time": 44.25, "velocity": 0.6299212598425197 }, { "duration": 0.23645833333333144, "durationTicks": 227, "midi": 53, "name": "F3", "ticks": 42720, "time": 44.5, "velocity": 0.6299212598425197 }, { "duration": 0.23645833333333144, "durationTicks": 227, "midi": 53, "name": "F3", "ticks": 42960, "time": 44.75, "velocity": 0.6299212598425197 }, { "duration": 0.23645833333333144, "durationTicks": 227, "midi": 53, "name": "F3", "ticks": 43200, "time": 45, "velocity": 0.6299212598425197 }, { "duration": 0.23645833333333144, "durationTicks": 227, "midi": 53, "name": "F3", "ticks": 43440, "time": 45.25, "velocity": 0.6299212598425197 }, { "duration": 0.15729166666666572, "durationTicks": 151, "midi": 53, "name": "F3", "ticks": 43680, "time": 45.5, "velocity": 0.6299212598425197 }, { "duration": 0.15729166666666572, "durationTicks": 151, "midi": 57, "name": "A3", "ticks": 43840, "time": 45.666666666666664, "velocity": 0.6299212598425197 }, { "duration": 0.15729166666666572, "durationTicks": 151, "midi": 55, "name": "G3", "ticks": 44000, "time": 45.833333333333336, "velocity": 0.6299212598425197 }, { "duration": 0.23645833333333144, "durationTicks": 227, "midi": 53, "name": "F3", "ticks": 44160, "time": 46, "velocity": 0.6299212598425197 }, { "duration": 0.23645833333333144, "durationTicks": 227, "midi": 52, "name": "E3", "ticks": 44400, "time": 46.25, "velocity": 0.6299212598425197 }, { "duration": 0.23645833333333144, "durationTicks": 227, "midi": 52, "name": "E3", "ticks": 44640, "time": 46.5, "velocity": 0.6299212598425197 }, { "duration": 0.23645833333333144, "durationTicks": 227, "midi": 52, "name": "E3", "ticks": 44880, "time": 46.75, "velocity": 0.6299212598425197 }, { "duration": 0.23645833333333144, "durationTicks": 227, "midi": 52, "name": "E3", "ticks": 45120, "time": 47, "velocity": 0.6299212598425197 }, { "duration": 0.23645833333333144, "durationTicks": 227, "midi": 52, "name": "E3", "ticks": 45360, "time": 47.25, "velocity": 0.6299212598425197 }, { "duration": 0.4739583333333357, "durationTicks": 455, "midi": 53, "name": "F3", "ticks": 46080, "time": 48, "velocity": 0.6299212598425197 }, { "duration": 0.4739583333333357, "durationTicks": 455, "midi": 55, "name": "G3", "ticks": 46560, "time": 48.5, "velocity": 0.6299212598425197 }, { "duration": 0.94895833333333, "durationTicks": 911, "midi": 57, "name": "A3", "ticks": 47040, "time": 49, "velocity": 0.6299212598425197 }, { "duration": 1.4239583333333314, "durationTicks": 1367, "midi": 57, "name": "A3", "ticks": 48000, "time": 50, "velocity": 0.6299212598425197 }, { "duration": 0.15729166666666572, "durationTicks": 151, "midi": 57, "name": "A3", "ticks": 49440, "time": 51.5, "velocity": 0.6299212598425197 }, { "duration": 0.15729166666666572, "durationTicks": 151, "midi": 58, "name": "A#3", "ticks": 49600, "time": 51.666666666666664, "velocity": 0.6299212598425197 }, { "duration": 0.15729166666666572, "durationTicks": 151, "midi": 57, "name": "A3", "ticks": 49760, "time": 51.833333333333336, "velocity": 0.6299212598425197 }, { "duration": 0.23645833333333144, "durationTicks": 227, "midi": 55, "name": "G3", "ticks": 49920, "time": 52, "velocity": 0.6299212598425197 }, { "duration": 0.23645833333333144, "durationTicks": 227, "midi": 53, "name": "F3", "ticks": 50160, "time": 52.25, "velocity": 0.6299212598425197 }, { "duration": 0.23645833333333144, "durationTicks": 227, "midi": 53, "name": "F3", "ticks": 50400, "time": 52.5, "velocity": 0.6299212598425197 }, { "duration": 0.23645833333333144, "durationTicks": 227, "midi": 53, "name": "F3", "ticks": 50640, "time": 52.75, "velocity": 0.6299212598425197 }, { "duration": 0.23645833333333144, "durationTicks": 227, "midi": 53, "name": "F3", "ticks": 50880, "time": 53, "velocity": 0.6299212598425197 }, { "duration": 0.23645833333333144, "durationTicks": 227, "midi": 53, "name": "F3", "ticks": 51120, "time": 53.25, "velocity": 0.6299212598425197 }, { "duration": 0.15729166666666572, "durationTicks": 151, "midi": 53, "name": "F3", "ticks": 51360, "time": 53.5, "velocity": 0.6299212598425197 }, { "duration": 0.15729166666666572, "durationTicks": 151, "midi": 57, "name": "A3", "ticks": 51520, "time": 53.666666666666664, "velocity": 0.6299212598425197 }, { "duration": 0.15729166666666572, "durationTicks": 151, "midi": 55, "name": "G3", "ticks": 51680, "time": 53.833333333333336, "velocity": 0.6299212598425197 }, { "duration": 0.23645833333333144, "durationTicks": 227, "midi": 53, "name": "F3", "ticks": 51840, "time": 54, "velocity": 0.6299212598425197 }, { "duration": 0.23645833333333144, "durationTicks": 227, "midi": 52, "name": "E3", "ticks": 52080, "time": 54.25, "velocity": 0.6299212598425197 }, { "duration": 0.23645833333333144, "durationTicks": 227, "midi": 52, "name": "E3", "ticks": 52320, "time": 54.5, "velocity": 0.6299212598425197 }, { "duration": 0.23645833333333144, "durationTicks": 227, "midi": 52, "name": "E3", "ticks": 52560, "time": 54.75, "velocity": 0.6299212598425197 }, { "duration": 0.23645833333333144, "durationTicks": 227, "midi": 52, "name": "E3", "ticks": 52800, "time": 55, "velocity": 0.6299212598425197 }, { "duration": 0.23645833333333144, "durationTicks": 227, "midi": 52, "name": "E3", "ticks": 53040, "time": 55.25, "velocity": 0.6299212598425197 }, { "duration": 1.8989583333333329, "durationTicks": 1823, "midi": 57, "name": "A3", "ticks": 55200, "time": 57.5, "velocity": 0.6299212598425197 }, { "duration": 1.8989583333333329, "durationTicks": 1823, "midi": 69, "name": "A4", "ticks": 55200, "time": 57.5, "velocity": 0.6299212598425197 }, { "duration": 2.3739583333333343, "durationTicks": 2279, "midi": 57, "name": "A3", "ticks": 57120, "time": 59.5, "velocity": 0.6299212598425197 }, { "duration": 2.3739583333333343, "durationTicks": 2279, "midi": 69, "name": "A4", "ticks": 57120, "time": 59.5, "velocity": 0.6299212598425197 }, { "duration": 0.4739583333333357, "durationTicks": 455, "midi": 62, "name": "D4", "ticks": 59520, "time": 62, "velocity": 0.6299212598425197 }, { "duration": 0.4739583333333357, "durationTicks": 455, "midi": 67, "name": "G4", "ticks": 59520, "time": 62, "velocity": 0.6299212598425197 }, { "duration": 0.4739583333333357, "durationTicks": 455, "midi": 62, "name": "D4", "ticks": 60000, "time": 62.5, "velocity": 0.6299212598425197 }, { "duration": 0.4739583333333357, "durationTicks": 455, "midi": 67, "name": "G4", "ticks": 60000, "time": 62.5, "velocity": 0.6299212598425197 }, { "duration": 0.4739583333333357, "durationTicks": 455, "midi": 64, "name": "E4", "ticks": 60480, "time": 63, "velocity": 0.6299212598425197 }, { "duration": 0.4739583333333357, "durationTicks": 455, "midi": 67, "name": "G4", "ticks": 60480, "time": 63, "velocity": 0.6299212598425197 }, { "duration": 0.4739583333333286, "durationTicks": 455, "midi": 57, "name": "A3", "ticks": 61440, "time": 64, "velocity": 0.6299212598425197 }, { "duration": 0.4739583333333286, "durationTicks": 455, "midi": 62, "name": "D4", "ticks": 61440, "time": 64, "velocity": 0.6299212598425197 }, { "duration": 0.4739583333333286, "durationTicks": 455, "midi": 58, "name": "A#3", "ticks": 62400, "time": 65, "velocity": 0.6299212598425197 }, { "duration": 0.4739583333333286, "durationTicks": 455, "midi": 62, "name": "D4", "ticks": 62400, "time": 65, "velocity": 0.6299212598425197 }, { "duration": 0.4739583333333286, "durationTicks": 455, "midi": 59, "name": "B3", "ticks": 63360, "time": 66, "velocity": 0.6299212598425197 }, { "duration": 0.4739583333333286, "durationTicks": 455, "midi": 62, "name": "D4", "ticks": 63360, "time": 66, "velocity": 0.6299212598425197 }, { "duration": 0.4739583333333286, "durationTicks": 455, "midi": 60, "name": "C4", "ticks": 64320, "time": 67, "velocity": 0.6299212598425197 }, { "duration": 0.4739583333333286, "durationTicks": 455, "midi": 63, "name": "D#4", "ticks": 64320, "time": 67, "velocity": 0.6299212598425197 }, { "duration": 0.4739583333333286, "durationTicks": 455, "midi": 59, "name": "B3", "ticks": 65280, "time": 68, "velocity": 0.6299212598425197 }, { "duration": 0.4739583333333286, "durationTicks": 455, "midi": 62, "name": "D4", "ticks": 65280, "time": 68, "velocity": 0.6299212598425197 }, { "duration": 0.4739583333333286, "durationTicks": 455, "midi": 58, "name": "A#3", "ticks": 66240, "time": 69, "velocity": 0.6299212598425197 }, { "duration": 0.4739583333333286, "durationTicks": 455, "midi": 62, "name": "D4", "ticks": 66240, "time": 69, "velocity": 0.6299212598425197 }, { "duration": 0.4739583333333286, "durationTicks": 455, "midi": 70, "name": "A#4", "ticks": 67680, "time": 70.5, "velocity": 0.6299212598425197 }, { "duration": 0.4739583333333286, "durationTicks": 455, "midi": 74, "name": "D5", "ticks": 67680, "time": 70.5, "velocity": 0.6299212598425197 }, { "duration": 0.4739583333333286, "durationTicks": 455, "midi": 69, "name": "A4", "ticks": 68160, "time": 71, "velocity": 0.6299212598425197 }, { "duration": 0.4739583333333286, "durationTicks": 455, "midi": 74, "name": "D5", "ticks": 68160, "time": 71, "velocity": 0.6299212598425197 }, { "duration": 0.11770833333333997, "durationTicks": 113, "midi": 74, "name": "D5", "ticks": 68640, "time": 71.5, "velocity": 0.6299212598425197 }, { "duration": 0.11770833333333997, "durationTicks": 113, "midi": 72, "name": "C5", "ticks": 68760, "time": 71.625, "velocity": 0.6299212598425197 }, { "duration": 0.11770833333333997, "durationTicks": 113, "midi": 70, "name": "A#4", "ticks": 68880, "time": 71.75, "velocity": 0.6299212598425197 }, { "duration": 0.11770833333333997, "durationTicks": 113, "midi": 69, "name": "A4", "ticks": 69000, "time": 71.875, "velocity": 0.6299212598425197 }, { "duration": 0.4739583333333286, "durationTicks": 455, "midi": 68, "name": "G#4", "ticks": 69120, "time": 72, "velocity": 0.6299212598425197 }, { "duration": 0.4739583333333286, "durationTicks": 455, "midi": 65, "name": "F4", "ticks": 69600, "time": 72.5, "velocity": 0.6299212598425197 }, { "duration": 0.4739583333333286, "durationTicks": 455, "midi": 68, "name": "G#4", "ticks": 69600, "time": 72.5, "velocity": 0.6299212598425197 }, { "duration": 0.4739583333333286, "durationTicks": 455, "midi": 64, "name": "E4", "ticks": 70560, "time": 73.5, "velocity": 0.6299212598425197 }, { "duration": 0.4739583333333286, "durationTicks": 455, "midi": 67, "name": "G4", "ticks": 70560, "time": 73.5, "velocity": 0.6299212598425197 }, { "duration": 0.4739583333333286, "durationTicks": 455, "midi": 62, "name": "D4", "ticks": 71520, "time": 74.5, "velocity": 0.6299212598425197 }, { "duration": 0.4739583333333286, "durationTicks": 455, "midi": 65, "name": "F4", "ticks": 71520, "time": 74.5, "velocity": 0.6299212598425197 }, { "duration": 0.4739583333333286, "durationTicks": 455, "midi": 62, "name": "D4", "ticks": 72480, "time": 75.5, "velocity": 0.6299212598425197 }, { "duration": 0.4739583333333286, "durationTicks": 455, "midi": 64, "name": "E4", "ticks": 72480, "time": 75.5, "velocity": 0.6299212598425197 }, { "duration": 0.4739583333333286, "durationTicks": 455, "midi": 64, "name": "E4", "ticks": 73440, "time": 76.5, "velocity": 0.6299212598425197 }, { "duration": 0.4739583333333286, "durationTicks": 455, "midi": 67, "name": "G4", "ticks": 73440, "time": 76.5, "velocity": 0.6299212598425197 }, { "duration": 0.4739583333333286, "durationTicks": 455, "midi": 59, "name": "B3", "ticks": 74400, "time": 77.5, "velocity": 0.6299212598425197 }, { "duration": 0.4739583333333286, "durationTicks": 455, "midi": 64, "name": "E4", "ticks": 74400, "time": 77.5, "velocity": 0.6299212598425197 }, { "duration": 0.4739583333333286, "durationTicks": 455, "midi": 61, "name": "C#4", "ticks": 74880, "time": 78, "velocity": 0.6299212598425197 }, { "duration": 0.4739583333333286, "durationTicks": 455, "midi": 64, "name": "E4", "ticks": 74880, "time": 78, "velocity": 0.6299212598425197 }, { "duration": 0.4739583333333286, "durationTicks": 455, "midi": 62, "name": "D4", "ticks": 75360, "time": 78.5, "velocity": 0.6299212598425197 }, { "duration": 0.4739583333333286, "durationTicks": 455, "midi": 64, "name": "E4", "ticks": 75360, "time": 78.5, "velocity": 0.6299212598425197 }, { "duration": 0.4739583333333286, "durationTicks": 455, "midi": 61, "name": "C#4", "ticks": 75840, "time": 79, "velocity": 0.6299212598425197 }, { "duration": 0.4739583333333286, "durationTicks": 455, "midi": 64, "name": "E4", "ticks": 75840, "time": 79, "velocity": 0.6299212598425197 }, { "duration": 0.4739583333333286, "durationTicks": 455, "midi": 62, "name": "D4", "ticks": 76800, "time": 80, "velocity": 0.6299212598425197 }, { "duration": 0.4739583333333286, "durationTicks": 455, "midi": 57, "name": "A3", "ticks": 77280, "time": 80.5, "velocity": 0.6299212598425197 }, { "duration": 0.4739583333333286, "durationTicks": 455, "midi": 62, "name": "D4", "ticks": 77280, "time": 80.5, "velocity": 0.6299212598425197 }, { "duration": 0.4739583333333286, "durationTicks": 455, "midi": 58, "name": "A#3", "ticks": 78240, "time": 81.5, "velocity": 0.6299212598425197 }, { "duration": 0.4739583333333286, "durationTicks": 455, "midi": 62, "name": "D4", "ticks": 78240, "time": 81.5, "velocity": 0.6299212598425197 }, { "duration": 0.4739583333333286, "durationTicks": 455, "midi": 59, "name": "B3", "ticks": 79200, "time": 82.5, "velocity": 0.6299212598425197 }, { "duration": 0.4739583333333286, "durationTicks": 455, "midi": 62, "name": "D4", "ticks": 79200, "time": 82.5, "velocity": 0.6299212598425197 }, { "duration": 0.4739583333333286, "durationTicks": 455, "midi": 60, "name": "C4", "ticks": 80160, "time": 83.5, "velocity": 0.6299212598425197 }, { "duration": 0.4739583333333286, "durationTicks": 455, "midi": 62, "name": "D4", "ticks": 80160, "time": 83.5, "velocity": 0.6299212598425197 }, { "duration": 0.4739583333333286, "durationTicks": 455, "midi": 59, "name": "B3", "ticks": 81120, "time": 84.5, "velocity": 0.6299212598425197 }, { "duration": 0.4739583333333286, "durationTicks": 455, "midi": 62, "name": "D4", "ticks": 81120, "time": 84.5, "velocity": 0.6299212598425197 }, { "duration": 0.4739583333333286, "durationTicks": 455, "midi": 58, "name": "A#3", "ticks": 82080, "time": 85.5, "velocity": 0.6299212598425197 }, { "duration": 0.4739583333333286, "durationTicks": 455, "midi": 62, "name": "D4", "ticks": 82080, "time": 85.5, "velocity": 0.6299212598425197 }, { "duration": 0.4739583333333286, "durationTicks": 455, "midi": 64, "name": "E4", "ticks": 83040, "time": 86.5, "velocity": 0.6299212598425197 }, { "duration": 0.4739583333333286, "durationTicks": 455, "midi": 67, "name": "G4", "ticks": 83040, "time": 86.5, "velocity": 0.6299212598425197 }, { "duration": 0.4739583333333286, "durationTicks": 455, "midi": 65, "name": "F4", "ticks": 83520, "time": 87, "velocity": 0.6299212598425197 }, { "duration": 0.4739583333333286, "durationTicks": 455, "midi": 69, "name": "A4", "ticks": 83520, "time": 87, "velocity": 0.6299212598425197 }, { "duration": 0.11770833333333997, "durationTicks": 113, "midi": 65, "name": "F4", "ticks": 84000, "time": 87.5, "velocity": 0.6299212598425197 }, { "duration": 0.11770833333333997, "durationTicks": 113, "midi": 64, "name": "E4", "ticks": 84120, "time": 87.625, "velocity": 0.6299212598425197 }, { "duration": 0.11770833333333997, "durationTicks": 113, "midi": 62, "name": "D4", "ticks": 84240, "time": 87.75, "velocity": 0.6299212598425197 }, { "duration": 0.11770833333333997, "durationTicks": 113, "midi": 60, "name": "C4", "ticks": 84360, "time": 87.875, "velocity": 0.6299212598425197 }, { "duration": 0.4739583333333286, "durationTicks": 455, "midi": 59, "name": "B3", "ticks": 84480, "time": 88, "velocity": 0.6299212598425197 }, { "duration": 0.9489583333333371, "durationTicks": 911, "midi": 68, "name": "G#4", "ticks": 84960, "time": 88.5, "velocity": 0.6299212598425197 }, { "duration": 0.4739583333333286, "durationTicks": 455, "midi": 61, "name": "C#4", "ticks": 85920, "time": 89.5, "velocity": 0.6299212598425197 }, { "duration": 0.4739583333333286, "durationTicks": 455, "midi": 67, "name": "G4", "ticks": 85920, "time": 89.5, "velocity": 0.6299212598425197 }, { "duration": 0.4739583333333286, "durationTicks": 455, "midi": 69, "name": "A4", "ticks": 85920, "time": 89.5, "velocity": 0.6299212598425197 }, { "duration": 0.9489583333333371, "durationTicks": 911, "midi": 66, "name": "F#4", "ticks": 86880, "time": 90.5, "velocity": 0.6299212598425197 }, { "duration": 0.4739583333333286, "durationTicks": 455, "midi": 59, "name": "B3", "ticks": 87840, "time": 91.5, "velocity": 0.6299212598425197 }, { "duration": 0.4739583333333286, "durationTicks": 455, "midi": 65, "name": "F4", "ticks": 87840, "time": 91.5, "velocity": 0.6299212598425197 }, { "duration": 0.4739583333333286, "durationTicks": 455, "midi": 67, "name": "G4", "ticks": 87840, "time": 91.5, "velocity": 0.6299212598425197 }, { "duration": 0.9489583333333371, "durationTicks": 911, "midi": 64, "name": "E4", "ticks": 88800, "time": 92.5, "velocity": 0.6299212598425197 }, { "duration": 0.4739583333333286, "durationTicks": 455, "midi": 57, "name": "A3", "ticks": 89760, "time": 93.5, "velocity": 0.6299212598425197 }, { "duration": 0.4739583333333286, "durationTicks": 455, "midi": 65, "name": "F4", "ticks": 89760, "time": 93.5, "velocity": 0.6299212598425197 }, { "duration": 0.4989583333333343, "durationTicks": 479, "midi": 61, "name": "C#4", "ticks": 90720, "time": 94.5, "velocity": 0.6299212598425197 }, { "duration": 0.4322916666666714, "durationTicks": 415, "midi": 64, "name": "E4", "ticks": 90783, "time": 94.565625, "velocity": 0.6299212598425197 }, { "duration": 0.4739583333333286, "durationTicks": 455, "midi": 57, "name": "A3", "ticks": 91200, "time": 95, "velocity": 0.6299212598425197 }, { "duration": 0.4739583333333286, "durationTicks": 455, "midi": 62, "name": "D4", "ticks": 91200, "time": 95, "velocity": 0.6299212598425197 } ] }, { "channel": 2, "controlChanges": { "7": [ { "number": 7, "ticks": 0, "time": 0, "value": 0.7874015748031497 } ], "10": [ { "number": 10, "ticks": 0, "time": 0, "value": 0.5039370078740157 } ], "91": [ { "number": 91, "ticks": 0, "time": 0, "value": 0 } ], "93": [ { "number": 93, "ticks": 0, "time": 0, "value": 0 } ], "121": [ { "number": 121, "ticks": 0, "time": 0, "value": 0 } ] }, "pitchBends": [], "instrument": { "family": "piano", "name": "acoustic grand piano", "number": 0 }, "name": "Piano\u0000", "notes": [ { "duration": 0.23645833333333321, "durationTicks": 227, "midi": 81, "name": "A5", "ticks": 8160, "time": 8.5, "velocity": 0.6299212598425197 }, { "duration": 0.4739583333333339, "durationTicks": 455, "midi": 81, "name": "A5", "ticks": 8640, "time": 9, "velocity": 0.6299212598425197 }, { "duration": 0.4739583333333339, "durationTicks": 455, "midi": 79, "name": "G5", "ticks": 9120, "time": 9.5, "velocity": 0.6299212598425197 }, { "duration": 0.4739583333333339, "durationTicks": 455, "midi": 76, "name": "E5", "ticks": 9600, "time": 10, "velocity": 0.6299212598425197 }, { "duration": 0.4739583333333339, "durationTicks": 455, "midi": 77, "name": "F5", "ticks": 10080, "time": 10.5, "velocity": 0.6299212598425197 }, { "duration": 0.23645833333333321, "durationTicks": 227, "midi": 75, "name": "D#5", "ticks": 10560, "time": 11, "velocity": 0.6299212598425197 }, { "duration": 0.23645833333333321, "durationTicks": 227, "midi": 78, "name": "F#5", "ticks": 10560, "time": 11, "velocity": 0.6299212598425197 }, { "duration": 0.23645833333333321, "durationTicks": 227, "midi": 75, "name": "D#5", "ticks": 10800, "time": 11.25, "velocity": 0.6299212598425197 }, { "duration": 0.23645833333333321, "durationTicks": 227, "midi": 78, "name": "F#5", "ticks": 10800, "time": 11.25, "velocity": 0.6299212598425197 }, { "duration": 0.4739583333333339, "durationTicks": 455, "midi": 75, "name": "D#5", "ticks": 11040, "time": 11.5, "velocity": 0.6299212598425197 }, { "duration": 0.4739583333333339, "durationTicks": 455, "midi": 78, "name": "F#5", "ticks": 11040, "time": 11.5, "velocity": 0.6299212598425197 }, { "duration": 0.23645833333333321, "durationTicks": 227, "midi": 74, "name": "D5", "ticks": 11520, "time": 12, "velocity": 0.6299212598425197 }, { "duration": 0.23645833333333321, "durationTicks": 227, "midi": 77, "name": "F5", "ticks": 11520, "time": 12, "velocity": 0.6299212598425197 }, { "duration": 0.23645833333333321, "durationTicks": 227, "midi": 74, "name": "D5", "ticks": 11760, "time": 12.25, "velocity": 0.6299212598425197 }, { "duration": 0.23645833333333321, "durationTicks": 227, "midi": 77, "name": "F5", "ticks": 11760, "time": 12.25, "velocity": 0.6299212598425197 }, { "duration": 0.4739583333333339, "durationTicks": 455, "midi": 74, "name": "D5", "ticks": 12000, "time": 12.5, "velocity": 0.6299212598425197 }, { "duration": 0.4739583333333339, "durationTicks": 455, "midi": 77, "name": "F5", "ticks": 12000, "time": 12.5, "velocity": 0.6299212598425197 }, { "duration": 0.23645833333333321, "durationTicks": 227, "midi": 73, "name": "C#5", "ticks": 12480, "time": 13, "velocity": 0.6299212598425197 }, { "duration": 0.23645833333333321, "durationTicks": 227, "midi": 76, "name": "E5", "ticks": 12480, "time": 13, "velocity": 0.6299212598425197 }, { "duration": 0.23645833333333321, "durationTicks": 227, "midi": 73, "name": "C#5", "ticks": 12720, "time": 13.25, "velocity": 0.6299212598425197 }, { "duration": 0.23645833333333321, "durationTicks": 227, "midi": 76, "name": "E5", "ticks": 12720, "time": 13.25, "velocity": 0.6299212598425197 }, { "duration": 0.4739583333333339, "durationTicks": 455, "midi": 73, "name": "C#5", "ticks": 12960, "time": 13.5, "velocity": 0.6299212598425197 }, { "duration": 0.4739583333333339, "durationTicks": 455, "midi": 76, "name": "E5", "ticks": 12960, "time": 13.5, "velocity": 0.6299212598425197 }, { "duration": 0.23645833333333321, "durationTicks": 227, "midi": 77, "name": "F5", "ticks": 13440, "time": 14, "velocity": 0.6299212598425197 }, { "duration": 0.23645833333333321, "durationTicks": 227, "midi": 79, "name": "G5", "ticks": 13920, "time": 14.5, "velocity": 0.6299212598425197 }, { "duration": 0.4739583333333339, "durationTicks": 455, "midi": 67, "name": "G4", "ticks": 13920, "time": 14.5, "velocity": 0.6299212598425197 }, { "duration": 0.4739583333333339, "durationTicks": 455, "midi": 77, "name": "F5", "ticks": 14400, "time": 15, "velocity": 0.6299212598425197 }, { "duration": 0.4739583333333339, "durationTicks": 455, "midi": 65, "name": "F4", "ticks": 14400, "time": 15, "velocity": 0.6299212598425197 }, { "duration": 0.236458333333335, "durationTicks": 227, "midi": 62, "name": "D4", "ticks": 15840, "time": 16.5, "velocity": 0.6299212598425197 }, { "duration": 0.236458333333335, "durationTicks": 227, "midi": 70, "name": "A#4", "ticks": 15840, "time": 16.5, "velocity": 0.6299212598425197 }, { "duration": 0.236458333333335, "durationTicks": 227, "midi": 74, "name": "D5", "ticks": 16080, "time": 16.75, "velocity": 0.6299212598425197 }, { "duration": 0.47395833333333215, "durationTicks": 455, "midi": 70, "name": "A#4", "ticks": 16320, "time": 17, "velocity": 0.6299212598425197 }, { "duration": 0.47395833333333215, "durationTicks": 455, "midi": 61, "name": "C#4", "ticks": 16800, "time": 17.5, "velocity": 0.6299212598425197 }, { "duration": 0.47395833333333215, "durationTicks": 455, "midi": 70, "name": "A#4", "ticks": 16800, "time": 17.5, "velocity": 0.6299212598425197 }, { "duration": 0.47395833333333215, "durationTicks": 455, "midi": 73, "name": "C#5", "ticks": 17280, "time": 18, "velocity": 0.6299212598425197 }, { "duration": 0.47395833333333215, "durationTicks": 455, "midi": 76, "name": "E5", "ticks": 17280, "time": 18, "velocity": 0.6299212598425197 }, { "duration": 0.47395833333333215, "durationTicks": 455, "midi": 62, "name": "D4", "ticks": 17760, "time": 18.5, "velocity": 0.6299212598425197 }, { "duration": 0.47395833333333215, "durationTicks": 455, "midi": 74, "name": "D5", "ticks": 17760, "time": 18.5, "velocity": 0.6299212598425197 }, { "duration": 0.47395833333333215, "durationTicks": 455, "midi": 77, "name": "F5", "ticks": 17760, "time": 18.5, "velocity": 0.6299212598425197 }, { "duration": 0.236458333333335, "durationTicks": 227, "midi": 80, "name": "G#5", "ticks": 18240, "time": 19, "velocity": 0.6299212598425197 }, { "duration": 0.236458333333335, "durationTicks": 227, "midi": 80, "name": "G#5", "ticks": 18480, "time": 19.25, "velocity": 0.6299212598425197 }, { "duration": 0.47395833333333215, "durationTicks": 455, "midi": 67, "name": "G4", "ticks": 18720, "time": 19.5, "velocity": 0.6299212598425197 }, { "duration": 0.47395833333333215, "durationTicks": 455, "midi": 80, "name": "G#5", "ticks": 18720, "time": 19.5, "velocity": 0.6299212598425197 }, { "duration": 0.236458333333335, "durationTicks": 227, "midi": 81, "name": "A5", "ticks": 19200, "time": 20, "velocity": 0.6299212598425197 }, { "duration": 0.236458333333335, "durationTicks": 227, "midi": 84, "name": "C6", "ticks": 19200, "time": 20, "velocity": 0.6299212598425197 }, { "duration": 0.236458333333335, "durationTicks": 227, "midi": 81, "name": "A5", "ticks": 19440, "time": 20.25, "velocity": 0.6299212598425197 }, { "duration": 0.236458333333335, "durationTicks": 227, "midi": 84, "name": "C6", "ticks": 19440, "time": 20.25, "velocity": 0.6299212598425197 }, { "duration": 0.47395833333333215, "durationTicks": 455, "midi": 81, "name": "A5", "ticks": 19680, "time": 20.5, "velocity": 0.6299212598425197 }, { "duration": 0.47395833333333215, "durationTicks": 455, "midi": 84, "name": "C6", "ticks": 19680, "time": 20.5, "velocity": 0.6299212598425197 }, { "duration": 0.236458333333335, "durationTicks": 227, "midi": 80, "name": "G#5", "ticks": 20160, "time": 21, "velocity": 0.6299212598425197 }, { "duration": 0.236458333333335, "durationTicks": 227, "midi": 83, "name": "B5", "ticks": 20160, "time": 21, "velocity": 0.6299212598425197 }, { "duration": 0.236458333333335, "durationTicks": 227, "midi": 80, "name": "G#5", "ticks": 20400, "time": 21.25, "velocity": 0.6299212598425197 }, { "duration": 0.236458333333335, "durationTicks": 227, "midi": 83, "name": "B5", "ticks": 20400, "time": 21.25, "velocity": 0.6299212598425197 }, { "duration": 0.47395833333333215, "durationTicks": 455, "midi": 80, "name": "G#5", "ticks": 20640, "time": 21.5, "velocity": 0.6299212598425197 }, { "duration": 0.47395833333333215, "durationTicks": 455, "midi": 83, "name": "B5", "ticks": 20640, "time": 21.5, "velocity": 0.6299212598425197 }, { "duration": 0.236458333333335, "durationTicks": 227, "midi": 81, "name": "A5", "ticks": 21120, "time": 22, "velocity": 0.6299212598425197 }, { "duration": 0.236458333333335, "durationTicks": 227, "midi": 80, "name": "G#5", "ticks": 21600, "time": 22.5, "velocity": 0.6299212598425197 }, { "duration": 0.47395833333333215, "durationTicks": 455, "midi": 81, "name": "A5", "ticks": 22080, "time": 23, "velocity": 0.6299212598425197 }, { "duration": 0.11770833333333286, "durationTicks": 113, "midi": 69, "name": "A4", "ticks": 22560, "time": 23.5, "velocity": 0.6299212598425197 }, { "duration": 0.11770833333333286, "durationTicks": 113, "midi": 67, "name": "G4", "ticks": 22680, "time": 23.625, "velocity": 0.6299212598425197 }, { "duration": 0.11770833333333286, "durationTicks": 113, "midi": 65, "name": "F4", "ticks": 22800, "time": 23.75, "velocity": 0.6299212598425197 }, { "duration": 0.11770833333333286, "durationTicks": 113, "midi": 64, "name": "E4", "ticks": 22920, "time": 23.875, "velocity": 0.6299212598425197 }, { "duration": 0.236458333333335, "durationTicks": 227, "midi": 81, "name": "A5", "ticks": 23520, "time": 24.5, "velocity": 0.6299212598425197 }, { "duration": 0.47395833333333215, "durationTicks": 455, "midi": 81, "name": "A5", "ticks": 24000, "time": 25, "velocity": 0.6299212598425197 }, { "duration": 0.47395833333333215, "durationTicks": 455, "midi": 79, "name": "G5", "ticks": 24480, "time": 25.5, "velocity": 0.6299212598425197 }, { "duration": 0.47395833333333215, "durationTicks": 455, "midi": 76, "name": "E5", "ticks": 24960, "time": 26, "velocity": 0.6299212598425197 }, { "duration": 0.47395833333333215, "durationTicks": 455, "midi": 77, "name": "F5", "ticks": 25440, "time": 26.5, "velocity": 0.6299212598425197 }, { "duration": 0.236458333333335, "durationTicks": 227, "midi": 75, "name": "D#5", "ticks": 25920, "time": 27, "velocity": 0.6299212598425197 }, { "duration": 0.236458333333335, "durationTicks": 227, "midi": 78, "name": "F#5", "ticks": 25920, "time": 27, "velocity": 0.6299212598425197 }, { "duration": 0.236458333333335, "durationTicks": 227, "midi": 75, "name": "D#5", "ticks": 26160, "time": 27.25, "velocity": 0.6299212598425197 }, { "duration": 0.236458333333335, "durationTicks": 227, "midi": 78, "name": "F#5", "ticks": 26160, "time": 27.25, "velocity": 0.6299212598425197 }, { "duration": 0.47395833333333215, "durationTicks": 455, "midi": 75, "name": "D#5", "ticks": 26400, "time": 27.5, "velocity": 0.6299212598425197 }, { "duration": 0.47395833333333215, "durationTicks": 455, "midi": 78, "name": "F#5", "ticks": 26400, "time": 27.5, "velocity": 0.6299212598425197 }, { "duration": 0.236458333333335, "durationTicks": 227, "midi": 74, "name": "D5", "ticks": 26880, "time": 28, "velocity": 0.6299212598425197 }, { "duration": 0.236458333333335, "durationTicks": 227, "midi": 77, "name": "F5", "ticks": 26880, "time": 28, "velocity": 0.6299212598425197 }, { "duration": 0.236458333333335, "durationTicks": 227, "midi": 74, "name": "D5", "ticks": 27120, "time": 28.25, "velocity": 0.6299212598425197 }, { "duration": 0.236458333333335, "durationTicks": 227, "midi": 77, "name": "F5", "ticks": 27120, "time": 28.25, "velocity": 0.6299212598425197 }, { "duration": 0.47395833333333215, "durationTicks": 455, "midi": 74, "name": "D5", "ticks": 27360, "time": 28.5, "velocity": 0.6299212598425197 }, { "duration": 0.47395833333333215, "durationTicks": 455, "midi": 77, "name": "F5", "ticks": 27360, "time": 28.5, "velocity": 0.6299212598425197 }, { "duration": 0.236458333333335, "durationTicks": 227, "midi": 73, "name": "C#5", "ticks": 27840, "time": 29, "velocity": 0.6299212598425197 }, { "duration": 0.236458333333335, "durationTicks": 227, "midi": 76, "name": "E5", "ticks": 27840, "time": 29, "velocity": 0.6299212598425197 }, { "duration": 0.236458333333335, "durationTicks": 227, "midi": 73, "name": "C#5", "ticks": 28080, "time": 29.25, "velocity": 0.6299212598425197 }, { "duration": 0.236458333333335, "durationTicks": 227, "midi": 76, "name": "E5", "ticks": 28080, "time": 29.25, "velocity": 0.6299212598425197 }, { "duration": 0.47395833333333215, "durationTicks": 455, "midi": 73, "name": "C#5", "ticks": 28320, "time": 29.5, "velocity": 0.6299212598425197 }, { "duration": 0.47395833333333215, "durationTicks": 455, "midi": 76, "name": "E5", "ticks": 28320, "time": 29.5, "velocity": 0.6299212598425197 }, { "duration": 0.236458333333335, "durationTicks": 227, "midi": 77, "name": "F5", "ticks": 28800, "time": 30, "velocity": 0.6299212598425197 }, { "duration": 0.236458333333335, "durationTicks": 227, "midi": 79, "name": "G5", "ticks": 29280, "time": 30.5, "velocity": 0.6299212598425197 }, { "duration": 0.47395833333333215, "durationTicks": 455, "midi": 77, "name": "F5", "ticks": 29760, "time": 31, "velocity": 0.6299212598425197 }, { "duration": 0.23645833333333144, "durationTicks": 227, "midi": 74, "name": "D5", "ticks": 31200, "time": 32.5, "velocity": 0.6299212598425197 }, { "duration": 0.23645833333333144, "durationTicks": 227, "midi": 71, "name": "B4", "ticks": 31440, "time": 32.75, "velocity": 0.6299212598425197 }, { "duration": 0.4739583333333357, "durationTicks": 455, "midi": 74, "name": "D5", "ticks": 31680, "time": 33, "velocity": 0.6299212598425197 }, { "duration": 0.4739583333333357, "durationTicks": 455, "midi": 73, "name": "C#5", "ticks": 32160, "time": 33.5, "velocity": 0.6299212598425197 }, { "duration": 0.23645833333333144, "durationTicks": 227, "midi": 72, "name": "C5", "ticks": 33120, "time": 34.5, "velocity": 0.6299212598425197 }, { "duration": 0.23645833333333144, "durationTicks": 227, "midi": 69, "name": "A4", "ticks": 33360, "time": 34.75, "velocity": 0.6299212598425197 }, { "duration": 0.4739583333333357, "durationTicks": 455, "midi": 72, "name": "C5", "ticks": 33600, "time": 35, "velocity": 0.6299212598425197 }, { "duration": 0.4739583333333357, "durationTicks": 455, "midi": 71, "name": "B4", "ticks": 34080, "time": 35.5, "velocity": 0.6299212598425197 }, { "duration": 0.23645833333333144, "durationTicks": 227, "midi": 70, "name": "A#4", "ticks": 35040, "time": 36.5, "velocity": 0.6299212598425197 }, { "duration": 0.23645833333333144, "durationTicks": 227, "midi": 67, "name": "G4", "ticks": 35280, "time": 36.75, "velocity": 0.6299212598425197 }, { "duration": 0.4739583333333357, "durationTicks": 455, "midi": 70, "name": "A#4", "ticks": 35520, "time": 37, "velocity": 0.6299212598425197 }, { "duration": 0.4739583333333357, "durationTicks": 455, "midi": 69, "name": "A4", "ticks": 36000, "time": 37.5, "velocity": 0.6299212598425197 }, { "duration": 0.4989583333333343, "durationTicks": 479, "midi": 69, "name": "A4", "ticks": 36960, "time": 38.5, "velocity": 0.6299212598425197 }, { "duration": 0.4322916666666714, "durationTicks": 415, "midi": 73, "name": "C#5", "ticks": 37023, "time": 38.565625, "velocity": 0.6299212598425197 }, { "duration": 0.3656250000000014, "durationTicks": 351, "midi": 76, "name": "E5", "ticks": 37087, "time": 38.63229166666667, "velocity": 0.6299212598425197 }, { "duration": 0.29895833333333144, "durationTicks": 287, "midi": 81, "name": "A5", "ticks": 37152, "time": 38.7, "velocity": 0.6299212598425197 }, { "duration": 0.4739583333333357, "durationTicks": 455, "midi": 74, "name": "D5", "ticks": 37440, "time": 39, "velocity": 0.6299212598425197 }, { "duration": 0.4739583333333357, "durationTicks": 455, "midi": 77, "name": "F5", "ticks": 37440, "time": 39, "velocity": 0.6299212598425197 }, { "duration": 0.4739583333333357, "durationTicks": 455, "midi": 81, "name": "A5", "ticks": 37440, "time": 39, "velocity": 0.6299212598425197 }, { "duration": 0.23645833333333144, "durationTicks": 227, "midi": 71, "name": "B4", "ticks": 38640, "time": 40.25, "velocity": 0.6299212598425197 }, { "duration": 0.23645833333333144, "durationTicks": 227, "midi": 73, "name": "C#5", "ticks": 39120, "time": 40.75, "velocity": 0.6299212598425197 }, { "duration": 0.23645833333333144, "durationTicks": 227, "midi": 74, "name": "D5", "ticks": 39600, "time": 41.25, "velocity": 0.6299212598425197 }, { "duration": 0.23645833333333144, "durationTicks": 227, "midi": 76, "name": "E5", "ticks": 40080, "time": 41.75, "velocity": 0.6299212598425197 }, { "duration": 0.23645833333333144, "durationTicks": 227, "midi": 74, "name": "D5", "ticks": 40560, "time": 42.25, "velocity": 0.6299212598425197 }, { "duration": 0.23645833333333144, "durationTicks": 227, "midi": 77, "name": "F5", "ticks": 40560, "time": 42.25, "velocity": 0.6299212598425197 }, { "duration": 0.23645833333333144, "durationTicks": 227, "midi": 71, "name": "B4", "ticks": 41040, "time": 42.75, "velocity": 0.6299212598425197 }, { "duration": 0.23645833333333144, "durationTicks": 227, "midi": 74, "name": "D5", "ticks": 41040, "time": 42.75, "velocity": 0.6299212598425197 }, { "duration": 0.4739583333333357, "durationTicks": 455, "midi": 69, "name": "A4", "ticks": 41280, "time": 43, "velocity": 0.6299212598425197 }, { "duration": 0.4739583333333357, "durationTicks": 455, "midi": 73, "name": "C#5", "ticks": 41280, "time": 43, "velocity": 0.6299212598425197 }, { "duration": 0.23645833333333144, "durationTicks": 227, "midi": 71, "name": "B4", "ticks": 46320, "time": 48.25, "velocity": 0.6299212598425197 }, { "duration": 0.23645833333333144, "durationTicks": 227, "midi": 73, "name": "C#5", "ticks": 46800, "time": 48.75, "velocity": 0.6299212598425197 }, { "duration": 0.23645833333333144, "durationTicks": 227, "midi": 74, "name": "D5", "ticks": 47280, "time": 49.25, "velocity": 0.6299212598425197 }, { "duration": 0.23645833333333144, "durationTicks": 227, "midi": 76, "name": "E5", "ticks": 47760, "time": 49.75, "velocity": 0.6299212598425197 }, { "duration": 0.23645833333333144, "durationTicks": 227, "midi": 74, "name": "D5", "ticks": 48240, "time": 50.25, "velocity": 0.6299212598425197 }, { "duration": 0.23645833333333144, "durationTicks": 227, "midi": 77, "name": "F5", "ticks": 48240, "time": 50.25, "velocity": 0.6299212598425197 }, { "duration": 0.23645833333333144, "durationTicks": 227, "midi": 71, "name": "B4", "ticks": 48720, "time": 50.75, "velocity": 0.6299212598425197 }, { "duration": 0.23645833333333144, "durationTicks": 227, "midi": 74, "name": "D5", "ticks": 48720, "time": 50.75, "velocity": 0.6299212598425197 }, { "duration": 0.4739583333333357, "durationTicks": 455, "midi": 69, "name": "A4", "ticks": 48960, "time": 51, "velocity": 0.6299212598425197 }, { "duration": 0.4739583333333357, "durationTicks": 455, "midi": 73, "name": "C#5", "ticks": 48960, "time": 51, "velocity": 0.6299212598425197 }, { "duration": 0.23645833333333144, "durationTicks": 227, "midi": 71, "name": "B4", "ticks": 54000, "time": 56.25, "velocity": 0.6299212598425197 }, { "duration": 0.23645833333333144, "durationTicks": 227, "midi": 74, "name": "D5", "ticks": 54000, "time": 56.25, "velocity": 0.6299212598425197 }, { "duration": 0.23645833333333144, "durationTicks": 227, "midi": 73, "name": "C#5", "ticks": 54480, "time": 56.75, "velocity": 0.6299212598425197 }, { "duration": 0.23645833333333144, "durationTicks": 227, "midi": 76, "name": "E5", "ticks": 54480, "time": 56.75, "velocity": 0.6299212598425197 }, { "duration": 0.23645833333333144, "durationTicks": 227, "midi": 74, "name": "D5", "ticks": 54960, "time": 57.25, "velocity": 0.6299212598425197 }, { "duration": 0.23645833333333144, "durationTicks": 227, "midi": 77, "name": "F5", "ticks": 54960, "time": 57.25, "velocity": 0.6299212598425197 }, { "duration": 0.23645833333333144, "durationTicks": 227, "midi": 73, "name": "C#5", "ticks": 55920, "time": 58.25, "velocity": 0.6299212598425197 }, { "duration": 0.23645833333333144, "durationTicks": 227, "midi": 76, "name": "E5", "ticks": 55920, "time": 58.25, "velocity": 0.6299212598425197 }, { "duration": 0.23645833333333144, "durationTicks": 227, "midi": 74, "name": "D5", "ticks": 56400, "time": 58.75, "velocity": 0.6299212598425197 }, { "duration": 0.23645833333333144, "durationTicks": 227, "midi": 77, "name": "F5", "ticks": 56400, "time": 58.75, "velocity": 0.6299212598425197 }, { "duration": 0.23645833333333144, "durationTicks": 227, "midi": 76, "name": "E5", "ticks": 56880, "time": 59.25, "velocity": 0.6299212598425197 }, { "duration": 0.23645833333333144, "durationTicks": 227, "midi": 79, "name": "G5", "ticks": 56880, "time": 59.25, "velocity": 0.6299212598425197 }, { "duration": 0.23645833333333144, "durationTicks": 227, "midi": 74, "name": "D5", "ticks": 57840, "time": 60.25, "velocity": 0.6299212598425197 }, { "duration": 0.23645833333333144, "durationTicks": 227, "midi": 77, "name": "F5", "ticks": 57840, "time": 60.25, "velocity": 0.6299212598425197 }, { "duration": 0.23645833333333144, "durationTicks": 227, "midi": 76, "name": "E5", "ticks": 58320, "time": 60.75, "velocity": 0.6299212598425197 }, { "duration": 0.23645833333333144, "durationTicks": 227, "midi": 79, "name": "G5", "ticks": 58320, "time": 60.75, "velocity": 0.6299212598425197 }, { "duration": 0.23645833333333144, "durationTicks": 227, "midi": 77, "name": "F5", "ticks": 58800, "time": 61.25, "velocity": 0.6299212598425197 }, { "duration": 0.23645833333333144, "durationTicks": 227, "midi": 81, "name": "A5", "ticks": 58800, "time": 61.25, "velocity": 0.6299212598425197 }, { "duration": 0.23645833333333144, "durationTicks": 227, "midi": 77, "name": "F5", "ticks": 59280, "time": 61.75, "velocity": 0.6299212598425197 }, { "duration": 0.23645833333333144, "durationTicks": 227, "midi": 81, "name": "A5", "ticks": 59280, "time": 61.75, "velocity": 0.6299212598425197 }, { "duration": 0.23645833333333144, "durationTicks": 227, "midi": 79, "name": "G5", "ticks": 59760, "time": 62.25, "velocity": 0.6299212598425197 }, { "duration": 0.23645833333333144, "durationTicks": 227, "midi": 82, "name": "A#5", "ticks": 59760, "time": 62.25, "velocity": 0.6299212598425197 }, { "duration": 0.23645833333333144, "durationTicks": 227, "midi": 79, "name": "G5", "ticks": 60240, "time": 62.75, "velocity": 0.6299212598425197 }, { "duration": 0.23645833333333144, "durationTicks": 227, "midi": 82, "name": "A#5", "ticks": 60240, "time": 62.75, "velocity": 0.6299212598425197 }, { "duration": 0.4739583333333357, "durationTicks": 455, "midi": 81, "name": "A5", "ticks": 60480, "time": 63, "velocity": 0.6299212598425197 }, { "duration": 0.4739583333333357, "durationTicks": 455, "midi": 85, "name": "C#6", "ticks": 60480, "time": 63, "velocity": 0.6299212598425197 }, { "duration": 0.23645833333333144, "durationTicks": 227, "midi": 81, "name": "A5", "ticks": 61440, "time": 64, "velocity": 0.6299212598425197 }, { "duration": 0.4739583333333286, "durationTicks": 455, "midi": 81, "name": "A5", "ticks": 61920, "time": 64.5, "velocity": 0.6299212598425197 }, { "duration": 0.4739583333333286, "durationTicks": 455, "midi": 79, "name": "G5", "ticks": 62400, "time": 65, "velocity": 0.6299212598425197 }, { "duration": 0.4739583333333286, "durationTicks": 455, "midi": 76, "name": "E5", "ticks": 62880, "time": 65.5, "velocity": 0.6299212598425197 }, { "duration": 0.4739583333333286, "durationTicks": 455, "midi": 77, "name": "F5", "ticks": 63360, "time": 66, "velocity": 0.6299212598425197 }, { "duration": 0.23645833333333144, "durationTicks": 227, "midi": 75, "name": "D#5", "ticks": 63840, "time": 66.5, "velocity": 0.6299212598425197 }, { "duration": 0.23645833333333144, "durationTicks": 227, "midi": 78, "name": "F#5", "ticks": 63840, "time": 66.5, "velocity": 0.6299212598425197 }, { "duration": 0.23645833333333144, "durationTicks": 227, "midi": 75, "name": "D#5", "ticks": 64080, "time": 66.75, "velocity": 0.6299212598425197 }, { "duration": 0.23645833333333144, "durationTicks": 227, "midi": 78, "name": "F#5", "ticks": 64080, "time": 66.75, "velocity": 0.6299212598425197 }, { "duration": 0.4739583333333286, "durationTicks": 455, "midi": 75, "name": "D#5", "ticks": 64320, "time": 67, "velocity": 0.6299212598425197 }, { "duration": 0.4739583333333286, "durationTicks": 455, "midi": 78, "name": "F#5", "ticks": 64320, "time": 67, "velocity": 0.6299212598425197 }, { "duration": 0.23645833333333144, "durationTicks": 227, "midi": 74, "name": "D5", "ticks": 64800, "time": 67.5, "velocity": 0.6299212598425197 }, { "duration": 0.23645833333333144, "durationTicks": 227, "midi": 77, "name": "F5", "ticks": 64800, "time": 67.5, "velocity": 0.6299212598425197 }, { "duration": 0.23645833333333144, "durationTicks": 227, "midi": 74, "name": "D5", "ticks": 65040, "time": 67.75, "velocity": 0.6299212598425197 }, { "duration": 0.23645833333333144, "durationTicks": 227, "midi": 77, "name": "F5", "ticks": 65040, "time": 67.75, "velocity": 0.6299212598425197 }, { "duration": 0.4739583333333286, "durationTicks": 455, "midi": 74, "name": "D5", "ticks": 65280, "time": 68, "velocity": 0.6299212598425197 }, { "duration": 0.4739583333333286, "durationTicks": 455, "midi": 77, "name": "F5", "ticks": 65280, "time": 68, "velocity": 0.6299212598425197 }, { "duration": 0.23645833333333144, "durationTicks": 227, "midi": 73, "name": "C#5", "ticks": 65760, "time": 68.5, "velocity": 0.6299212598425197 }, { "duration": 0.23645833333333144, "durationTicks": 227, "midi": 76, "name": "E5", "ticks": 65760, "time": 68.5, "velocity": 0.6299212598425197 }, { "duration": 0.23645833333333144, "durationTicks": 227, "midi": 73, "name": "C#5", "ticks": 66000, "time": 68.75, "velocity": 0.6299212598425197 }, { "duration": 0.23645833333333144, "durationTicks": 227, "midi": 76, "name": "E5", "ticks": 66000, "time": 68.75, "velocity": 0.6299212598425197 }, { "duration": 0.4739583333333286, "durationTicks": 455, "midi": 73, "name": "C#5", "ticks": 66240, "time": 69, "velocity": 0.6299212598425197 }, { "duration": 0.4739583333333286, "durationTicks": 455, "midi": 76, "name": "E5", "ticks": 66240, "time": 69, "velocity": 0.6299212598425197 }, { "duration": 0.23645833333333144, "durationTicks": 227, "midi": 77, "name": "F5", "ticks": 67200, "time": 70, "velocity": 0.6299212598425197 }, { "duration": 0.23645833333333144, "durationTicks": 227, "midi": 67, "name": "G4", "ticks": 67680, "time": 70.5, "velocity": 0.6299212598425197 }, { "duration": 0.23645833333333144, "durationTicks": 227, "midi": 79, "name": "G5", "ticks": 67680, "time": 70.5, "velocity": 0.6299212598425197 }, { "duration": 0.4739583333333286, "durationTicks": 455, "midi": 65, "name": "F4", "ticks": 68160, "time": 71, "velocity": 0.6299212598425197 }, { "duration": 0.4739583333333286, "durationTicks": 455, "midi": 77, "name": "F5", "ticks": 68160, "time": 71, "velocity": 0.6299212598425197 }, { "duration": 0.23645833333333144, "durationTicks": 227, "midi": 70, "name": "A#4", "ticks": 69600, "time": 72.5, "velocity": 0.6299212598425197 }, { "duration": 0.23645833333333144, "durationTicks": 227, "midi": 74, "name": "D5", "ticks": 69840, "time": 72.75, "velocity": 0.6299212598425197 }, { "duration": 0.4739583333333286, "durationTicks": 455, "midi": 70, "name": "A#4", "ticks": 70080, "time": 73, "velocity": 0.6299212598425197 }, { "duration": 0.4739583333333286, "durationTicks": 455, "midi": 70, "name": "A#4", "ticks": 70560, "time": 73.5, "velocity": 0.6299212598425197 }, { "duration": 0.4739583333333286, "durationTicks": 455, "midi": 73, "name": "C#5", "ticks": 71040, "time": 74, "velocity": 0.6299212598425197 }, { "duration": 0.4739583333333286, "durationTicks": 455, "midi": 76, "name": "E5", "ticks": 71040, "time": 74, "velocity": 0.6299212598425197 }, { "duration": 0.4739583333333286, "durationTicks": 455, "midi": 74, "name": "D5", "ticks": 71520, "time": 74.5, "velocity": 0.6299212598425197 }, { "duration": 0.4739583333333286, "durationTicks": 455, "midi": 77, "name": "F5", "ticks": 71520, "time": 74.5, "velocity": 0.6299212598425197 }, { "duration": 0.23645833333333144, "durationTicks": 227, "midi": 80, "name": "G#5", "ticks": 72000, "time": 75, "velocity": 0.6299212598425197 }, { "duration": 0.23645833333333144, "durationTicks": 227, "midi": 80, "name": "G#5", "ticks": 72240, "time": 75.25, "velocity": 0.6299212598425197 }, { "duration": 0.4739583333333286, "durationTicks": 455, "midi": 80, "name": "G#5", "ticks": 72480, "time": 75.5, "velocity": 0.6299212598425197 }, { "duration": 0.23645833333333144, "durationTicks": 227, "midi": 81, "name": "A5", "ticks": 72960, "time": 76, "velocity": 0.6299212598425197 }, { "duration": 0.23645833333333144, "durationTicks": 227, "midi": 84, "name": "C6", "ticks": 72960, "time": 76, "velocity": 0.6299212598425197 }, { "duration": 0.23645833333333144, "durationTicks": 227, "midi": 81, "name": "A5", "ticks": 73200, "time": 76.25, "velocity": 0.6299212598425197 }, { "duration": 0.23645833333333144, "durationTicks": 227, "midi": 84, "name": "C6", "ticks": 73200, "time": 76.25, "velocity": 0.6299212598425197 }, { "duration": 0.4739583333333286, "durationTicks": 455, "midi": 81, "name": "A5", "ticks": 73440, "time": 76.5, "velocity": 0.6299212598425197 }, { "duration": 0.4739583333333286, "durationTicks": 455, "midi": 84, "name": "C6", "ticks": 73440, "time": 76.5, "velocity": 0.6299212598425197 }, { "duration": 0.23645833333333144, "durationTicks": 227, "midi": 80, "name": "G#5", "ticks": 73920, "time": 77, "velocity": 0.6299212598425197 }, { "duration": 0.23645833333333144, "durationTicks": 227, "midi": 83, "name": "B5", "ticks": 73920, "time": 77, "velocity": 0.6299212598425197 }, { "duration": 0.23645833333333144, "durationTicks": 227, "midi": 80, "name": "G#5", "ticks": 74160, "time": 77.25, "velocity": 0.6299212598425197 }, { "duration": 0.23645833333333144, "durationTicks": 227, "midi": 83, "name": "B5", "ticks": 74160, "time": 77.25, "velocity": 0.6299212598425197 }, { "duration": 0.4739583333333286, "durationTicks": 455, "midi": 80, "name": "G#5", "ticks": 74400, "time": 77.5, "velocity": 0.6299212598425197 }, { "duration": 0.4739583333333286, "durationTicks": 455, "midi": 83, "name": "B5", "ticks": 74400, "time": 77.5, "velocity": 0.6299212598425197 }, { "duration": 0.23645833333333144, "durationTicks": 227, "midi": 81, "name": "A5", "ticks": 74880, "time": 78, "velocity": 0.6299212598425197 }, { "duration": 0.23645833333333144, "durationTicks": 227, "midi": 80, "name": "G#5", "ticks": 75360, "time": 78.5, "velocity": 0.6299212598425197 }, { "duration": 0.4739583333333286, "durationTicks": 455, "midi": 81, "name": "A5", "ticks": 75840, "time": 79, "velocity": 0.6299212598425197 }, { "duration": 0.11770833333333997, "durationTicks": 113, "midi": 69, "name": "A4", "ticks": 76320, "time": 79.5, "velocity": 0.6299212598425197 }, { "duration": 0.11770833333333997, "durationTicks": 113, "midi": 67, "name": "G4", "ticks": 76440, "time": 79.625, "velocity": 0.6299212598425197 }, { "duration": 0.11770833333333997, "durationTicks": 113, "midi": 65, "name": "F4", "ticks": 76560, "time": 79.75, "velocity": 0.6299212598425197 }, { "duration": 0.11770833333333997, "durationTicks": 113, "midi": 64, "name": "E4", "ticks": 76680, "time": 79.875, "velocity": 0.6299212598425197 }, { "duration": 0.23645833333333144, "durationTicks": 227, "midi": 81, "name": "A5", "ticks": 77280, "time": 80.5, "velocity": 0.6299212598425197 }, { "duration": 0.4739583333333286, "durationTicks": 455, "midi": 81, "name": "A5", "ticks": 77760, "time": 81, "velocity": 0.6299212598425197 }, { "duration": 0.4739583333333286, "durationTicks": 455, "midi": 79, "name": "G5", "ticks": 78240, "time": 81.5, "velocity": 0.6299212598425197 }, { "duration": 0.4739583333333286, "durationTicks": 455, "midi": 76, "name": "E5", "ticks": 78720, "time": 82, "velocity": 0.6299212598425197 }, { "duration": 0.4739583333333286, "durationTicks": 455, "midi": 77, "name": "F5", "ticks": 79200, "time": 82.5, "velocity": 0.6299212598425197 }, { "duration": 0.23645833333333144, "durationTicks": 227, "midi": 75, "name": "D#5", "ticks": 79680, "time": 83, "velocity": 0.6299212598425197 }, { "duration": 0.23645833333333144, "durationTicks": 227, "midi": 78, "name": "F#5", "ticks": 79680, "time": 83, "velocity": 0.6299212598425197 }, { "duration": 0.23645833333333144, "durationTicks": 227, "midi": 75, "name": "D#5", "ticks": 79920, "time": 83.25, "velocity": 0.6299212598425197 }, { "duration": 0.23645833333333144, "durationTicks": 227, "midi": 78, "name": "F#5", "ticks": 79920, "time": 83.25, "velocity": 0.6299212598425197 }, { "duration": 0.4739583333333286, "durationTicks": 455, "midi": 75, "name": "D#5", "ticks": 80160, "time": 83.5, "velocity": 0.6299212598425197 }, { "duration": 0.4739583333333286, "durationTicks": 455, "midi": 78, "name": "F#5", "ticks": 80160, "time": 83.5, "velocity": 0.6299212598425197 }, { "duration": 0.23645833333333144, "durationTicks": 227, "midi": 74, "name": "D5", "ticks": 80640, "time": 84, "velocity": 0.6299212598425197 }, { "duration": 0.23645833333333144, "durationTicks": 227, "midi": 77, "name": "F5", "ticks": 80640, "time": 84, "velocity": 0.6299212598425197 }, { "duration": 0.23645833333333144, "durationTicks": 227, "midi": 74, "name": "D5", "ticks": 80880, "time": 84.25, "velocity": 0.6299212598425197 }, { "duration": 0.23645833333333144, "durationTicks": 227, "midi": 77, "name": "F5", "ticks": 80880, "time": 84.25, "velocity": 0.6299212598425197 }, { "duration": 0.4739583333333286, "durationTicks": 455, "midi": 74, "name": "D5", "ticks": 81120, "time": 84.5, "velocity": 0.6299212598425197 }, { "duration": 0.4739583333333286, "durationTicks": 455, "midi": 77, "name": "F5", "ticks": 81120, "time": 84.5, "velocity": 0.6299212598425197 }, { "duration": 0.23645833333333144, "durationTicks": 227, "midi": 73, "name": "C#5", "ticks": 81600, "time": 85, "velocity": 0.6299212598425197 }, { "duration": 0.23645833333333144, "durationTicks": 227, "midi": 76, "name": "E5", "ticks": 81600, "time": 85, "velocity": 0.6299212598425197 }, { "duration": 0.23645833333333144, "durationTicks": 227, "midi": 73, "name": "C#5", "ticks": 81840, "time": 85.25, "velocity": 0.6299212598425197 }, { "duration": 0.23645833333333144, "durationTicks": 227, "midi": 76, "name": "E5", "ticks": 81840, "time": 85.25, "velocity": 0.6299212598425197 }, { "duration": 0.4739583333333286, "durationTicks": 455, "midi": 73, "name": "C#5", "ticks": 82080, "time": 85.5, "velocity": 0.6299212598425197 }, { "duration": 0.4739583333333286, "durationTicks": 455, "midi": 76, "name": "E5", "ticks": 82080, "time": 85.5, "velocity": 0.6299212598425197 }, { "duration": 0.23645833333333144, "durationTicks": 227, "midi": 77, "name": "F5", "ticks": 82560, "time": 86, "velocity": 0.6299212598425197 }, { "duration": 0.23645833333333144, "durationTicks": 227, "midi": 79, "name": "G5", "ticks": 83040, "time": 86.5, "velocity": 0.6299212598425197 }, { "duration": 0.4739583333333286, "durationTicks": 455, "midi": 77, "name": "F5", "ticks": 83520, "time": 87, "velocity": 0.6299212598425197 }, { "duration": 0.23645833333333144, "durationTicks": 227, "midi": 74, "name": "D5", "ticks": 84960, "time": 88.5, "velocity": 0.6299212598425197 }, { "duration": 0.23645833333333144, "durationTicks": 227, "midi": 71, "name": "B4", "ticks": 85200, "time": 88.75, "velocity": 0.6299212598425197 }, { "duration": 0.4739583333333286, "durationTicks": 455, "midi": 74, "name": "D5", "ticks": 85440, "time": 89, "velocity": 0.6299212598425197 }, { "duration": 0.4739583333333286, "durationTicks": 455, "midi": 73, "name": "C#5", "ticks": 85920, "time": 89.5, "velocity": 0.6299212598425197 }, { "duration": 0.23645833333333144, "durationTicks": 227, "midi": 72, "name": "C5", "ticks": 86880, "time": 90.5, "velocity": 0.6299212598425197 }, { "duration": 0.23645833333333144, "durationTicks": 227, "midi": 69, "name": "A4", "ticks": 87120, "time": 90.75, "velocity": 0.6299212598425197 }, { "duration": 0.4739583333333286, "durationTicks": 455, "midi": 72, "name": "C5", "ticks": 87360, "time": 91, "velocity": 0.6299212598425197 }, { "duration": 0.4739583333333286, "durationTicks": 455, "midi": 71, "name": "B4", "ticks": 87840, "time": 91.5, "velocity": 0.6299212598425197 }, { "duration": 0.23645833333333144, "durationTicks": 227, "midi": 70, "name": "A#4", "ticks": 88800, "time": 92.5, "velocity": 0.6299212598425197 }, { "duration": 0.23645833333333144, "durationTicks": 227, "midi": 67, "name": "G4", "ticks": 89040, "time": 92.75, "velocity": 0.6299212598425197 }, { "duration": 0.4739583333333286, "durationTicks": 455, "midi": 70, "name": "A#4", "ticks": 89280, "time": 93, "velocity": 0.6299212598425197 }, { "duration": 0.4739583333333286, "durationTicks": 455, "midi": 69, "name": "A4", "ticks": 89760, "time": 93.5, "velocity": 0.6299212598425197 }, { "duration": 0.4989583333333343, "durationTicks": 479, "midi": 69, "name": "A4", "ticks": 90720, "time": 94.5, "velocity": 0.6299212598425197 }, { "duration": 0.4322916666666714, "durationTicks": 415, "midi": 73, "name": "C#5", "ticks": 90783, "time": 94.565625, "velocity": 0.6299212598425197 }, { "duration": 0.3656250000000085, "durationTicks": 351, "midi": 76, "name": "E5", "ticks": 90847, "time": 94.63229166666666, "velocity": 0.6299212598425197 }, { "duration": 0.29895833333333144, "durationTicks": 287, "midi": 81, "name": "A5", "ticks": 90912, "time": 94.7, "velocity": 0.6299212598425197 }, { "duration": 0.4739583333333286, "durationTicks": 455, "midi": 74, "name": "D5", "ticks": 91200, "time": 95, "velocity": 0.6299212598425197 }, { "duration": 0.4739583333333286, "durationTicks": 455, "midi": 77, "name": "F5", "ticks": 91200, "time": 95, "velocity": 0.6299212598425197 }, { "duration": 0.4739583333333286, "durationTicks": 455, "midi": 81, "name": "A5", "ticks": 91200, "time": 95, "velocity": 0.6299212598425197 } ] }, { "channel": 2, "controlChanges": {}, "pitchBends": [], "instrument": { "family": "piano", "name": "acoustic grand piano", "number": 0 }, "name": "Piano\u0000", "notes": [ { "duration": 0.4739583333333333, "durationTicks": 455, "midi": 50, "name": "D3", "ticks": 0, "time": 0, "velocity": 0.6299212598425197 }, { "duration": 0.47395833333333337, "durationTicks": 455, "midi": 53, "name": "F3", "ticks": 480, "time": 0.5, "velocity": 0.6299212598425197 }, { "duration": 0.47395833333333326, "durationTicks": 455, "midi": 50, "name": "D3", "ticks": 960, "time": 1, "velocity": 0.6299212598425197 }, { "duration": 0.47395833333333326, "durationTicks": 455, "midi": 55, "name": "G3", "ticks": 1440, "time": 1.5, "velocity": 0.6299212598425197 }, { "duration": 0.4739583333333335, "durationTicks": 455, "midi": 50, "name": "D3", "ticks": 1920, "time": 2, "velocity": 0.6299212598425197 }, { "duration": 0.4739583333333335, "durationTicks": 455, "midi": 56, "name": "G#3", "ticks": 2400, "time": 2.5, "velocity": 0.6299212598425197 }, { "duration": 0.4739583333333335, "durationTicks": 455, "midi": 50, "name": "D3", "ticks": 2880, "time": 3, "velocity": 0.6299212598425197 }, { "duration": 0.4739583333333335, "durationTicks": 455, "midi": 58, "name": "A#3", "ticks": 3360, "time": 3.5, "velocity": 0.6299212598425197 }, { "duration": 0.47395833333333304, "durationTicks": 455, "midi": 50, "name": "D3", "ticks": 3840, "time": 4, "velocity": 0.6299212598425197 }, { "duration": 0.47395833333333304, "durationTicks": 455, "midi": 53, "name": "F3", "ticks": 4320, "time": 4.5, "velocity": 0.6299212598425197 }, { "duration": 0.47395833333333304, "durationTicks": 455, "midi": 50, "name": "D3", "ticks": 4800, "time": 5, "velocity": 0.6299212598425197 }, { "duration": 0.47395833333333304, "durationTicks": 455, "midi": 55, "name": "G3", "ticks": 5280, "time": 5.5, "velocity": 0.6299212598425197 }, { "duration": 0.47395833333333304, "durationTicks": 455, "midi": 50, "name": "D3", "ticks": 5760, "time": 6, "velocity": 0.6299212598425197 }, { "duration": 0.47395833333333304, "durationTicks": 455, "midi": 56, "name": "G#3", "ticks": 6240, "time": 6.5, "velocity": 0.6299212598425197 }, { "duration": 0.47395833333333304, "durationTicks": 455, "midi": 50, "name": "D3", "ticks": 6720, "time": 7, "velocity": 0.6299212598425197 }, { "duration": 0.47395833333333304, "durationTicks": 455, "midi": 58, "name": "A#3", "ticks": 7200, "time": 7.5, "velocity": 0.6299212598425197 }, { "duration": 0.4739583333333339, "durationTicks": 455, "midi": 50, "name": "D3", "ticks": 7680, "time": 8, "velocity": 0.6299212598425197 }, { "duration": 0.4739583333333339, "durationTicks": 455, "midi": 53, "name": "F3", "ticks": 8160, "time": 8.5, "velocity": 0.6299212598425197 }, { "duration": 0.4739583333333339, "durationTicks": 455, "midi": 50, "name": "D3", "ticks": 8640, "time": 9, "velocity": 0.6299212598425197 }, { "duration": 0.4739583333333339, "durationTicks": 455, "midi": 55, "name": "G3", "ticks": 9120, "time": 9.5, "velocity": 0.6299212598425197 }, { "duration": 0.4739583333333339, "durationTicks": 455, "midi": 50, "name": "D3", "ticks": 9600, "time": 10, "velocity": 0.6299212598425197 }, { "duration": 0.4739583333333339, "durationTicks": 455, "midi": 56, "name": "G#3", "ticks": 10080, "time": 10.5, "velocity": 0.6299212598425197 }, { "duration": 0.4739583333333339, "durationTicks": 455, "midi": 50, "name": "D3", "ticks": 10560, "time": 11, "velocity": 0.6299212598425197 }, { "duration": 0.4739583333333339, "durationTicks": 455, "midi": 57, "name": "A3", "ticks": 11040, "time": 11.5, "velocity": 0.6299212598425197 }, { "duration": 0.4739583333333339, "durationTicks": 455, "midi": 50, "name": "D3", "ticks": 11520, "time": 12, "velocity": 0.6299212598425197 }, { "duration": 0.4739583333333339, "durationTicks": 455, "midi": 56, "name": "G#3", "ticks": 12000, "time": 12.5, "velocity": 0.6299212598425197 }, { "duration": 0.4739583333333339, "durationTicks": 455, "midi": 50, "name": "D3", "ticks": 12480, "time": 13, "velocity": 0.6299212598425197 }, { "duration": 0.4739583333333339, "durationTicks": 455, "midi": 55, "name": "G3", "ticks": 12960, "time": 13.5, "velocity": 0.6299212598425197 }, { "duration": 0.4739583333333339, "durationTicks": 455, "midi": 50, "name": "D3", "ticks": 13440, "time": 14, "velocity": 0.6299212598425197 }, { "duration": 0.4739583333333339, "durationTicks": 455, "midi": 62, "name": "D4", "ticks": 13920, "time": 14.5, "velocity": 0.6299212598425197 }, { "duration": 0.4739583333333339, "durationTicks": 455, "midi": 62, "name": "D4", "ticks": 14400, "time": 15, "velocity": 0.6299212598425197 }, { "duration": 0.11770833333333286, "durationTicks": 113, "midi": 62, "name": "D4", "ticks": 14880, "time": 15.5, "velocity": 0.6299212598425197 }, { "duration": 0.11770833333333286, "durationTicks": 113, "midi": 60, "name": "C4", "ticks": 15000, "time": 15.625, "velocity": 0.6299212598425197 }, { "duration": 0.11770833333333286, "durationTicks": 113, "midi": 58, "name": "A#3", "ticks": 15120, "time": 15.75, "velocity": 0.6299212598425197 }, { "duration": 0.11770833333333286, "durationTicks": 113, "midi": 57, "name": "A3", "ticks": 15240, "time": 15.875, "velocity": 0.6299212598425197 }, { "duration": 0.47395833333333215, "durationTicks": 455, "midi": 56, "name": "G#3", "ticks": 15360, "time": 16, "velocity": 0.6299212598425197 }, { "duration": 0.47395833333333215, "durationTicks": 455, "midi": 55, "name": "G3", "ticks": 16320, "time": 17, "velocity": 0.6299212598425197 }, { "duration": 0.47395833333333215, "durationTicks": 455, "midi": 53, "name": "F3", "ticks": 17280, "time": 18, "velocity": 0.6299212598425197 }, { "duration": 0.47395833333333215, "durationTicks": 455, "midi": 50, "name": "D3", "ticks": 18240, "time": 19, "velocity": 0.6299212598425197 }, { "duration": 0.47395833333333215, "durationTicks": 455, "midi": 52, "name": "E3", "ticks": 19200, "time": 20, "velocity": 0.6299212598425197 }, { "duration": 0.47395833333333215, "durationTicks": 455, "midi": 60, "name": "C4", "ticks": 19680, "time": 20.5, "velocity": 0.6299212598425197 }, { "duration": 0.47395833333333215, "durationTicks": 455, "midi": 52, "name": "E3", "ticks": 20160, "time": 21, "velocity": 0.6299212598425197 }, { "duration": 0.47395833333333215, "durationTicks": 455, "midi": 57, "name": "A3", "ticks": 21120, "time": 22, "velocity": 0.6299212598425197 }, { "duration": 0.47395833333333215, "durationTicks": 455, "midi": 58, "name": "A#3", "ticks": 21600, "time": 22.5, "velocity": 0.6299212598425197 }, { "duration": 0.47395833333333215, "durationTicks": 455, "midi": 57, "name": "A3", "ticks": 22080, "time": 23, "velocity": 0.6299212598425197 }, { "duration": 0.11770833333333286, "durationTicks": 113, "midi": 57, "name": "A3", "ticks": 22560, "time": 23.5, "velocity": 0.6299212598425197 }, { "duration": 0.11770833333333286, "durationTicks": 113, "midi": 55, "name": "G3", "ticks": 22680, "time": 23.625, "velocity": 0.6299212598425197 }, { "duration": 0.11770833333333286, "durationTicks": 113, "midi": 53, "name": "F3", "ticks": 22800, "time": 23.75, "velocity": 0.6299212598425197 }, { "duration": 0.11770833333333286, "durationTicks": 113, "midi": 52, "name": "E3", "ticks": 22920, "time": 23.875, "velocity": 0.6299212598425197 }, { "duration": 0.47395833333333215, "durationTicks": 455, "midi": 50, "name": "D3", "ticks": 23040, "time": 24, "velocity": 0.6299212598425197 }, { "duration": 0.47395833333333215, "durationTicks": 455, "midi": 53, "name": "F3", "ticks": 23520, "time": 24.5, "velocity": 0.6299212598425197 }, { "duration": 0.47395833333333215, "durationTicks": 455, "midi": 50, "name": "D3", "ticks": 24000, "time": 25, "velocity": 0.6299212598425197 }, { "duration": 0.47395833333333215, "durationTicks": 455, "midi": 55, "name": "G3", "ticks": 24480, "time": 25.5, "velocity": 0.6299212598425197 }, { "duration": 0.47395833333333215, "durationTicks": 455, "midi": 50, "name": "D3", "ticks": 24960, "time": 26, "velocity": 0.6299212598425197 }, { "duration": 0.47395833333333215, "durationTicks": 455, "midi": 56, "name": "G#3", "ticks": 25440, "time": 26.5, "velocity": 0.6299212598425197 }, { "duration": 0.47395833333333215, "durationTicks": 455, "midi": 50, "name": "D3", "ticks": 25920, "time": 27, "velocity": 0.6299212598425197 }, { "duration": 0.47395833333333215, "durationTicks": 455, "midi": 57, "name": "A3", "ticks": 26400, "time": 27.5, "velocity": 0.6299212598425197 }, { "duration": 0.47395833333333215, "durationTicks": 455, "midi": 50, "name": "D3", "ticks": 26880, "time": 28, "velocity": 0.6299212598425197 }, { "duration": 0.47395833333333215, "durationTicks": 455, "midi": 56, "name": "G#3", "ticks": 27360, "time": 28.5, "velocity": 0.6299212598425197 }, { "duration": 0.47395833333333215, "durationTicks": 455, "midi": 50, "name": "D3", "ticks": 27840, "time": 29, "velocity": 0.6299212598425197 }, { "duration": 0.47395833333333215, "durationTicks": 455, "midi": 55, "name": "G3", "ticks": 28320, "time": 29.5, "velocity": 0.6299212598425197 }, { "duration": 0.47395833333333215, "durationTicks": 455, "midi": 50, "name": "D3", "ticks": 28800, "time": 30, "velocity": 0.6299212598425197 }, { "duration": 0.47395833333333215, "durationTicks": 455, "midi": 62, "name": "D4", "ticks": 29280, "time": 30.5, "velocity": 0.6299212598425197 }, { "duration": 0.47395833333333215, "durationTicks": 455, "midi": 62, "name": "D4", "ticks": 29760, "time": 31, "velocity": 0.6299212598425197 }, { "duration": 0.11770833333333286, "durationTicks": 113, "midi": 53, "name": "F3", "ticks": 30240, "time": 31.5, "velocity": 0.6299212598425197 }, { "duration": 0.11770833333333286, "durationTicks": 113, "midi": 52, "name": "E3", "ticks": 30360, "time": 31.625, "velocity": 0.6299212598425197 }, { "duration": 0.11770833333333286, "durationTicks": 113, "midi": 50, "name": "D3", "ticks": 30480, "time": 31.75, "velocity": 0.6299212598425197 }, { "duration": 0.11770833333333286, "durationTicks": 113, "midi": 48, "name": "C3", "ticks": 30600, "time": 31.875, "velocity": 0.6299212598425197 }, { "duration": 0.4739583333333357, "durationTicks": 455, "midi": 47, "name": "B2", "ticks": 30720, "time": 32, "velocity": 0.6299212598425197 }, { "duration": 0.94895833333333, "durationTicks": 911, "midi": 64, "name": "E4", "ticks": 31200, "time": 32.5, "velocity": 0.6299212598425197 }, { "duration": 0.4739583333333357, "durationTicks": 455, "midi": 57, "name": "A3", "ticks": 32160, "time": 33.5, "velocity": 0.6299212598425197 }, { "duration": 0.4739583333333357, "durationTicks": 455, "midi": 50, "name": "D3", "ticks": 32640, "time": 34, "velocity": 0.6299212598425197 }, { "duration": 0.94895833333333, "durationTicks": 911, "midi": 62, "name": "D4", "ticks": 33120, "time": 34.5, "velocity": 0.6299212598425197 }, { "duration": 0.4739583333333357, "durationTicks": 455, "midi": 55, "name": "G3", "ticks": 34080, "time": 35.5, "velocity": 0.6299212598425197 }, { "duration": 0.4739583333333357, "durationTicks": 455, "midi": 48, "name": "C3", "ticks": 34560, "time": 36, "velocity": 0.6299212598425197 }, { "duration": 0.94895833333333, "durationTicks": 911, "midi": 60, "name": "C4", "ticks": 35040, "time": 36.5, "velocity": 0.6299212598425197 }, { "duration": 0.4739583333333357, "durationTicks": 455, "midi": 53, "name": "F3", "ticks": 36000, "time": 37.5, "velocity": 0.6299212598425197 }, { "duration": 0.4739583333333357, "durationTicks": 455, "midi": 57, "name": "A3", "ticks": 36480, "time": 38, "velocity": 0.6299212598425197 }, { "duration": 0.4739583333333357, "durationTicks": 455, "midi": 52, "name": "E3", "ticks": 36960, "time": 38.5, "velocity": 0.6299212598425197 }, { "duration": 0.4739583333333357, "durationTicks": 455, "midi": 55, "name": "G3", "ticks": 36960, "time": 38.5, "velocity": 0.6299212598425197 }, { "duration": 0.4739583333333357, "durationTicks": 455, "midi": 50, "name": "D3", "ticks": 37440, "time": 39, "velocity": 0.6299212598425197 }, { "duration": 0.4739583333333357, "durationTicks": 455, "midi": 53, "name": "F3", "ticks": 37440, "time": 39, "velocity": 0.6299212598425197 }, { "duration": 0.4989583333333343, "durationTicks": 479, "midi": 45, "name": "A2", "ticks": 37920, "time": 39.5, "velocity": 0.6299212598425197 }, { "duration": 0.4989583333333343, "durationTicks": 479, "midi": 45, "name": "A2", "ticks": 38400, "time": 40, "velocity": 0.6299212598425197 }, { "duration": 0.4989583333333343, "durationTicks": 479, "midi": 50, "name": "D3", "ticks": 38400, "time": 40, "velocity": 0.6299212598425197 }, { "duration": 0.4989583333333343, "durationTicks": 479, "midi": 45, "name": "A2", "ticks": 38880, "time": 40.5, "velocity": 0.6299212598425197 }, { "duration": 0.4989583333333343, "durationTicks": 479, "midi": 52, "name": "E3", "ticks": 38880, "time": 40.5, "velocity": 0.6299212598425197 }, { "duration": 2.3739583333333343, "durationTicks": 2279, "midi": 45, "name": "A2", "ticks": 39360, "time": 41, "velocity": 0.6299212598425197 }, { "duration": 0.4739583333333357, "durationTicks": 455, "midi": 53, "name": "F3", "ticks": 39360, "time": 41, "velocity": 0.6299212598425197 }, { "duration": 0.4739583333333357, "durationTicks": 455, "midi": 55, "name": "G3", "ticks": 39840, "time": 41.5, "velocity": 0.6299212598425197 }, { "duration": 0.4739583333333357, "durationTicks": 455, "midi": 53, "name": "F3", "ticks": 40320, "time": 42, "velocity": 0.6299212598425197 }, { "duration": 0.4739583333333357, "durationTicks": 455, "midi": 53, "name": "F3", "ticks": 40800, "time": 42.5, "velocity": 0.6299212598425197 }, { "duration": 0.4739583333333357, "durationTicks": 455, "midi": 52, "name": "E3", "ticks": 41280, "time": 43, "velocity": 0.6299212598425197 }, { "duration": 0.4739583333333357, "durationTicks": 455, "midi": 45, "name": "A2", "ticks": 41760, "time": 43.5, "velocity": 0.6299212598425197 }, { "duration": 0.4739583333333357, "durationTicks": 455, "midi": 49, "name": "C#3", "ticks": 41760, "time": 43.5, "velocity": 0.6299212598425197 }, { "duration": 1.4239583333333314, "durationTicks": 1367, "midi": 50, "name": "D3", "ticks": 42240, "time": 44, "velocity": 0.6299212598425197 }, { "duration": 0.4739583333333357, "durationTicks": 455, "midi": 43, "name": "G2", "ticks": 43680, "time": 45.5, "velocity": 0.6299212598425197 }, { "duration": 0.4739583333333357, "durationTicks": 455, "midi": 47, "name": "B2", "ticks": 43680, "time": 45.5, "velocity": 0.6299212598425197 }, { "duration": 1.4239583333333314, "durationTicks": 1367, "midi": 48, "name": "C3", "ticks": 44160, "time": 46, "velocity": 0.6299212598425197 }, { "duration": 0.4989583333333343, "durationTicks": 479, "midi": 45, "name": "A2", "ticks": 45600, "time": 47.5, "velocity": 0.6299212598425197 }, { "duration": 0.4989583333333343, "durationTicks": 479, "midi": 45, "name": "A2", "ticks": 46080, "time": 48, "velocity": 0.6299212598425197 }, { "duration": 0.4989583333333343, "durationTicks": 479, "midi": 50, "name": "D3", "ticks": 46080, "time": 48, "velocity": 0.6299212598425197 }, { "duration": 0.4989583333333343, "durationTicks": 479, "midi": 45, "name": "A2", "ticks": 46560, "time": 48.5, "velocity": 0.6299212598425197 }, { "duration": 0.4989583333333343, "durationTicks": 479, "midi": 52, "name": "E3", "ticks": 46560, "time": 48.5, "velocity": 0.6299212598425197 }, { "duration": 1.44895833333333, "durationTicks": 1391, "midi": 45, "name": "A2", "ticks": 47040, "time": 49, "velocity": 0.6299212598425197 }, { "duration": 0.4739583333333357, "durationTicks": 455, "midi": 53, "name": "F3", "ticks": 47040, "time": 49, "velocity": 0.6299212598425197 }, { "duration": 0.4739583333333357, "durationTicks": 455, "midi": 55, "name": "G3", "ticks": 47520, "time": 49.5, "velocity": 0.6299212598425197 }, { "duration": 0.4989583333333343, "durationTicks": 479, "midi": 53, "name": "F3", "ticks": 48000, "time": 50, "velocity": 0.6299212598425197 }, { "duration": 0.4989583333333343, "durationTicks": 479, "midi": 45, "name": "A2", "ticks": 48480, "time": 50.5, "velocity": 0.6299212598425197 }, { "duration": 0.4989583333333343, "durationTicks": 479, "midi": 53, "name": "F3", "ticks": 48480, "time": 50.5, "velocity": 0.6299212598425197 }, { "duration": 0.4739583333333357, "durationTicks": 455, "midi": 45, "name": "A2", "ticks": 48960, "time": 51, "velocity": 0.6299212598425197 }, { "duration": 0.4739583333333357, "durationTicks": 455, "midi": 52, "name": "E3", "ticks": 48960, "time": 51, "velocity": 0.6299212598425197 }, { "duration": 0.4739583333333357, "durationTicks": 455, "midi": 45, "name": "A2", "ticks": 49440, "time": 51.5, "velocity": 0.6299212598425197 }, { "duration": 0.4739583333333357, "durationTicks": 455, "midi": 49, "name": "C#3", "ticks": 49440, "time": 51.5, "velocity": 0.6299212598425197 }, { "duration": 1.4239583333333314, "durationTicks": 1367, "midi": 50, "name": "D3", "ticks": 49920, "time": 52, "velocity": 0.6299212598425197 }, { "duration": 0.4739583333333357, "durationTicks": 455, "midi": 43, "name": "G2", "ticks": 51360, "time": 53.5, "velocity": 0.6299212598425197 }, { "duration": 0.4739583333333357, "durationTicks": 455, "midi": 47, "name": "B2", "ticks": 51360, "time": 53.5, "velocity": 0.6299212598425197 }, { "duration": 1.4239583333333314, "durationTicks": 1367, "midi": 48, "name": "C3", "ticks": 51840, "time": 54, "velocity": 0.6299212598425197 }, { "duration": 0.4989583333333343, "durationTicks": 479, "midi": 45, "name": "A2", "ticks": 53280, "time": 55.5, "velocity": 0.6299212598425197 }, { "duration": 0.4989583333333343, "durationTicks": 479, "midi": 45, "name": "A2", "ticks": 53760, "time": 56, "velocity": 0.6299212598425197 }, { "duration": 0.4989583333333343, "durationTicks": 479, "midi": 50, "name": "D3", "ticks": 53760, "time": 56, "velocity": 0.6299212598425197 }, { "duration": 0.4989583333333343, "durationTicks": 479, "midi": 45, "name": "A2", "ticks": 54240, "time": 56.5, "velocity": 0.6299212598425197 }, { "duration": 0.4989583333333343, "durationTicks": 479, "midi": 52, "name": "E3", "ticks": 54240, "time": 56.5, "velocity": 0.6299212598425197 }, { "duration": 0.4739583333333357, "durationTicks": 455, "midi": 45, "name": "A2", "ticks": 54720, "time": 57, "velocity": 0.6299212598425197 }, { "duration": 0.4739583333333357, "durationTicks": 455, "midi": 53, "name": "F3", "ticks": 54720, "time": 57, "velocity": 0.6299212598425197 }, { "duration": 0.4739583333333357, "durationTicks": 455, "midi": 45, "name": "A2", "ticks": 55200, "time": 57.5, "velocity": 0.6299212598425197 }, { "duration": 0.4989583333333343, "durationTicks": 479, "midi": 45, "name": "A2", "ticks": 55680, "time": 58, "velocity": 0.6299212598425197 }, { "duration": 0.4989583333333343, "durationTicks": 479, "midi": 52, "name": "E3", "ticks": 55680, "time": 58, "velocity": 0.6299212598425197 }, { "duration": 0.94895833333333, "durationTicks": 911, "midi": 45, "name": "A2", "ticks": 56160, "time": 58.5, "velocity": 0.6299212598425197 }, { "duration": 0.4739583333333357, "durationTicks": 455, "midi": 53, "name": "F3", "ticks": 56160, "time": 58.5, "velocity": 0.6299212598425197 }, { "duration": 0.4739583333333357, "durationTicks": 455, "midi": 55, "name": "G3", "ticks": 56640, "time": 59, "velocity": 0.6299212598425197 }, { "duration": 2.3739583333333343, "durationTicks": 2279, "midi": 45, "name": "A2", "ticks": 57120, "time": 59.5, "velocity": 0.6299212598425197 }, { "duration": 0.4739583333333357, "durationTicks": 455, "midi": 53, "name": "F3", "ticks": 57600, "time": 60, "velocity": 0.6299212598425197 }, { "duration": 0.4739583333333357, "durationTicks": 455, "midi": 55, "name": "G3", "ticks": 58080, "time": 60.5, "velocity": 0.6299212598425197 }, { "duration": 0.4739583333333357, "durationTicks": 455, "midi": 57, "name": "A3", "ticks": 58560, "time": 61, "velocity": 0.6299212598425197 }, { "duration": 0.4739583333333357, "durationTicks": 455, "midi": 57, "name": "A3", "ticks": 59040, "time": 61.5, "velocity": 0.6299212598425197 }, { "duration": 0.4739583333333357, "durationTicks": 455, "midi": 57, "name": "A3", "ticks": 59520, "time": 62, "velocity": 0.6299212598425197 }, { "duration": 0.4739583333333357, "durationTicks": 455, "midi": 57, "name": "A3", "ticks": 60000, "time": 62.5, "velocity": 0.6299212598425197 }, { "duration": 0.4739583333333357, "durationTicks": 455, "midi": 57, "name": "A3", "ticks": 60480, "time": 63, "velocity": 0.6299212598425197 }, { "duration": 0.11770833333333286, "durationTicks": 113, "midi": 57, "name": "A3", "ticks": 60960, "time": 63.5, "velocity": 0.6299212598425197 }, { "duration": 0.11770833333333286, "durationTicks": 113, "midi": 55, "name": "G3", "ticks": 61080, "time": 63.625, "velocity": 0.6299212598425197 }, { "duration": 0.11770833333333286, "durationTicks": 113, "midi": 53, "name": "F3", "ticks": 61200, "time": 63.75, "velocity": 0.6299212598425197 }, { "duration": 0.11770833333333286, "durationTicks": 113, "midi": 52, "name": "E3", "ticks": 61320, "time": 63.875, "velocity": 0.6299212598425197 }, { "duration": 0.4739583333333286, "durationTicks": 455, "midi": 53, "name": "F3", "ticks": 61440, "time": 64, "velocity": 0.6299212598425197 }, { "duration": 0.4739583333333286, "durationTicks": 455, "midi": 50, "name": "D3", "ticks": 61920, "time": 64.5, "velocity": 0.6299212598425197 }, { "duration": 0.4739583333333286, "durationTicks": 455, "midi": 55, "name": "G3", "ticks": 62400, "time": 65, "velocity": 0.6299212598425197 }, { "duration": 0.4739583333333286, "durationTicks": 455, "midi": 50, "name": "D3", "ticks": 62880, "time": 65.5, "velocity": 0.6299212598425197 }, { "duration": 0.4739583333333286, "durationTicks": 455, "midi": 56, "name": "G#3", "ticks": 63360, "time": 66, "velocity": 0.6299212598425197 }, { "duration": 0.4739583333333286, "durationTicks": 455, "midi": 50, "name": "D3", "ticks": 63840, "time": 66.5, "velocity": 0.6299212598425197 }, { "duration": 0.4739583333333286, "durationTicks": 455, "midi": 53, "name": "F3", "ticks": 64320, "time": 67, "velocity": 0.6299212598425197 }, { "duration": 0.4739583333333286, "durationTicks": 455, "midi": 50, "name": "D3", "ticks": 64800, "time": 67.5, "velocity": 0.6299212598425197 }, { "duration": 0.4739583333333286, "durationTicks": 455, "midi": 56, "name": "G#3", "ticks": 65280, "time": 68, "velocity": 0.6299212598425197 }, { "duration": 0.4739583333333286, "durationTicks": 455, "midi": 50, "name": "D3", "ticks": 65760, "time": 68.5, "velocity": 0.6299212598425197 }, { "duration": 0.4739583333333286, "durationTicks": 455, "midi": 55, "name": "G3", "ticks": 66240, "time": 69, "velocity": 0.6299212598425197 }, { "duration": 0.4739583333333286, "durationTicks": 455, "midi": 50, "name": "D3", "ticks": 67200, "time": 70, "velocity": 0.6299212598425197 }, { "duration": 0.4739583333333286, "durationTicks": 455, "midi": 62, "name": "D4", "ticks": 67680, "time": 70.5, "velocity": 0.6299212598425197 }, { "duration": 0.4739583333333286, "durationTicks": 455, "midi": 62, "name": "D4", "ticks": 68160, "time": 71, "velocity": 0.6299212598425197 }, { "duration": 0.11770833333333997, "durationTicks": 113, "midi": 62, "name": "D4", "ticks": 68640, "time": 71.5, "velocity": 0.6299212598425197 }, { "duration": 0.11770833333333997, "durationTicks": 113, "midi": 60, "name": "C4", "ticks": 68760, "time": 71.625, "velocity": 0.6299212598425197 }, { "duration": 0.11770833333333997, "durationTicks": 113, "midi": 58, "name": "A#3", "ticks": 68880, "time": 71.75, "velocity": 0.6299212598425197 }, { "duration": 0.11770833333333997, "durationTicks": 113, "midi": 57, "name": "A3", "ticks": 69000, "time": 71.875, "velocity": 0.6299212598425197 }, { "duration": 0.4739583333333286, "durationTicks": 455, "midi": 56, "name": "G#3", "ticks": 69120, "time": 72, "velocity": 0.6299212598425197 }, { "duration": 0.4739583333333286, "durationTicks": 455, "midi": 62, "name": "D4", "ticks": 69600, "time": 72.5, "velocity": 0.6299212598425197 }, { "duration": 0.4739583333333286, "durationTicks": 455, "midi": 55, "name": "G3", "ticks": 70080, "time": 73, "velocity": 0.6299212598425197 }, { "duration": 0.4739583333333286, "durationTicks": 455, "midi": 61, "name": "C#4", "ticks": 70560, "time": 73.5, "velocity": 0.6299212598425197 }, { "duration": 0.4739583333333286, "durationTicks": 455, "midi": 53, "name": "F3", "ticks": 71040, "time": 74, "velocity": 0.6299212598425197 }, { "duration": 0.4739583333333286, "durationTicks": 455, "midi": 57, "name": "A3", "ticks": 71520, "time": 74.5, "velocity": 0.6299212598425197 }, { "duration": 0.4739583333333286, "durationTicks": 455, "midi": 50, "name": "D3", "ticks": 72000, "time": 75, "velocity": 0.6299212598425197 }, { "duration": 0.4739583333333286, "durationTicks": 455, "midi": 56, "name": "G#3", "ticks": 72480, "time": 75.5, "velocity": 0.6299212598425197 }, { "duration": 0.4739583333333286, "durationTicks": 455, "midi": 52, "name": "E3", "ticks": 72960, "time": 76, "velocity": 0.6299212598425197 }, { "duration": 0.4739583333333286, "durationTicks": 455, "midi": 60, "name": "C4", "ticks": 73440, "time": 76.5, "velocity": 0.6299212598425197 }, { "duration": 0.4739583333333286, "durationTicks": 455, "midi": 52, "name": "E3", "ticks": 73920, "time": 77, "velocity": 0.6299212598425197 }, { "duration": 0.4739583333333286, "durationTicks": 455, "midi": 56, "name": "G#3", "ticks": 74400, "time": 77.5, "velocity": 0.6299212598425197 }, { "duration": 0.4739583333333286, "durationTicks": 455, "midi": 57, "name": "A3", "ticks": 74880, "time": 78, "velocity": 0.6299212598425197 }, { "duration": 0.4739583333333286, "durationTicks": 455, "midi": 58, "name": "A#3", "ticks": 75360, "time": 78.5, "velocity": 0.6299212598425197 }, { "duration": 0.4739583333333286, "durationTicks": 455, "midi": 57, "name": "A3", "ticks": 75840, "time": 79, "velocity": 0.6299212598425197 }, { "duration": 0.11770833333333997, "durationTicks": 113, "midi": 57, "name": "A3", "ticks": 76320, "time": 79.5, "velocity": 0.6299212598425197 }, { "duration": 0.11770833333333997, "durationTicks": 113, "midi": 55, "name": "G3", "ticks": 76440, "time": 79.625, "velocity": 0.6299212598425197 }, { "duration": 0.11770833333333997, "durationTicks": 113, "midi": 53, "name": "F3", "ticks": 76560, "time": 79.75, "velocity": 0.6299212598425197 }, { "duration": 0.11770833333333997, "durationTicks": 113, "midi": 52, "name": "E3", "ticks": 76680, "time": 79.875, "velocity": 0.6299212598425197 }, { "duration": 0.4739583333333286, "durationTicks": 455, "midi": 50, "name": "D3", "ticks": 76800, "time": 80, "velocity": 0.6299212598425197 }, { "duration": 0.4739583333333286, "durationTicks": 455, "midi": 53, "name": "F3", "ticks": 77280, "time": 80.5, "velocity": 0.6299212598425197 }, { "duration": 0.4739583333333286, "durationTicks": 455, "midi": 50, "name": "D3", "ticks": 77760, "time": 81, "velocity": 0.6299212598425197 }, { "duration": 0.4739583333333286, "durationTicks": 455, "midi": 55, "name": "G3", "ticks": 78240, "time": 81.5, "velocity": 0.6299212598425197 }, { "duration": 0.4739583333333286, "durationTicks": 455, "midi": 50, "name": "D3", "ticks": 78720, "time": 82, "velocity": 0.6299212598425197 }, { "duration": 0.4739583333333286, "durationTicks": 455, "midi": 56, "name": "G#3", "ticks": 79200, "time": 82.5, "velocity": 0.6299212598425197 }, { "duration": 0.4739583333333286, "durationTicks": 455, "midi": 50, "name": "D3", "ticks": 79680, "time": 83, "velocity": 0.6299212598425197 }, { "duration": 0.4739583333333286, "durationTicks": 455, "midi": 45, "name": "A2", "ticks": 80160, "time": 83.5, "velocity": 0.6299212598425197 }, { "duration": 0.4739583333333286, "durationTicks": 455, "midi": 50, "name": "D3", "ticks": 80640, "time": 84, "velocity": 0.6299212598425197 }, { "duration": 0.4739583333333286, "durationTicks": 455, "midi": 56, "name": "G#3", "ticks": 81120, "time": 84.5, "velocity": 0.6299212598425197 }, { "duration": 0.4739583333333286, "durationTicks": 455, "midi": 50, "name": "D3", "ticks": 81600, "time": 85, "velocity": 0.6299212598425197 }, { "duration": 0.4739583333333286, "durationTicks": 455, "midi": 55, "name": "G3", "ticks": 82080, "time": 85.5, "velocity": 0.6299212598425197 }, { "duration": 0.4739583333333286, "durationTicks": 455, "midi": 50, "name": "D3", "ticks": 82560, "time": 86, "velocity": 0.6299212598425197 }, { "duration": 0.4739583333333286, "durationTicks": 455, "midi": 62, "name": "D4", "ticks": 83040, "time": 86.5, "velocity": 0.6299212598425197 }, { "duration": 0.4739583333333286, "durationTicks": 455, "midi": 62, "name": "D4", "ticks": 83520, "time": 87, "velocity": 0.6299212598425197 }, { "duration": 0.11770833333333997, "durationTicks": 113, "midi": 53, "name": "F3", "ticks": 84000, "time": 87.5, "velocity": 0.6299212598425197 }, { "duration": 0.11770833333333997, "durationTicks": 113, "midi": 52, "name": "E3", "ticks": 84120, "time": 87.625, "velocity": 0.6299212598425197 }, { "duration": 0.11770833333333997, "durationTicks": 113, "midi": 50, "name": "D3", "ticks": 84240, "time": 87.75, "velocity": 0.6299212598425197 }, { "duration": 0.11770833333333997, "durationTicks": 113, "midi": 48, "name": "C3", "ticks": 84360, "time": 87.875, "velocity": 0.6299212598425197 }, { "duration": 0.4739583333333286, "durationTicks": 455, "midi": 47, "name": "B2", "ticks": 84480, "time": 88, "velocity": 0.6299212598425197 }, { "duration": 0.9489583333333371, "durationTicks": 911, "midi": 64, "name": "E4", "ticks": 84960, "time": 88.5, "velocity": 0.6299212598425197 }, { "duration": 0.4739583333333286, "durationTicks": 455, "midi": 57, "name": "A3", "ticks": 85920, "time": 89.5, "velocity": 0.6299212598425197 }, { "duration": 0.4739583333333286, "durationTicks": 455, "midi": 50, "name": "D3", "ticks": 86400, "time": 90, "velocity": 0.6299212598425197 }, { "duration": 0.9489583333333371, "durationTicks": 911, "midi": 62, "name": "D4", "ticks": 86880, "time": 90.5, "velocity": 0.6299212598425197 }, { "duration": 0.4739583333333286, "durationTicks": 455, "midi": 55, "name": "G3", "ticks": 87840, "time": 91.5, "velocity": 0.6299212598425197 }, { "duration": 0.4739583333333286, "durationTicks": 455, "midi": 48, "name": "C3", "ticks": 88320, "time": 92, "velocity": 0.6299212598425197 }, { "duration": 0.9489583333333371, "durationTicks": 911, "midi": 60, "name": "C4", "ticks": 88800, "time": 92.5, "velocity": 0.6299212598425197 }, { "duration": 0.4739583333333286, "durationTicks": 455, "midi": 53, "name": "F3", "ticks": 89760, "time": 93.5, "velocity": 0.6299212598425197 }, { "duration": 0.4739583333333286, "durationTicks": 455, "midi": 57, "name": "A3", "ticks": 90240, "time": 94, "velocity": 0.6299212598425197 }, { "duration": 0.4739583333333286, "durationTicks": 455, "midi": 52, "name": "E3", "ticks": 90720, "time": 94.5, "velocity": 0.6299212598425197 }, { "duration": 0.4739583333333286, "durationTicks": 455, "midi": 55, "name": "G3", "ticks": 90720, "time": 94.5, "velocity": 0.6299212598425197 }, { "duration": 0.4739583333333286, "durationTicks": 455, "midi": 50, "name": "D3", "ticks": 91200, "time": 95, "velocity": 0.6299212598425197 }, { "duration": 0.4739583333333286, "durationTicks": 455, "midi": 53, "name": "F3", "ticks": 91200, "time": 95, "velocity": 0.6299212598425197 } ] } ] }';
*/
