<svg width="32" height="32" viewBox="0 0 32 32" fill="none" xmlns="http://www.w3.org/2000/svg">
<path d="M16 0C7.17725 0 0 7.17725 0 16C0 24.8228 7.17725 32 16 32C24.8228 32 32 24.8228 32 16C32 7.17725 24.8228 0 16 0Z" fill="#F44336"/>
<path d="M21.8922 20.0067C22.4134 20.5281 22.4134 21.3707 21.8922 21.8922C21.6321 22.1522 21.2908 22.2828 20.9493 22.2828C20.608 22.2828 20.2667 22.1522 20.0067 21.8922L16.0001 17.8853L11.9935 21.8922C11.7335 22.1522 11.3922 22.2828 11.0508 22.2828C10.7093 22.2828 10.368 22.1522 10.108 21.8922C9.58673 21.3707 9.58673 20.5281 10.108 20.0067L14.1148 16.0001L10.108 11.9935C9.58673 11.472 9.58673 10.6295 10.108 10.108C10.6295 9.58673 11.472 9.58673 11.9935 10.108L16.0001 14.1148L20.0067 10.108C20.5281 9.58673 21.3707 9.58673 21.8922 10.108C22.4134 10.6295 22.4134 11.472 21.8922 11.9935L17.8853 16.0001L21.8922 20.0067Z" fill="#FAFAFA"/>
</svg>
