<svg xmlns="http://www.w3.org/2000/svg" viewBox="0 0 500 500"><!--Online Review (1)--><g id="freepik--background-simple--inject-15--inject-547"><path d="M427.92,231.16c1.88-25-3.93-51-11.72-74.3-11.56-34.53-34-69.94-71.79-78.11-21.79-4.71-44,.34-62.65,12.15-18,11.35-32,26-54.07,28.86-22.34,2.88-45.27,1.72-67.73,1.72-57.75,0-104.61,60.67-92.89,123.86s67,107,113.81,107c42.12,0,76.76-25.27,116.76-32.05,19.84-3.36,39.76.62,59.38-4.42C379.84,310,401.3,296,413.94,275.79,422.55,262,426.74,246.79,427.92,231.16Z" style="fill:#904AE9"></path><path d="M427.92,231.16c1.88-25-3.93-51-11.72-74.3-11.56-34.53-34-69.94-71.79-78.11-21.79-4.71-44,.34-62.65,12.15-18,11.35-32,26-54.07,28.86-22.34,2.88-45.27,1.72-67.73,1.72-57.75,0-104.61,60.67-92.89,123.86s67,107,113.81,107c42.12,0,76.76-25.27,116.76-32.05,19.84-3.36,39.76.62,59.38-4.42C379.84,310,401.3,296,413.94,275.79,422.55,262,426.74,246.79,427.92,231.16Z" style="fill:#fff;opacity:0.7000000000000001"></path></g><g id="freepik--Shadow--inject-15--inject-547"><path d="M449,370.22c0,5.49-81.93,9.94-183,9.94s-183-4.45-183-9.94,81.93-10,183-10S449,364.73,449,370.22Z" style="fill:#904AE9"></path><path d="M449,370.22c0,5.49-81.93,9.94-183,9.94s-183-4.45-183-9.94,81.93-10,183-10S449,364.73,449,370.22Z" style="fill:#fff;opacity:0.5"></path></g><g id="freepik--Keyboard--inject-15--inject-547"><path d="M360.37,424.46H132.08c-2.39,0-3.67-.91-2.85-2l24.24-33.17c.51-.69,2.42-1.24,4.27-1.24h177c1.86,0,3.77.55,4.27,1.24l24.25,33.17C364,423.55,362.77,424.46,360.37,424.46Z" style="fill:#263238"></path><path d="M360.37,425H132.08c-1.8,0-3.08-.48-3.5-1.32a1.45,1.45,0,0,1,.2-1.58L153,388.94c.7-.95,2.95-1.47,4.71-1.47h177c1.76,0,4,.52,4.71,1.47l24.25,33.17a1.43,1.43,0,0,1,.2,1.58C363.45,424.53,362.17,425,360.37,425ZM157.74,388.57c-1.91,0-3.52.59-3.83,1l-24.24,33.16c-.2.28-.14.4-.11.45.17.34,1,.71,2.52.71H360.37c1.49,0,2.35-.37,2.53-.71,0-.05.08-.17-.12-.45l-24.24-33.16c-.31-.43-1.92-1-3.83-1Z" style="fill:#263238"></path><polygon points="248.12 388.71 237.64 388.71 237.34 393.05 248.18 393.05 248.12 388.71" style="fill:#fff"></polygon><path d="M248.18,393.6H237.35a.58.58,0,0,1-.41-.18.56.56,0,0,1-.14-.41l.29-4.33a.55.55,0,0,1,.55-.51h10.48a.55.55,0,0,1,.55.54l.06,4.33a.51.51,0,0,1-.16.39A.52.52,0,0,1,248.18,393.6Zm-10.25-1.1h9.7l0-3.24h-9.43Z" style="fill:#263238"></path><polygon points="222.83 388.71 212.35 388.71 211.19 393.05 222.03 393.05 222.83 388.71" style="fill:#fff"></polygon><path d="M222,393.6H211.19a.53.53,0,0,1-.43-.22.53.53,0,0,1-.1-.47l1.17-4.34a.53.53,0,0,1,.52-.4h10.48a.54.54,0,0,1,.42.19.53.53,0,0,1,.12.45l-.8,4.34A.56.56,0,0,1,222,393.6Zm-10.12-1.1h9.67l.6-3.24h-9.41Z" style="fill:#263238"></path><polygon points="260.76 388.71 250.28 388.71 250.42 393.05 261.26 393.05 260.76 388.71" style="fill:#fff"></polygon><path d="M261.26,393.6H250.42a.56.56,0,0,1-.55-.53l-.13-4.34a.54.54,0,0,1,.15-.4.55.55,0,0,1,.39-.16h10.48a.55.55,0,0,1,.55.48l.49,4.34a.55.55,0,0,1-.54.61ZM251,392.5h9.7l-.38-3.24h-9.42Z" style="fill:#263238"></path><polygon points="197.55 388.71 187.07 388.71 185.04 393.05 195.88 393.05 197.55 388.71" style="fill:#fff"></polygon><path d="M195.88,393.6H185a.54.54,0,0,1-.46-.26.53.53,0,0,1,0-.52l2-4.34a.56.56,0,0,1,.5-.31h10.48a.53.53,0,0,1,.45.23.58.58,0,0,1,.06.51l-1.67,4.34A.55.55,0,0,1,195.88,393.6Zm-10-1.1h9.6l1.25-3.24h-9.33Z" style="fill:#263238"></path><polygon points="210.19 388.71 199.71 388.71 198.12 393.05 208.95 393.05 210.19 388.71" style="fill:#fff"></polygon><path d="M209,393.6H198.11a.54.54,0,0,1-.44-.24.52.52,0,0,1-.07-.5l1.6-4.34a.54.54,0,0,1,.51-.35h10.48a.58.58,0,0,1,.44.21.59.59,0,0,1,.09.48l-1.24,4.34A.55.55,0,0,1,209,393.6Zm-10-1.1h9.64l.93-3.24h-9.38Z" style="fill:#263238"></path><polygon points="171.96 393.05 182.8 393.05 184.91 388.71 174.43 388.71 171.96 393.05" style="fill:#fff"></polygon><path d="M182.8,393.6H172a.57.57,0,0,1-.47-.27.54.54,0,0,1,0-.55l2.46-4.34a.55.55,0,0,1,.48-.27h10.48a.54.54,0,0,1,.46.25.55.55,0,0,1,0,.53l-2.11,4.34A.54.54,0,0,1,182.8,393.6Zm-9.9-1.1h9.56l1.57-3.24h-9.29Z" style="fill:#263238"></path><polygon points="235.48 388.71 225 388.71 224.27 393.05 235.11 393.05 235.48 388.71" style="fill:#fff"></polygon><path d="M235.11,393.6H224.27a.55.55,0,0,1-.54-.64l.73-4.34a.54.54,0,0,1,.54-.45h10.48a.54.54,0,0,1,.4.17.55.55,0,0,1,.14.42l-.37,4.34A.54.54,0,0,1,235.11,393.6Zm-10.19-1.1h9.68l.28-3.24h-9.42Z" style="fill:#263238"></path><polygon points="273.4 388.71 262.93 388.71 263.5 393.05 274.34 393.05 273.4 388.71" style="fill:#fff"></polygon><path d="M274.34,393.6H263.5a.54.54,0,0,1-.54-.48l-.58-4.34a.57.57,0,0,1,.13-.43.56.56,0,0,1,.42-.18h10.48a.55.55,0,0,1,.53.43l.93,4.33a.5.5,0,0,1-.11.46A.54.54,0,0,1,274.34,393.6ZM264,392.5h9.68l-.7-3.24h-9.41Z" style="fill:#263238"></path><polygon points="172.26 388.71 156.31 388.71 153.22 393.05 169.72 393.05 172.26 388.71" style="fill:#fff"></polygon><path d="M169.72,393.6h-16.5a.57.57,0,0,1-.49-.3.58.58,0,0,1,0-.57l3.09-4.33a.53.53,0,0,1,.45-.23h15.95a.55.55,0,0,1,.48.27.57.57,0,0,1,0,.55l-2.53,4.34A.57.57,0,0,1,169.72,393.6Zm-15.44-1.1h15.13l1.9-3.24H156.59Z" style="fill:#263238"></path><polygon points="326.14 388.71 328.88 393.05 340.07 393.05 336.96 388.71 326.14 388.71" style="fill:#fff"></polygon><path d="M340.07,393.6H328.88a.55.55,0,0,1-.46-.26L325.68,389a.54.54,0,0,1,.46-.84H337a.54.54,0,0,1,.44.22l3.12,4.34a.55.55,0,0,1-.45.87Zm-10.89-1.1H339l-2.32-3.24h-9.55Z" style="fill:#263238"></path><polygon points="323.98 388.71 313.5 388.71 315.81 393.05 326.64 393.05 323.98 388.71" style="fill:#fff"></polygon><path d="M326.64,393.6H315.81a.55.55,0,0,1-.49-.29L313,389a.55.55,0,0,1,.49-.8H324a.52.52,0,0,1,.46.26l2.67,4.33a.56.56,0,0,1,0,.56A.55.55,0,0,1,326.64,393.6Zm-10.51-1.1h9.53l-2-3.24h-9.26Z" style="fill:#263238"></path><polygon points="311.33 388.71 300.85 388.71 302.73 393.05 313.57 393.05 311.33 388.71" style="fill:#fff"></polygon><path d="M313.57,393.6H302.73a.54.54,0,0,1-.5-.33l-1.88-4.34a.55.55,0,0,1,.5-.76h10.48a.54.54,0,0,1,.49.29l2.24,4.34a.55.55,0,0,1,0,.53A.55.55,0,0,1,313.57,393.6Zm-10.48-1.1h9.58L311,389.26h-9.31Z" style="fill:#263238"></path><polygon points="286.05 388.71 275.57 388.71 276.57 393.05 287.41 393.05 286.05 388.71" style="fill:#fff"></polygon><path d="M287.41,393.6H276.58a.56.56,0,0,1-.54-.43l-1-4.33a.56.56,0,0,1,.1-.47.54.54,0,0,1,.43-.2h10.48a.54.54,0,0,1,.52.38l1.37,4.33a.57.57,0,0,1-.08.49A.57.57,0,0,1,287.41,393.6ZM277,392.5h9.66l-1-3.24h-9.39Z" style="fill:#263238"></path><polygon points="298.69 388.71 288.21 388.71 289.65 393.05 300.49 393.05 298.69 388.71" style="fill:#fff"></polygon><path d="M300.49,393.6H289.65a.56.56,0,0,1-.52-.38l-1.44-4.33a.56.56,0,0,1,.08-.5.54.54,0,0,1,.44-.22h10.48a.56.56,0,0,1,.51.33l1.8,4.34a.54.54,0,0,1-.05.51A.56.56,0,0,1,300.49,393.6Zm-10.44-1.1h9.62l-1.34-3.24H289Z" style="fill:#263238"></path><polygon points="215.31 393.48 204.41 393.48 202.92 398.15 214.21 398.15 215.31 393.48" style="fill:#fff"></polygon><path d="M214.21,398.7H202.92a.54.54,0,0,1-.44-.22.57.57,0,0,1-.08-.49l1.49-4.68a.54.54,0,0,1,.52-.38h10.9a.54.54,0,0,1,.53.67l-1.1,4.68A.54.54,0,0,1,214.21,398.7Zm-10.54-1.09h10.1l.85-3.58h-9.81Z" style="fill:#263238"></path><polygon points="228.45 393.48 217.56 393.48 216.53 398.15 227.82 398.15 228.45 393.48" style="fill:#fff"></polygon><path d="M227.82,398.7H216.53a.53.53,0,0,1-.42-.2A.52.52,0,0,1,216,398l1-4.68a.55.55,0,0,1,.53-.43h10.9a.55.55,0,0,1,.55.62l-.64,4.68A.55.55,0,0,1,227.82,398.7Zm-10.61-1.09h10.13l.49-3.58H218Z" style="fill:#263238"></path><polygon points="241.6 393.48 230.7 393.48 230.14 398.15 241.43 398.15 241.6 393.48" style="fill:#fff"></polygon><path d="M241.43,398.7H230.14a.59.59,0,0,1-.41-.18.56.56,0,0,1-.13-.43l.55-4.68a.56.56,0,0,1,.55-.48h10.9a.55.55,0,0,1,.54.57l-.16,4.67A.54.54,0,0,1,241.43,398.7Zm-10.67-1.09H240.9L241,394h-9.85Z" style="fill:#263238"></path><polygon points="189.02 393.48 178.13 393.48 175.7 398.15 186.98 398.15 189.02 393.48" style="fill:#fff"></polygon><path d="M187,398.7H175.7a.56.56,0,0,1-.47-.26.55.55,0,0,1,0-.54l2.43-4.67a.53.53,0,0,1,.49-.3H189a.53.53,0,0,1,.46.25.56.56,0,0,1,.05.52l-2,4.67A.56.56,0,0,1,187,398.7Zm-10.38-1.09h10l1.56-3.58h-9.73Z" style="fill:#263238"></path><polygon points="162.09 398.15 173.37 398.15 175.88 393.48 164.98 393.48 162.09 398.15" style="fill:#fff"></polygon><path d="M173.37,398.7H162.08a.54.54,0,0,1-.47-.28.52.52,0,0,1,0-.55l2.9-4.68a.54.54,0,0,1,.46-.26h10.9a.55.55,0,0,1,.48.81l-2.51,4.67A.54.54,0,0,1,173.37,398.7Zm-10.3-1.09h10L175,394h-9.67Z" style="fill:#263238"></path><polygon points="254.74 393.48 243.84 393.48 243.76 398.15 255.04 398.15 254.74 393.48" style="fill:#fff"></polygon><path d="M255,398.7H243.76a.55.55,0,0,1-.55-.56l.08-4.67a.55.55,0,0,1,.55-.54h10.9a.56.56,0,0,1,.55.51l.3,4.68a.56.56,0,0,1-.15.41A.54.54,0,0,1,255,398.7Zm-10.73-1.09h10.15l-.23-3.58h-9.85Z" style="fill:#263238"></path><polygon points="202.17 393.48 191.27 393.48 189.31 398.15 200.59 398.15 202.17 393.48" style="fill:#fff"></polygon><path d="M200.6,398.7H189.31a.56.56,0,0,1-.46-.24.57.57,0,0,1,0-.52l2-4.67a.55.55,0,0,1,.51-.34h10.9a.55.55,0,0,1,.44.23.57.57,0,0,1,.08.49l-1.58,4.68A.54.54,0,0,1,200.6,398.7Zm-10.47-1.09H200.2l1.2-3.58h-9.77Z" style="fill:#263238"></path><polygon points="320.45 393.48 309.56 393.48 311.81 398.15 323.1 398.15 320.45 393.48" style="fill:#fff"></polygon><path d="M323.1,398.7H311.81a.54.54,0,0,1-.49-.31l-2.26-4.67a.55.55,0,0,1,.5-.79h10.89a.56.56,0,0,1,.48.28l2.65,4.67a.59.59,0,0,1,0,.55A.55.55,0,0,1,323.1,398.7Zm-10.94-1.09h10l-2-3.58h-9.7Z" style="fill:#263238"></path><polygon points="162.74 393.48 152.91 393.48 149.59 398.15 159.76 398.15 162.74 393.48" style="fill:#fff"></polygon><path d="M159.76,398.7H149.59a.54.54,0,0,1-.49-.29.55.55,0,0,1,0-.57l3.33-4.68a.56.56,0,0,1,.45-.23h9.82a.54.54,0,0,1,.46.84l-3,4.68A.53.53,0,0,1,159.76,398.7Zm-9.11-1.09h8.81l2.28-3.58H153.2Z" style="fill:#263238"></path><polygon points="322.7 393.48 325.43 398.15 343.74 398.15 340.38 393.48 322.7 393.48" style="fill:#fff"></polygon><path d="M343.74,398.7H325.43a.55.55,0,0,1-.48-.27l-2.72-4.68a.55.55,0,0,1,0-.54.56.56,0,0,1,.48-.28h17.68a.54.54,0,0,1,.44.23l3.36,4.67a.54.54,0,0,1,0,.57A.53.53,0,0,1,343.74,398.7Zm-18-1.09h16.93L340.1,394H323.65Z" style="fill:#263238"></path><polygon points="307.31 393.48 296.41 393.48 298.2 398.15 309.49 398.15 307.31 393.48" style="fill:#fff"></polygon><path d="M309.49,398.7H298.2a.55.55,0,0,1-.51-.35l-1.79-4.68a.56.56,0,0,1,.06-.5.54.54,0,0,1,.45-.24h10.9a.55.55,0,0,1,.5.32l2.18,4.67a.58.58,0,0,1,0,.53A.53.53,0,0,1,309.49,398.7Zm-10.91-1.09h10.05L307,394h-9.75Z" style="fill:#263238"></path><polygon points="267.88 393.48 256.98 393.48 257.37 398.15 268.65 398.15 267.88 393.48" style="fill:#fff"></polygon><path d="M268.65,398.7H257.37a.55.55,0,0,1-.55-.5l-.38-4.68a.56.56,0,0,1,.14-.41.57.57,0,0,1,.4-.18h10.9a.55.55,0,0,1,.54.46l.77,4.68a.51.51,0,0,1-.12.44A.54.54,0,0,1,268.65,398.7Zm-10.78-1.09H268l-.59-3.58h-9.84Z" style="fill:#263238"></path><polygon points="281.02 393.48 270.13 393.48 270.98 398.15 282.27 398.15 281.02 393.48" style="fill:#fff"></polygon><path d="M282.27,398.7H271a.55.55,0,0,1-.54-.45l-.85-4.67a.52.52,0,0,1,.12-.45.52.52,0,0,1,.42-.2H281a.55.55,0,0,1,.53.41l1.24,4.67a.54.54,0,0,1-.52.69Zm-10.83-1.09h10.11L280.6,394h-9.82Z" style="fill:#263238"></path><polygon points="294.17 393.48 283.27 393.48 284.59 398.15 295.88 398.15 294.17 393.48" style="fill:#fff"></polygon><path d="M295.88,398.7H284.59a.56.56,0,0,1-.53-.4l-1.32-4.67a.58.58,0,0,1,.09-.48.56.56,0,0,1,.44-.22h10.9a.54.54,0,0,1,.51.36l1.71,4.68a.56.56,0,0,1-.06.5A.57.57,0,0,1,295.88,398.7ZM285,397.61h10.09l-1.3-3.58H284Z" style="fill:#263238"></path><polygon points="276.11 416.77 201.34 416.77 199.44 423.3 277.37 423.3 276.11 416.77" style="fill:#fff"></polygon><path d="M277.37,423.85H199.44a.56.56,0,0,1-.44-.22.55.55,0,0,1-.08-.48l1.89-6.53a.55.55,0,0,1,.53-.39H276.1a.54.54,0,0,1,.54.44l1.27,6.53a.57.57,0,0,1-.12.45A.53.53,0,0,1,277.37,423.85Zm-77.2-1.1H276.7l-1.05-5.43h-73.9Z" style="fill:#263238"></path><polygon points="198.69 416.77 182.01 416.77 179.3 423.3 196.69 423.3 198.69 416.77" style="fill:#fff"></polygon><path d="M196.69,423.85H179.3a.53.53,0,0,1-.46-.25.54.54,0,0,1-.05-.51l2.72-6.53a.54.54,0,0,1,.5-.33h16.68a.53.53,0,0,1,.44.22.52.52,0,0,1,.09.48l-2,6.53A.55.55,0,0,1,196.69,423.85Zm-16.57-1.1h16.16l1.67-5.43H182.38Z" style="fill:#263238"></path><polygon points="292.45 416.77 278.75 416.77 280.12 423.3 294.4 423.3 292.45 416.77" style="fill:#fff"></polygon><path d="M294.4,423.85H280.12a.54.54,0,0,1-.53-.44l-1.38-6.52a.57.57,0,0,1,.11-.46.55.55,0,0,1,.43-.2h13.7a.53.53,0,0,1,.52.39l2,6.52a.54.54,0,0,1-.09.49A.53.53,0,0,1,294.4,423.85Zm-13.83-1.1h13.1L292,417.32H279.42Z" style="fill:#263238"></path><polygon points="147.58 423.3 161.11 423.3 164.56 416.77 151.58 416.77 147.58 423.3" style="fill:#fff"></polygon><path d="M161.11,423.85H147.58a.56.56,0,0,1-.48-.28.59.59,0,0,1,0-.56l4-6.52a.53.53,0,0,1,.46-.26h13a.55.55,0,0,1,.49.8l-3.45,6.53A.55.55,0,0,1,161.11,423.85Zm-12.55-1.1h12.22l2.87-5.43H151.89Z" style="fill:#263238"></path><polygon points="179.37 416.77 167.21 416.77 163.87 423.3 176.54 423.3 179.37 416.77" style="fill:#fff"></polygon><path d="M176.54,423.85H163.87a.56.56,0,0,1-.47-.26.55.55,0,0,1,0-.54l3.34-6.53a.54.54,0,0,1,.49-.29h12.16a.57.57,0,0,1,.46.24.56.56,0,0,1,0,.52L177,423.52A.54.54,0,0,1,176.54,423.85Zm-11.78-1.1h11.42l2.35-5.43h-11Z" style="fill:#263238"></path><polygon points="148.94 416.77 136.34 416.77 131.69 423.3 144.83 423.3 148.94 416.77" style="fill:#fff"></polygon><path d="M144.83,423.85H131.69a.57.57,0,0,1-.49-.3.58.58,0,0,1,0-.57l4.65-6.52a.53.53,0,0,1,.45-.23h12.6a.54.54,0,0,1,.48.28.56.56,0,0,1,0,.56l-4.11,6.52A.55.55,0,0,1,144.83,423.85Zm-12.08-1.1h11.77l3.43-5.43H136.62Z" style="fill:#263238"></path><polygon points="308.8 416.77 295.09 416.77 297.16 423.3 311.44 423.3 308.8 416.77" style="fill:#fff"></polygon><path d="M311.44,423.85H297.16a.55.55,0,0,1-.52-.38l-2.07-6.53a.57.57,0,0,1,.08-.49.54.54,0,0,1,.44-.22H308.8a.53.53,0,0,1,.5.34l2.65,6.52a.56.56,0,0,1-.51.76Zm-13.88-1.1h13.07l-2.2-5.43H295.84Z" style="fill:#263238"></path><polygon points="344.13 416.77 348.27 423.3 361.8 423.3 357.11 416.77 344.13 416.77" style="fill:#fff"></polygon><path d="M361.79,423.85H348.27a.54.54,0,0,1-.46-.26l-4.14-6.52a.54.54,0,0,1,.46-.84h13a.54.54,0,0,1,.44.22l4.69,6.53a.54.54,0,0,1,0,.57A.55.55,0,0,1,361.79,423.85Zm-13.22-1.1h12.16l-3.9-5.43h-11.7Z" style="fill:#263238"></path><polygon points="325.14 416.77 311.44 416.77 314.2 423.3 328.48 423.3 325.14 416.77" style="fill:#fff"></polygon><path d="M328.48,423.85H314.2a.55.55,0,0,1-.51-.34L310.93,417a.55.55,0,0,1,.51-.76h13.7a.54.54,0,0,1,.49.29l3.33,6.53a.55.55,0,0,1,0,.54A.54.54,0,0,1,328.48,423.85Zm-13.92-1.1h13l-2.77-5.43H312.27Z" style="fill:#263238"></path><polygon points="341.49 416.77 327.79 416.77 331.23 423.3 345.51 423.3 341.49 416.77" style="fill:#fff"></polygon><path d="M345.51,423.85H331.23a.54.54,0,0,1-.48-.29L327.3,417a.55.55,0,0,1,.49-.8h13.7a.52.52,0,0,1,.46.26l4,6.52a.56.56,0,0,1,0,.56A.55.55,0,0,1,345.51,423.85Zm-13.95-1.1h13l-3.35-5.43H328.69Z" style="fill:#263238"></path><polygon points="230.36 410.21 218.13 410.21 216.99 416.18 229.72 416.18 230.36 410.21" style="fill:#fff"></polygon><path d="M229.72,416.73H217a.56.56,0,0,1-.42-.2.53.53,0,0,1-.12-.45l1.14-6a.55.55,0,0,1,.54-.44h12.23a.59.59,0,0,1,.41.18.56.56,0,0,1,.13.43l-.64,6A.54.54,0,0,1,229.72,416.73Zm-12.07-1.1h11.58l.52-4.88H218.58Z" style="fill:#263238"></path><polygon points="259.89 410.21 247.66 410.21 247.71 416.18 260.44 416.18 259.89 410.21" style="fill:#fff"></polygon><path d="M260.44,416.73H247.71a.54.54,0,0,1-.54-.55l-.06-6a.54.54,0,0,1,.16-.39.55.55,0,0,1,.39-.16h12.23a.54.54,0,0,1,.54.5l.56,6a.56.56,0,0,1-.15.42A.55.55,0,0,1,260.44,416.73Zm-12.18-1.1h11.58l-.45-4.88H248.21Z" style="fill:#263238"></path><polygon points="215.59 410.21 203.36 410.21 201.63 416.18 214.36 416.18 215.59 410.21" style="fill:#fff"></polygon><path d="M214.36,416.73H201.63a.56.56,0,0,1-.44-.22.59.59,0,0,1-.09-.48l1.74-6a.54.54,0,0,1,.52-.39h12.23a.54.54,0,0,1,.43.2.58.58,0,0,1,.11.46l-1.24,6A.55.55,0,0,1,214.36,416.73Zm-12-1.1h11.55l1-4.88H203.77Z" style="fill:#263238"></path><polygon points="186.06 410.21 173.83 410.21 170.91 416.18 183.63 416.18 186.06 410.21" style="fill:#fff"></polygon><path d="M183.63,416.73H170.91a.56.56,0,0,1-.47-.26.53.53,0,0,1,0-.53l2.92-6a.54.54,0,0,1,.49-.31h12.24a.54.54,0,0,1,.5.75l-2.43,6A.55.55,0,0,1,183.63,416.73Zm-11.84-1.1h11.48l2-4.88H174.17Z" style="fill:#263238"></path><polygon points="155.55 416.18 168.27 416.18 171.3 410.21 159.07 410.21 155.55 416.18" style="fill:#fff"></polygon><path d="M168.27,416.73H155.55a.56.56,0,0,1-.48-.28.54.54,0,0,1,0-.55l3.52-6a.52.52,0,0,1,.47-.27H171.3a.56.56,0,0,1,.47.26.55.55,0,0,1,0,.54l-3,6A.55.55,0,0,1,168.27,416.73Zm-11.76-1.1h11.43l2.47-4.88h-11Z" style="fill:#263238"></path><polygon points="200.83 410.21 188.6 410.21 186.27 416.18 199 416.18 200.83 410.21" style="fill:#fff"></polygon><path d="M199,416.73H186.27a.54.54,0,0,1-.45-.24.52.52,0,0,1-.06-.51l2.33-6a.54.54,0,0,1,.51-.35h12.23a.54.54,0,0,1,.44.22.57.57,0,0,1,.08.49l-1.83,6A.55.55,0,0,1,199,416.73Zm-11.93-1.1h11.52l1.5-4.88H189Z" style="fill:#263238"></path><polygon points="245.12 410.21 232.89 410.21 232.35 416.18 245.08 416.18 245.12 410.21" style="fill:#fff"></polygon><path d="M245.08,416.73H232.35a.55.55,0,0,1-.4-.18.51.51,0,0,1-.14-.42l.54-6a.54.54,0,0,1,.54-.5h12.23a.55.55,0,0,1,.39.16.53.53,0,0,1,.16.39l0,6A.56.56,0,0,1,245.08,416.73ZM233,415.63h11.59l0-4.88H233.39Z" style="fill:#263238"></path><polygon points="156.54 410.21 141.01 410.21 136.76 416.18 152.91 416.18 156.54 410.21" style="fill:#fff"></polygon><path d="M152.91,416.73H136.76a.55.55,0,0,1-.45-.87l4.25-6a.57.57,0,0,1,.45-.23h15.53a.54.54,0,0,1,.47.28.52.52,0,0,1,0,.55l-3.62,6A.55.55,0,0,1,152.91,416.73Zm-15.09-1.1H152.6l3-4.88H141.29Z" style="fill:#263238"></path><polygon points="318.95 410.21 306.71 410.21 309.16 416.18 321.88 416.18 318.95 410.21" style="fill:#fff"></polygon><path d="M321.88,416.73H309.16a.55.55,0,0,1-.51-.34l-2.44-6a.54.54,0,0,1,.5-.75H319a.55.55,0,0,1,.49.3l2.94,6a.55.55,0,0,1-.5.79Zm-12.36-1.1H321l-2.39-4.88H307.53Z" style="fill:#263238"></path><polygon points="321.48 410.21 324.52 416.18 356.68 416.18 352.39 410.21 321.48 410.21" style="fill:#fff"></polygon><path d="M356.68,416.73H324.52a.55.55,0,0,1-.49-.3l-3-6a.55.55,0,0,1,0-.54.56.56,0,0,1,.47-.26h30.91a.55.55,0,0,1,.45.23l4.29,6a.56.56,0,0,1,0,.57A.55.55,0,0,1,356.68,416.73Zm-31.83-1.1h30.76l-3.5-4.88H322.37Z" style="fill:#263238"></path><polygon points="274.65 410.21 262.42 410.21 263.07 416.18 275.8 416.18 274.65 410.21" style="fill:#fff"></polygon><path d="M275.8,416.73H263.07a.54.54,0,0,1-.54-.49l-.65-6a.56.56,0,0,1,.13-.43.58.58,0,0,1,.41-.18h12.23a.55.55,0,0,1,.54.44l1.15,6a.53.53,0,0,1-.12.45A.56.56,0,0,1,275.8,416.73Zm-12.23-1.1h11.57l-.94-4.88H263Z" style="fill:#263238"></path><polygon points="289.42 410.21 277.18 410.21 278.44 416.18 291.16 416.18 289.42 410.21" style="fill:#fff"></polygon><path d="M291.16,416.73H278.43a.54.54,0,0,1-.53-.44l-1.25-6a.55.55,0,0,1,.11-.46.53.53,0,0,1,.42-.2h12.24a.55.55,0,0,1,.52.39l1.75,6a.55.55,0,0,1-.09.48A.54.54,0,0,1,291.16,416.73Zm-12.28-1.1h11.55L289,410.75H277.86Z" style="fill:#263238"></path><polygon points="304.18 410.21 291.95 410.21 293.8 416.18 306.52 416.18 304.18 410.21" style="fill:#fff"></polygon><path d="M306.52,416.73H293.8a.56.56,0,0,1-.53-.39l-1.85-6a.54.54,0,0,1,.09-.49.53.53,0,0,1,.44-.22h12.23a.54.54,0,0,1,.51.35l2.34,6a.54.54,0,0,1,0,.51A.57.57,0,0,1,306.52,416.73Zm-12.32-1.1h11.52l-1.91-4.88H292.69Z" style="fill:#263238"></path><polygon points="238.11 404.18 226.34 404.18 225.57 409.66 237.8 409.66 238.11 404.18" style="fill:#fff"></polygon><path d="M237.8,410.21H225.57a.55.55,0,0,1-.41-.19.57.57,0,0,1-.13-.43l.77-5.49a.55.55,0,0,1,.54-.47h11.77a.54.54,0,0,1,.4.17.56.56,0,0,1,.15.41l-.31,5.48A.56.56,0,0,1,237.8,410.21Zm-11.6-1.1h11.08l.25-4.39H226.82Z" style="fill:#263238"></path><polygon points="252.31 404.18 240.54 404.18 240.32 409.66 252.55 409.66 252.31 404.18" style="fill:#fff"></polygon><path d="M252.55,410.21H240.32a.52.52,0,0,1-.39-.17.55.55,0,0,1-.16-.4l.22-5.49a.56.56,0,0,1,.55-.52h11.77a.55.55,0,0,1,.55.52l.23,5.49a.5.5,0,0,1-.15.4A.52.52,0,0,1,252.55,410.21Zm-11.66-1.1H252l-.19-4.39H241.07Z" style="fill:#263238"></path><polygon points="223.91 404.18 212.14 404.18 210.83 409.66 223.05 409.66 223.91 404.18" style="fill:#fff"></polygon><path d="M223.05,410.21H210.83a.55.55,0,0,1-.43-.21.53.53,0,0,1-.11-.47l1.32-5.48a.54.54,0,0,1,.53-.42h11.77a.55.55,0,0,1,.42.19.54.54,0,0,1,.13.44l-.87,5.49A.55.55,0,0,1,223.05,410.21Zm-11.53-1.1h11.06l.69-4.39H212.58Z" style="fill:#263238"></path><polygon points="209.72 404.18 197.95 404.18 196.08 409.66 208.3 409.66 209.72 404.18" style="fill:#fff"></polygon><path d="M208.3,410.21H196.08a.55.55,0,0,1-.45-.23.54.54,0,0,1-.07-.49l1.87-5.49a.54.54,0,0,1,.52-.37h11.77a.55.55,0,0,1,.43.21.56.56,0,0,1,.1.47l-1.42,5.49A.55.55,0,0,1,208.3,410.21Zm-11.46-1.1h11l1.13-4.39H198.34Z" style="fill:#263238"></path><polygon points="195.52 404.18 183.75 404.18 181.33 409.66 193.56 409.66 195.52 404.18" style="fill:#fff"></polygon><path d="M193.56,410.21H181.33a.54.54,0,0,1-.46-.25.53.53,0,0,1,0-.52l2.42-5.48a.54.54,0,0,1,.5-.33h11.77a.55.55,0,0,1,.45.23.55.55,0,0,1,.06.5l-2,5.49A.55.55,0,0,1,193.56,410.21Zm-11.39-1.1h11l1.57-4.39H184.1Z" style="fill:#263238"></path><polygon points="166.58 409.66 178.81 409.66 181.32 404.18 169.55 404.18 166.58 409.66" style="fill:#fff"></polygon><path d="M178.81,410.21H166.58a.55.55,0,0,1-.48-.81l3-5.48a.54.54,0,0,1,.48-.29h11.77a.53.53,0,0,1,.46.25.56.56,0,0,1,0,.52l-2.51,5.49A.56.56,0,0,1,178.81,410.21Zm-11.31-1.1h11l2-4.39H169.88Z" style="fill:#263238"></path><polygon points="266.51 404.18 254.74 404.18 255.07 409.66 267.3 409.66 266.51 404.18" style="fill:#fff"></polygon><path d="M267.29,410.21H255.07a.56.56,0,0,1-.55-.51l-.33-5.49a.55.55,0,0,1,.55-.58h11.77a.55.55,0,0,1,.54.47l.79,5.48a.58.58,0,0,1-.13.44A.57.57,0,0,1,267.29,410.21Zm-11.71-1.1h11.08l-.62-4.39H255.32Z" style="fill:#263238"></path><polygon points="167.12 404.18 145.3 404.18 141.4 409.66 164.06 409.66 167.12 404.18" style="fill:#fff"></polygon><path d="M164.06,410.21H141.4a.53.53,0,0,1-.49-.3.56.56,0,0,1,0-.57l3.91-5.48a.52.52,0,0,1,.44-.23h21.82a.55.55,0,0,1,.48.81l-3.06,5.49A.56.56,0,0,1,164.06,410.21Zm-21.6-1.1h21.28l2.45-4.39H145.58Z" style="fill:#263238"></path><polygon points="337.5 404.18 325.73 404.18 328.81 409.66 341.03 409.66 337.5 404.18" style="fill:#fff"></polygon><path d="M341,410.21H328.81a.56.56,0,0,1-.48-.28l-3.08-5.49a.55.55,0,0,1,.48-.81H337.5a.53.53,0,0,1,.46.25l3.54,5.49a.56.56,0,0,1-.47.84Zm-11.9-1.1H340l-2.83-4.39H326.67Z" style="fill:#263238"></path><polygon points="280.71 404.18 268.94 404.18 269.82 409.66 282.04 409.66 280.71 404.18" style="fill:#fff"></polygon><path d="M282,410.21H269.82a.55.55,0,0,1-.54-.46l-.88-5.49a.54.54,0,0,1,.12-.44.57.57,0,0,1,.42-.19h11.77a.54.54,0,0,1,.53.42l1.34,5.48a.53.53,0,0,1-.11.47A.55.55,0,0,1,282,410.21Zm-11.76-1.1h11.07l-1.07-4.39h-10.7Z" style="fill:#263238"></path><polygon points="323.3 404.18 311.53 404.18 314.06 409.66 326.29 409.66 323.3 404.18" style="fill:#fff"></polygon><path d="M326.29,410.21H314.06a.56.56,0,0,1-.5-.32L311,404.41a.55.55,0,0,1,0-.53.54.54,0,0,1,.46-.25H323.3a.58.58,0,0,1,.49.28l3,5.49a.55.55,0,0,1-.48.81Zm-11.88-1.1h11L323,404.72H312.39Z" style="fill:#263238"></path><polygon points="294.91 404.18 283.14 404.18 284.56 409.66 296.79 409.66 294.91 404.18" style="fill:#fff"></polygon><path d="M296.79,410.21H284.56a.56.56,0,0,1-.53-.41l-1.42-5.49a.53.53,0,0,1,.09-.47.58.58,0,0,1,.44-.21h11.77a.54.54,0,0,1,.51.37l1.89,5.48a.55.55,0,0,1-.07.5A.57.57,0,0,1,296.79,410.21Zm-11.8-1.1h11l-1.5-4.39H283.84Z" style="fill:#263238"></path><polygon points="309.11 404.18 297.33 404.18 299.31 409.66 311.54 409.66 309.11 404.18" style="fill:#fff"></polygon><path d="M311.54,410.21H299.31a.54.54,0,0,1-.51-.36l-2-5.49a.55.55,0,0,1,.51-.73h11.78a.56.56,0,0,1,.5.32l2.43,5.49a.56.56,0,0,1,0,.52A.54.54,0,0,1,311.54,410.21Zm-11.84-1.1h11l-1.95-4.39H298.11Z" style="fill:#263238"></path><polygon points="221.88 403.67 233.37 403.67 233.83 398.62 222.75 398.62 221.88 403.67" style="fill:#fff"></polygon><path d="M233.37,404.22H221.88a.55.55,0,0,1-.42-.19.57.57,0,0,1-.12-.45l.87-5.06a.54.54,0,0,1,.54-.45h11.08a.54.54,0,0,1,.41.18.57.57,0,0,1,.14.42l-.46,5.05A.55.55,0,0,1,233.37,404.22Zm-10.84-1.09h10.34l.36-4h-10Z" style="fill:#263238"></path><polygon points="207.97 403.67 219.46 403.67 220.42 398.62 209.33 398.62 207.97 403.67" style="fill:#fff"></polygon><path d="M219.46,404.22H208a.54.54,0,0,1-.53-.69l1.37-5.06a.55.55,0,0,1,.52-.4h11.09a.55.55,0,0,1,.42.2.55.55,0,0,1,.11.45l-.95,5.06A.56.56,0,0,1,219.46,404.22Zm-10.78-1.09H219l.76-4h-10Z" style="fill:#263238"></path><polygon points="235.79 403.67 247.28 403.67 247.25 398.62 236.16 398.62 235.79 403.67" style="fill:#fff"></polygon><path d="M247.28,404.22H235.79a.53.53,0,0,1-.54-.59l.37-5.05a.55.55,0,0,1,.54-.51h11.09a.54.54,0,0,1,.54.54l0,5.06a.51.51,0,0,1-.16.39A.55.55,0,0,1,247.28,404.22Zm-10.9-1.09h10.35l0-4h-10Z" style="fill:#263238"></path><polygon points="166.23 403.67 177.72 403.67 180.17 398.62 169.09 398.62 166.23 403.67" style="fill:#fff"></polygon><path d="M177.72,404.22H166.23a.55.55,0,0,1-.48-.27.54.54,0,0,1,0-.55l2.86-5a.56.56,0,0,1,.48-.28h11.08a.57.57,0,0,1,.47.26.53.53,0,0,1,0,.53l-2.45,5.05A.54.54,0,0,1,177.72,404.22Zm-10.55-1.09h10.21l1.92-4h-9.89Z" style="fill:#263238"></path><polygon points="180.14 403.67 191.63 403.67 193.59 398.62 182.5 398.62 180.14 403.67" style="fill:#fff"></polygon><path d="M191.63,404.22H180.14a.53.53,0,0,1-.46-.25.56.56,0,0,1,0-.53l2.37-5.06a.54.54,0,0,1,.49-.31h11.09a.54.54,0,0,1,.45.24.56.56,0,0,1,.06.5l-2,5.06A.54.54,0,0,1,191.63,404.22ZM181,403.13h10.26l1.53-4h-9.94Z" style="fill:#263238"></path><polygon points="249.7 403.67 261.2 403.67 260.66 398.62 249.58 398.62 249.7 403.67" style="fill:#fff"></polygon><path d="M261.2,404.22H249.7a.54.54,0,0,1-.54-.53l-.13-5.06a.55.55,0,0,1,.55-.56h11.08a.55.55,0,0,1,.55.49l.53,5.06a.54.54,0,0,1-.13.42A.55.55,0,0,1,261.2,404.22Zm-11-1.09h10.35l-.42-4h-10Z" style="fill:#263238"></path><polygon points="194.05 403.67 205.54 403.67 207 398.62 195.92 398.62 194.05 403.67" style="fill:#fff"></polygon><path d="M205.55,404.22h-11.5a.54.54,0,0,1-.51-.74l1.87-5.05a.53.53,0,0,1,.51-.36H207a.55.55,0,0,1,.53.7l-1.46,5.06A.55.55,0,0,1,205.55,404.22Zm-10.71-1.09h10.29l1.14-4h-10Z" style="fill:#263238"></path><path d="M344.07,398.62H332.4l3.2,5.05h2.85a1.46,1.46,0,0,1,1.06.35l3.75,5.7h8.6Z" style="fill:#fff"></path><path d="M351.86,410.27h-8.6a.55.55,0,0,1-.45-.25l-3.75-5.7h0a2,2,0,0,0-.6-.1H335.6a.54.54,0,0,1-.46-.25l-3.2-5.06a.56.56,0,0,1,0-.56.57.57,0,0,1,.48-.28h11.67a.56.56,0,0,1,.45.23l7.79,11.1a.56.56,0,0,1,0,.57A.57.57,0,0,1,351.86,410.27Zm-8.3-1.1h7.25l-7-10H333.4l2.5,4h2.55a1.94,1.94,0,0,1,1.52.59Z" style="fill:#263238"></path><polygon points="305.36 403.67 316.85 403.67 314.32 398.62 303.24 398.62 305.36 403.67" style="fill:#fff"></polygon><path d="M316.85,404.22H305.36a.56.56,0,0,1-.51-.33l-2.11-5.06a.54.54,0,0,1,0-.52.57.57,0,0,1,.46-.24h11.08a.55.55,0,0,1,.49.3l2.53,5.06a.53.53,0,0,1,0,.53A.56.56,0,0,1,316.85,404.22Zm-11.13-1.09H316l-2-4h-9.92Z" style="fill:#263238"></path><polygon points="319.27 403.67 333.18 403.67 330.07 398.62 316.66 398.62 319.27 403.67" style="fill:#fff"></polygon><path d="M333.18,404.22H319.27a.54.54,0,0,1-.49-.3l-2.61-5.05a.55.55,0,0,1,.49-.8h13.41a.56.56,0,0,1,.47.26l3.11,5.06a.54.54,0,0,1,0,.55A.56.56,0,0,1,333.18,404.22Zm-13.58-1.09h12.6l-2.43-4H317.56Z" style="fill:#263238"></path><polygon points="145.66 403.67 163.81 403.67 166.76 398.62 149.26 398.62 145.66 403.67" style="fill:#fff"></polygon><path d="M163.81,404.22H145.66a.55.55,0,0,1-.45-.86l3.6-5.06a.56.56,0,0,1,.45-.23h17.5a.55.55,0,0,1,.47.82L164.28,404A.55.55,0,0,1,163.81,404.22Zm-17.09-1.09h16.77l2.31-4H149.54Z" style="fill:#263238"></path><polygon points="263.62 403.67 275.11 403.67 274.08 398.62 263 398.62 263.62 403.67" style="fill:#fff"></polygon><path d="M275.11,404.22H263.62a.55.55,0,0,1-.55-.48l-.62-5.06a.57.57,0,0,1,.13-.43.6.6,0,0,1,.42-.18h11.08a.54.54,0,0,1,.53.44l1,5.05a.57.57,0,0,1-.11.46A.55.55,0,0,1,275.11,404.22Zm-11-1.09h10.34l-.81-4h-10Z" style="fill:#263238"></path><polygon points="291.44 403.67 302.94 403.67 300.91 398.62 289.83 398.62 291.44 403.67" style="fill:#fff"></polygon><path d="M302.94,404.22h-11.5a.55.55,0,0,1-.52-.38l-1.62-5.06a.58.58,0,0,1,.08-.49.56.56,0,0,1,.45-.22h11.08a.57.57,0,0,1,.51.34l2,5.06a.58.58,0,0,1-.06.51A.54.54,0,0,1,302.94,404.22Zm-11.1-1.09h10.29l-1.59-4h-10Z" style="fill:#263238"></path><polygon points="277.53 403.67 289.02 403.67 287.49 398.62 276.41 398.62 277.53 403.67" style="fill:#fff"></polygon><path d="M289,404.22H277.53a.54.54,0,0,1-.53-.43l-1.12-5.05a.56.56,0,0,1,.1-.47.55.55,0,0,1,.43-.2h11.08a.56.56,0,0,1,.53.39l1.53,5.05a.54.54,0,0,1-.09.49A.53.53,0,0,1,289,404.22Zm-11-1.09h10.32l-1.2-4h-10Z" style="fill:#263238"></path></g><g id="freepik--Device--inject-15--inject-547"><path d="M284.76,342.8V317.61h-74.2V342.8a36.52,36.52,0,0,1-7.88,22.65l-3.25,4.1h96.46l-3.25-4.1A36.46,36.46,0,0,1,284.76,342.8Z" style="fill:#fff"></path><path d="M295.89,370.1H199.43a.57.57,0,0,1-.5-.31.56.56,0,0,1,.07-.58l3.25-4.1A36.1,36.1,0,0,0,210,342.8V317.61a.55.55,0,0,1,.55-.55h74.2a.55.55,0,0,1,.55.55V342.8a36,36,0,0,0,7.76,22.31l3.25,4.1a.55.55,0,0,1,.06.58A.54.54,0,0,1,295.89,370.1ZM200.56,369h94.19l-2.54-3.21a37.17,37.17,0,0,1-8-23V318.16h-73.1V342.8a37.23,37.23,0,0,1-8,23Z" style="fill:#263238"></path><path d="M206,360.45h83.31a36.5,36.5,0,0,1-4.55-17.65V317.61h-74.2V342.8A36.51,36.51,0,0,1,206,360.45Z" style="fill:#904AE9;mix-blend-mode:multiply"></path><rect x="210.56" y="321.4" width="74.2" height="10.64" style="fill:#263238"></rect><path d="M284.76,332.59h-74.2A.55.55,0,0,1,210,332V321.4a.55.55,0,0,1,.55-.55h74.2a.55.55,0,0,1,.55.55V332A.55.55,0,0,1,284.76,332.59Zm-73.65-1.1h73.1V322h-73.1Z" style="fill:#263238"></path><rect x="98.55" y="101.9" width="298.21" height="223.66" rx="9.29" style="fill:#263238"></rect><path d="M387.47,326.1H107.85A9.85,9.85,0,0,1,98,316.26V111.19a9.85,9.85,0,0,1,9.85-9.84H387.47a9.85,9.85,0,0,1,9.84,9.84V316.26A9.85,9.85,0,0,1,387.47,326.1ZM107.85,102.44a8.76,8.76,0,0,0-8.75,8.75V316.26a8.76,8.76,0,0,0,8.75,8.75H387.47a8.77,8.77,0,0,0,8.75-8.75V111.19a8.77,8.77,0,0,0-8.75-8.75Z" style="fill:#263238"></path><path d="M98.55,290.79H396.76a0,0,0,0,1,0,0v25.47a9.29,9.29,0,0,1-9.29,9.29H107.85a9.29,9.29,0,0,1-9.29-9.29V290.79A0,0,0,0,1,98.55,290.79Z" style="fill:#fff"></path><path d="M387.47,326.1H107.85A9.85,9.85,0,0,1,98,316.26V290.79a.55.55,0,0,1,.55-.55H396.76a.55.55,0,0,1,.55.55v25.47A9.85,9.85,0,0,1,387.47,326.1ZM99.1,291.34v24.92a8.76,8.76,0,0,0,8.75,8.75H387.47a8.77,8.77,0,0,0,8.75-8.75V291.34Z" style="fill:#263238"></path><rect x="113.55" y="115.81" width="268.21" height="158.01" style="fill:#904AE9"></rect><path d="M381.76,274.37H113.55a.55.55,0,0,1-.55-.55v-158a.55.55,0,0,1,.55-.55H381.76a.55.55,0,0,1,.55.55v158A.54.54,0,0,1,381.76,274.37ZM114.1,273.28H381.22V116.36H114.1Z" style="fill:#263238"></path><path d="M354.19,239.63H141.34a.5.5,0,0,1-.5-.5v-95.6a.5.5,0,0,1,.5-.5H354.19a.5.5,0,0,1,.5.5v95.6A.51.51,0,0,1,354.19,239.63Zm-212.35-1H353.69V144H141.84Z" style="fill:#fff"></path><path d="M262.64,120.58H116.09a.5.5,0,0,1-.5-.5.5.5,0,0,1,.5-.5h146.4l3.93-2.62a.49.49,0,0,1,.7.14.5.5,0,0,1-.14.69l-4.06,2.7A.47.47,0,0,1,262.64,120.58Z" style="fill:#fff"></path><path d="M318.11,120.58H265.8a.5.5,0,0,1-.5-.5.5.5,0,0,1,.5-.5H318l3.93-2.62a.48.48,0,0,1,.69.14.49.49,0,0,1-.13.69l-4.06,2.7A.47.47,0,0,1,318.11,120.58Z" style="fill:#fff"></path><path d="M374.93,120.58H322.62a.5.5,0,0,1-.5-.5.5.5,0,0,1,.5-.5h52.16l3.93-2.62a.48.48,0,0,1,.69.14.49.49,0,0,1-.14.69l-4.05,2.7A.49.49,0,0,1,374.93,120.58Z" style="fill:#fff"></path><circle cx="146.53" cy="136.99" r="1.58" style="fill:#fff"></circle><circle cx="153.97" cy="136.99" r="1.58" style="fill:#fff"></circle><circle cx="161.41" cy="136.99" r="1.58" style="fill:#fff"></circle><polygon points="367.56 232.11 357.95 226.56 357.95 237.66 367.56 232.11" style="fill:#fff"></polygon><polygon points="128.48 232.11 138.09 226.56 138.09 237.66 128.48 232.11" style="fill:#fff"></polygon><path d="M253.16,308.17a5.5,5.5,0,1,0-5.5,5.5A5.5,5.5,0,0,0,253.16,308.17Z" style="fill:#263238"></path><path d="M247.66,314.22a6.05,6.05,0,1,1,6.05-6.05A6.05,6.05,0,0,1,247.66,314.22Zm0-11a4.95,4.95,0,1,0,5,4.95A5,5,0,0,0,247.66,303.22Z" style="fill:#263238"></path><rect x="199.43" y="369.55" width="96.48" height="4.5" style="fill:#fff"></rect><path d="M295.91,374.6H199.43a.55.55,0,0,1-.55-.55v-4.5a.55.55,0,0,1,.55-.55h96.48a.55.55,0,0,1,.55.55v4.5A.55.55,0,0,1,295.91,374.6ZM200,373.5h95.38v-3.4H200Z" style="fill:#263238"></path></g></svg>