<!-- taken from evericons -->
<svg width="32" height="32" viewBox="0 0 32 32" fill="none" xmlns="http://www.w3.org/2000/svg">
<path fill-rule="evenodd" clip-rule="evenodd" d="M22.6667 4V6.66667H30.6667V4H22.6667ZM1.33334 9.33333V12H9.33334V9.33333H1.33334ZM1.33334 17.3333V14.6667H9.33334V17.3333H1.33334ZM1.33334 20V22.6667H9.33334V20H1.33334ZM1.33334 25.3333V28H9.33334V25.3333H1.33334ZM12 28V25.3333H20V28H12ZM12 20V22.6667H20V20H12ZM12 17.3333V14.6667H20V17.3333H12ZM22.6667 25.3333V28H30.6667V25.3333H22.6667ZM22.6667 22.6667V20H30.6667V22.6667H22.6667ZM22.6667 14.6667V17.3333H30.6667V14.6667H22.6667ZM22.6667 12V9.33333H30.6667V12H22.6667Z" fill="#904AE9"/>
</svg>
