<svg xmlns="http://www.w3.org/2000/svg" viewBox="0 0 500 500"><g id="freepik--background-simple--inject-413"><path d="M478,378s27-60,6-152S325,23,240,34s-59,110-87,155S36,230,22,306s96,180,258,171S478,378,478,378Z" style="fill:#904AE9"></path><path d="M478,378s27-60,6-152S325,23,240,34s-59,110-87,155S36,230,22,306s96,180,258,171S478,378,478,378Z" style="fill:#fff;opacity:0.7000000000000001"></path></g><g id="freepik--Piano--inject-413"><rect x="152.11" y="323.04" width="4.71" height="115.32" style="fill:#263238;stroke:#263238;stroke-linecap:round;stroke-linejoin:round"></rect><rect x="172.37" y="323.04" width="4.71" height="115.32" style="fill:#263238;stroke:#263238;stroke-linecap:round;stroke-linejoin:round"></rect><rect x="146.46" y="436" width="32.04" height="7.54" style="fill:#263238;stroke:#263238;stroke-linecap:round;stroke-linejoin:round"></rect><path d="M381.49,260.38c10.61-9.69,39.84-38.53,32.09-55.59-9.42-20.73-51.82-12.72-83.39-14.13s-49.93-23.56-49.93-23.56L299.57,128H247.75L169.63,260.38Z" style="fill:#263238;stroke:#263238;stroke-linecap:round;stroke-linejoin:round"></path><polygon points="251.91 195.05 154.62 195.05 126.05 260.96 223.34 260.96 251.91 195.05" style="fill:#515b60;stroke:#263238;stroke-linecap:round;stroke-linejoin:round"></polygon><polygon points="241.1 203.05 157.32 203.05 133.05 259.05 216.83 259.05 241.1 203.05" style="fill:#fff"></polygon><line x1="200.34" y1="207.97" x2="235.98" y2="207.97" style="fill:none;stroke:#263238;stroke-miterlimit:10"></line><line x1="198.85" y1="210.53" x2="234.49" y2="210.53" style="fill:none;stroke:#263238;stroke-miterlimit:10"></line><line x1="196.27" y1="217.28" x2="231.9" y2="217.28" style="fill:none;stroke:#263238;stroke-miterlimit:10"></line><line x1="194.78" y1="219.84" x2="230.42" y2="219.84" style="fill:none;stroke:#263238;stroke-miterlimit:10"></line><line x1="192.2" y1="226.59" x2="227.83" y2="226.59" style="fill:none;stroke:#263238;stroke-miterlimit:10"></line><line x1="190.71" y1="229.15" x2="226.34" y2="229.15" style="fill:none;stroke:#263238;stroke-miterlimit:10"></line><line x1="188.12" y1="235.9" x2="223.76" y2="235.9" style="fill:none;stroke:#263238;stroke-miterlimit:10"></line><line x1="186.63" y1="238.46" x2="222.27" y2="238.46" style="fill:none;stroke:#263238;stroke-miterlimit:10"></line><line x1="184.05" y1="245.21" x2="219.68" y2="245.21" style="fill:none;stroke:#263238;stroke-miterlimit:10"></line><line x1="182.56" y1="247.77" x2="218.2" y2="247.77" style="fill:none;stroke:#263238;stroke-miterlimit:10"></line><line x1="179.98" y1="254.52" x2="215.61" y2="254.52" style="fill:none;stroke:#263238;stroke-miterlimit:10"></line><line x1="178.49" y1="257.08" x2="214.12" y2="257.08" style="fill:none;stroke:#263238;stroke-miterlimit:10"></line><line x1="160.22" y1="207.97" x2="195.85" y2="207.97" style="fill:none;stroke:#263238;stroke-miterlimit:10"></line><line x1="158.73" y1="210.53" x2="194.36" y2="210.53" style="fill:none;stroke:#263238;stroke-miterlimit:10"></line><line x1="156.14" y1="217.28" x2="191.78" y2="217.28" style="fill:none;stroke:#263238;stroke-miterlimit:10"></line><line x1="154.65" y1="219.84" x2="190.29" y2="219.84" style="fill:none;stroke:#263238;stroke-miterlimit:10"></line><line x1="152.07" y1="226.59" x2="187.7" y2="226.59" style="fill:none;stroke:#263238;stroke-miterlimit:10"></line><line x1="150.58" y1="229.15" x2="186.21" y2="229.15" style="fill:none;stroke:#263238;stroke-miterlimit:10"></line><line x1="147.99" y1="235.9" x2="183.63" y2="235.9" style="fill:none;stroke:#263238;stroke-miterlimit:10"></line><line x1="146.51" y1="238.46" x2="182.14" y2="238.46" style="fill:none;stroke:#263238;stroke-miterlimit:10"></line><line x1="143.92" y1="245.21" x2="179.56" y2="245.21" style="fill:none;stroke:#263238;stroke-miterlimit:10"></line><line x1="142.43" y1="247.77" x2="178.07" y2="247.77" style="fill:none;stroke:#263238;stroke-miterlimit:10"></line><line x1="139.85" y1="254.52" x2="175.48" y2="254.52" style="fill:none;stroke:#263238;stroke-miterlimit:10"></line><line x1="138.36" y1="257.08" x2="173.99" y2="257.08" style="fill:none;stroke:#263238;stroke-miterlimit:10"></line><rect x="244.29" y="326.1" width="56.76" height="9.91" style="fill:#3c464c;stroke:#263238;stroke-linecap:round;stroke-linejoin:round"></rect><polygon points="244.29 336 263.72 349.34 279.72 349.34 301.06 336 244.29 336" style="fill:#3c464c;stroke:#263238;stroke-linecap:round;stroke-linejoin:round"></polygon><polygon points="277.15 447.67 266.67 447.67 263.72 349.34 280.1 349.34 277.15 447.67" style="fill:#3c464c;stroke:#263238;stroke-linecap:round;stroke-linejoin:round"></polygon><circle cx="268.29" cy="454.14" r="7.62" style="fill:#676f74;stroke:#263238;stroke-linecap:round;stroke-linejoin:round"></circle><rect x="51.29" y="326.1" width="56.76" height="9.91" style="fill:#263238;stroke:#263238;stroke-linecap:round;stroke-linejoin:round"></rect><polygon points="51.29 336 70.72 349.34 86.72 349.34 108.05 336 51.29 336" style="fill:#263238;stroke:#263238;stroke-linecap:round;stroke-linejoin:round"></polygon><polygon points="84.15 447.67 73.67 447.67 70.72 349.34 87.1 349.34 84.15 447.67" style="fill:#263238;stroke:#263238;stroke-linecap:round;stroke-linejoin:round"></polygon><circle cx="75.29" cy="454.14" r="7.62" style="fill:#676f74;stroke:#263238;stroke-linecap:round;stroke-linejoin:round"></circle><rect x="359.87" y="326.1" width="56.76" height="9.91" style="fill:#3c464c;stroke:#263238;stroke-linecap:round;stroke-linejoin:round"></rect><polygon points="359.87 336 379.3 349.34 395.3 349.34 416.63 336 359.87 336" style="fill:#3c464c;stroke:#263238;stroke-linecap:round;stroke-linejoin:round"></polygon><polygon points="392.73 447.67 382.25 447.67 379.3 349.34 395.68 349.34 392.73 447.67" style="fill:#3c464c;stroke:#263238;stroke-linecap:round;stroke-linejoin:round"></polygon><circle cx="383.87" cy="454.14" r="7.62" style="fill:#676f74;stroke:#263238;stroke-linecap:round;stroke-linejoin:round"></circle><path d="M69.51,266V298.7H47.37a4.55,4.55,0,0,0-4.55,4.55v23.4H254.19V261H74.54A5,5,0,0,0,69.51,266Z" style="fill:#263238;stroke:#263238;stroke-linecap:round;stroke-linejoin:round"></path><path d="M80.5,266V298.7H58.36a4.55,4.55,0,0,0-4.55,4.55v23.4H254.19V261H85.53A5,5,0,0,0,80.5,266Z" style="fill:#263238;stroke:#263238;stroke-linecap:round;stroke-linejoin:round"></path><rect x="80.5" y="261.32" width="182.79" height="65.33" style="fill:#3c464c;stroke:#263238;stroke-linecap:round;stroke-linejoin:round"></rect><line x1="246.96" y1="283" x2="81.23" y2="283" style="fill:none;stroke:#263238;stroke-linecap:round;stroke-linejoin:round"></line><path d="M247.28,266V298.7H225.14a4.56,4.56,0,0,0-4.56,4.55v23.4H421V261H252.3A5,5,0,0,0,247.28,266Z" style="fill:#263238;stroke:#263238;stroke-linecap:round;stroke-linejoin:round"></path><path d="M258.27,266V298.7H236.13a4.56,4.56,0,0,0-4.56,4.55v23.4H449.86a1.88,1.88,0,0,0,1.88-1.88V262.9a1.88,1.88,0,0,0-1.88-1.89H263.3A5,5,0,0,0,258.27,266Z" style="fill:#3c464c;stroke:#263238;stroke-linecap:round;stroke-linejoin:round"></path><rect x="74.52" y="310.23" width="4.57" height="1.28" style="fill:#263238;stroke:#263238;stroke-linecap:round;stroke-linejoin:round"></rect><rect x="80.65" y="310.23" width="4.57" height="1.28" style="fill:#263238;stroke:#263238;stroke-linecap:round;stroke-linejoin:round"></rect><rect x="86.77" y="310.23" width="4.57" height="1.28" style="fill:#263238;stroke:#263238;stroke-linecap:round;stroke-linejoin:round"></rect><rect x="92.89" y="310.23" width="4.57" height="1.28" style="fill:#263238;stroke:#263238;stroke-linecap:round;stroke-linejoin:round"></rect><rect x="99.01" y="310.23" width="4.57" height="1.28" style="fill:#263238;stroke:#263238;stroke-linecap:round;stroke-linejoin:round"></rect><rect x="105.13" y="310.23" width="4.57" height="1.28" style="fill:#263238;stroke:#263238;stroke-linecap:round;stroke-linejoin:round"></rect><rect x="111.25" y="310.23" width="4.57" height="1.28" style="fill:#263238;stroke:#263238;stroke-linecap:round;stroke-linejoin:round"></rect><rect x="117.38" y="310.23" width="4.57" height="1.28" style="fill:#263238;stroke:#263238;stroke-linecap:round;stroke-linejoin:round"></rect><rect x="123.5" y="310.23" width="4.57" height="1.28" style="fill:#263238;stroke:#263238;stroke-linecap:round;stroke-linejoin:round"></rect><rect x="129.62" y="310.23" width="4.57" height="1.28" style="fill:#263238;stroke:#263238;stroke-linecap:round;stroke-linejoin:round"></rect><rect x="135.74" y="310.23" width="4.57" height="1.28" style="fill:#263238;stroke:#263238;stroke-linecap:round;stroke-linejoin:round"></rect><rect x="141.86" y="310.23" width="4.57" height="1.28" style="fill:#263238;stroke:#263238;stroke-linecap:round;stroke-linejoin:round"></rect><rect x="147.98" y="310.23" width="4.57" height="1.28" style="fill:#263238;stroke:#263238;stroke-linecap:round;stroke-linejoin:round"></rect><rect x="154.11" y="310.23" width="4.57" height="1.28" style="fill:#263238;stroke:#263238;stroke-linecap:round;stroke-linejoin:round"></rect><rect x="160.23" y="310.23" width="4.57" height="1.28" style="fill:#263238;stroke:#263238;stroke-linecap:round;stroke-linejoin:round"></rect><rect x="166.35" y="310.23" width="4.57" height="1.28" style="fill:#263238;stroke:#263238;stroke-linecap:round;stroke-linejoin:round"></rect><rect x="172.47" y="310.23" width="4.57" height="1.28" style="fill:#263238;stroke:#263238;stroke-linecap:round;stroke-linejoin:round"></rect><rect x="178.59" y="310.23" width="4.57" height="1.28" style="fill:#263238;stroke:#263238;stroke-linecap:round;stroke-linejoin:round"></rect><rect x="184.72" y="310.23" width="4.57" height="1.28" style="fill:#263238;stroke:#263238;stroke-linecap:round;stroke-linejoin:round"></rect><rect x="190.84" y="310.23" width="4.57" height="1.28" style="fill:#263238;stroke:#263238;stroke-linecap:round;stroke-linejoin:round"></rect><rect x="196.96" y="310.23" width="4.57" height="1.28" style="fill:#263238;stroke:#263238;stroke-linecap:round;stroke-linejoin:round"></rect><rect x="203.08" y="310.23" width="4.57" height="1.28" style="fill:#263238;stroke:#263238;stroke-linecap:round;stroke-linejoin:round"></rect><rect x="209.2" y="310.23" width="4.57" height="1.28" style="fill:#263238;stroke:#263238;stroke-linecap:round;stroke-linejoin:round"></rect><rect x="215.32" y="310.23" width="4.57" height="1.28" style="fill:#263238;stroke:#263238;stroke-linecap:round;stroke-linejoin:round"></rect><rect x="53.81" y="310.95" width="166.77" height="15.7" style="fill:#fff;stroke:#263238;stroke-linecap:round;stroke-linejoin:round"></rect><line x1="57.6" y1="313.02" x2="57.6" y2="311.51" style="fill:none;stroke:#263238;stroke-linecap:round;stroke-linejoin:round"></line><line x1="61.83" y1="313.02" x2="61.83" y2="311.51" style="fill:none;stroke:#263238;stroke-linecap:round;stroke-linejoin:round"></line><line x1="66.06" y1="313.02" x2="66.06" y2="311.51" style="fill:none;stroke:#263238;stroke-linecap:round;stroke-linejoin:round"></line><line x1="70.29" y1="313.02" x2="70.29" y2="311.51" style="fill:none;stroke:#263238;stroke-linecap:round;stroke-linejoin:round"></line><line x1="74.52" y1="313.02" x2="74.52" y2="311.51" style="fill:none;stroke:#263238;stroke-linecap:round;stroke-linejoin:round"></line><line x1="78.75" y1="313.02" x2="78.75" y2="311.51" style="fill:none;stroke:#263238;stroke-linecap:round;stroke-linejoin:round"></line><line x1="82.99" y1="313.02" x2="82.99" y2="311.51" style="fill:none;stroke:#263238;stroke-linecap:round;stroke-linejoin:round"></line><line x1="87.22" y1="313.02" x2="87.22" y2="311.51" style="fill:none;stroke:#263238;stroke-linecap:round;stroke-linejoin:round"></line><line x1="91.45" y1="313.02" x2="91.45" y2="311.51" style="fill:none;stroke:#263238;stroke-linecap:round;stroke-linejoin:round"></line><line x1="95.68" y1="313.02" x2="95.68" y2="311.51" style="fill:none;stroke:#263238;stroke-linecap:round;stroke-linejoin:round"></line><line x1="99.91" y1="313.02" x2="99.91" y2="311.51" style="fill:none;stroke:#263238;stroke-linecap:round;stroke-linejoin:round"></line><line x1="104.14" y1="313.02" x2="104.14" y2="311.51" style="fill:none;stroke:#263238;stroke-linecap:round;stroke-linejoin:round"></line><line x1="108.37" y1="313.02" x2="108.37" y2="311.51" style="fill:none;stroke:#263238;stroke-linecap:round;stroke-linejoin:round"></line><line x1="112.6" y1="313.02" x2="112.6" y2="311.51" style="fill:none;stroke:#263238;stroke-linecap:round;stroke-linejoin:round"></line><line x1="116.83" y1="313.02" x2="116.83" y2="311.51" style="fill:none;stroke:#263238;stroke-linecap:round;stroke-linejoin:round"></line><line x1="121.06" y1="311.51" x2="121.06" y2="313.02" style="fill:none;stroke:#263238;stroke-linecap:round;stroke-linejoin:round"></line><line x1="125.29" y1="313.02" x2="125.29" y2="311.51" style="fill:none;stroke:#263238;stroke-linecap:round;stroke-linejoin:round"></line><line x1="129.53" y1="313.02" x2="129.53" y2="311.51" style="fill:none;stroke:#263238;stroke-linecap:round;stroke-linejoin:round"></line><line x1="133.76" y1="313.02" x2="133.76" y2="311.51" style="fill:none;stroke:#263238;stroke-linecap:round;stroke-linejoin:round"></line><line x1="137.99" y1="313.02" x2="137.99" y2="311.51" style="fill:none;stroke:#263238;stroke-linecap:round;stroke-linejoin:round"></line><line x1="142.22" y1="313.02" x2="142.22" y2="311.51" style="fill:none;stroke:#263238;stroke-linecap:round;stroke-linejoin:round"></line><line x1="146.45" y1="313.02" x2="146.45" y2="311.51" style="fill:none;stroke:#263238;stroke-linecap:round;stroke-linejoin:round"></line><line x1="150.68" y1="313.02" x2="150.68" y2="311.51" style="fill:none;stroke:#263238;stroke-linecap:round;stroke-linejoin:round"></line><line x1="154.91" y1="313.02" x2="154.91" y2="311.51" style="fill:none;stroke:#263238;stroke-linecap:round;stroke-linejoin:round"></line><line x1="159.14" y1="313.02" x2="159.14" y2="311.51" style="fill:none;stroke:#263238;stroke-linecap:round;stroke-linejoin:round"></line><line x1="163.37" y1="313.02" x2="163.37" y2="311.51" style="fill:none;stroke:#263238;stroke-linecap:round;stroke-linejoin:round"></line><line x1="167.6" y1="313.02" x2="167.6" y2="311.51" style="fill:none;stroke:#263238;stroke-linecap:round;stroke-linejoin:round"></line><line x1="171.84" y1="313.02" x2="171.84" y2="311.51" style="fill:none;stroke:#263238;stroke-linecap:round;stroke-linejoin:round"></line><line x1="176.07" y1="313.02" x2="176.07" y2="311.51" style="fill:none;stroke:#263238;stroke-linecap:round;stroke-linejoin:round"></line><line x1="180.3" y1="313.02" x2="180.3" y2="311.51" style="fill:none;stroke:#263238;stroke-linecap:round;stroke-linejoin:round"></line><line x1="184.53" y1="313.02" x2="184.53" y2="311.51" style="fill:none;stroke:#263238;stroke-linecap:round;stroke-linejoin:round"></line><line x1="188.76" y1="313.02" x2="188.76" y2="311.51" style="fill:none;stroke:#263238;stroke-linecap:round;stroke-linejoin:round"></line><line x1="192.99" y1="313.02" x2="192.99" y2="311.51" style="fill:none;stroke:#263238;stroke-linecap:round;stroke-linejoin:round"></line><line x1="197.22" y1="313.02" x2="197.22" y2="311.51" style="fill:none;stroke:#263238;stroke-linecap:round;stroke-linejoin:round"></line><line x1="201.45" y1="313.02" x2="201.45" y2="311.51" style="fill:none;stroke:#263238;stroke-linecap:round;stroke-linejoin:round"></line><line x1="205.68" y1="313.02" x2="205.68" y2="311.51" style="fill:none;stroke:#263238;stroke-linecap:round;stroke-linejoin:round"></line><line x1="209.91" y1="313.02" x2="209.91" y2="311.51" style="fill:none;stroke:#263238;stroke-linecap:round;stroke-linejoin:round"></line><line x1="214.14" y1="313.02" x2="214.14" y2="311.51" style="fill:none;stroke:#263238;stroke-linecap:round;stroke-linejoin:round"></line><line x1="218.38" y1="313.02" x2="218.38" y2="311.51" style="fill:none;stroke:#263238;stroke-linecap:round;stroke-linejoin:round"></line><rect x="53.81" y="313.46" width="166.77" height="13.19" style="fill:#263238;stroke:#263238;stroke-linecap:round;stroke-linejoin:round"></rect></g><g id="freepik--Floor--inject-413"><line x1="15.34" y1="462.54" x2="493" y2="462.54" style="fill:none;stroke:#263238;stroke-linecap:round;stroke-linejoin:round"></line></g></svg>