<svg width="24" height="24" viewBox="0 0 24 24" fill="none" xmlns="http://www.w3.org/2000/svg">
<path fill-rule="evenodd" clip-rule="evenodd" d="M11.5347 6.13535H22.2192C23.1987 6.13535 24 6.93925 24 7.92181V18.6406C24 19.6232 23.1987 20.4271 22.2192 20.4271H11.5347C10.5552 20.4271 9.75389 19.6232 9.75389 18.6406V7.92181C9.75389 6.93925 10.5552 6.13535 11.5347 6.13535ZM11.5347 18.6406H22.2192V7.92181H11.5347V18.6406ZM15.5414 17.7474C16.7701 17.7474 17.7673 16.747 17.7673 15.5143V10.6015H20.4385V8.81504H16.8769V13.7368C16.503 13.4509 16.0489 13.2812 15.5414 13.2812C14.3126 13.2812 13.3154 14.2816 13.3154 15.5143C13.3154 16.747 14.3126 17.7474 15.5414 17.7474ZM6.19236 9.70828H7.97312V22.2135H20.4385V24H7.97312C6.99372 24 6.19236 23.1961 6.19236 22.2135V9.70828Z" fill="black" fill-opacity="0.8"/>
<path d="M8.90382 5.10419H5.0879V8.93233H3.81592V5.10419H0V3.82814H3.81592V0H5.0879V3.82814H8.90382V5.10419Z" fill="black" fill-opacity="0.8"/>
</svg>
