<svg width="24" height="24" viewBox="0 0 24 24" fill="none" xmlns="http://www.w3.org/2000/svg">
<path d="M22.7641 9.7778H21.521C21.2794 8.73793 20.8681 7.74497 20.3038 6.83883L21.1827 5.95993C21.4917 5.65088 21.4917 5.14983 21.1827 4.84074L19.1592 2.81719C18.8502 2.50815 18.3491 2.50815 18.04 2.81719L17.1611 3.6961C16.2549 3.13168 15.262 2.72049 14.2222 2.47894V1.23582C14.2222 1.02591 14.1388 0.824631 13.9904 0.676224C13.842 0.527818 13.6406 0.444427 13.4308 0.444427H10.5691C10.3592 0.444427 10.1579 0.527771 10.0095 0.676224C9.8611 0.824677 9.77771 1.02591 9.77771 1.23582V2.47894C8.73788 2.72049 7.74493 3.13172 6.83879 3.6961L5.95988 2.81719C5.65083 2.50815 5.14974 2.50815 4.84069 2.81719L2.81719 4.84074C2.50815 5.14979 2.50815 5.65088 2.81724 5.95993L3.69615 6.83883C3.13177 7.74497 2.72049 8.73793 2.47894 9.7778H1.23582C1.02591 9.7778 0.824631 9.86115 0.676224 10.0096C0.527818 10.1581 0.444427 10.3593 0.444427 10.5692V13.4309C0.444427 13.6408 0.527818 13.8421 0.676224 13.9905C0.824631 14.1389 1.02596 14.2223 1.23582 14.2223H2.47894C2.72049 15.2621 3.13177 16.255 3.69615 17.1612L2.81724 18.0401C2.50819 18.3491 2.50819 18.8502 2.81724 19.1593L4.84074 21.1828C5.14979 21.4918 5.65088 21.4918 5.95993 21.1828L6.83883 20.3039C7.74497 20.8683 8.73793 21.2795 9.77776 21.5211V22.7642C9.77776 22.9741 9.86115 23.1754 10.0096 23.3238C10.158 23.4722 10.3593 23.5556 10.5691 23.5556H13.4308C13.6407 23.5556 13.842 23.4722 13.9904 23.3238C14.1388 23.1754 14.2222 22.9741 14.2222 22.7642V21.5211C15.262 21.2795 16.255 20.8682 17.1611 20.3039L18.04 21.1828C18.3491 21.4918 18.8502 21.4918 19.1592 21.1828L21.1827 19.1593C21.4918 18.8502 21.4918 18.3491 21.1827 18.0401L20.3038 17.1612C20.8682 16.255 21.2795 15.2621 21.521 14.2223H22.7641C22.9741 14.2223 23.1753 14.1389 23.3237 13.9905C23.4721 13.8421 23.5555 13.6407 23.5555 13.4309V10.5692C23.5555 10.3593 23.4721 10.158 23.3237 10.0096C23.1753 9.86115 22.974 9.77775 22.7641 9.7778Z" fill="#A4C2F7"/>
<path d="M21.4309 9.77785H20.1878C19.9462 8.73797 19.535 7.74502 18.9706 6.83888L19.8495 5.95997C20.1586 5.65093 20.1586 5.14988 19.8495 4.84083L17.826 2.81724C17.5169 2.50819 17.198 3.24657 16.889 3.55561L16.0001 3.11119C15.1065 2.5546 15.2778 2.72447 14.2223 2.47903V1.23591C14.2223 0.798847 13.868 0.444519 13.4309 0.444519H10.5692C10.1322 0.444519 9.77783 0.798847 9.77783 1.23591V2.47903C8.73801 2.72058 7.74505 3.13182 6.83891 3.69619L5.95996 2.81724C5.81155 2.66883 5.61027 2.58544 5.40036 2.58544C5.19046 2.58544 4.98918 2.66883 4.84077 2.81724L2.81727 4.84078C2.66886 4.98919 2.58547 5.19047 2.58547 5.40038C2.58547 5.61028 2.66886 5.81157 2.81727 5.95997L3.69618 6.83888C3.1318 7.74502 2.72052 8.73797 2.47897 9.77785H1.23585C1.02594 9.77785 0.824661 9.86124 0.676255 10.0096C0.527849 10.1581 0.444458 10.3593 0.444458 10.5692V13.4309C0.444458 13.868 0.798786 14.2223 1.23585 14.2223H2.47897C2.72052 15.2621 3.1318 16.2551 3.69618 17.1612L2.81727 18.0401C2.50822 18.3492 2.50822 18.8503 2.81727 19.1593L4.84077 21.1828C5.14982 21.4919 5.65091 21.4919 5.95996 21.1828L6.83886 20.3039C7.74501 20.8683 8.73796 21.2796 9.77779 21.5211V22.7642C9.77779 23.2013 10.1321 23.5556 10.5692 23.5556H13.4309C13.6408 23.5556 13.842 23.4722 13.9904 23.3238C14.1389 23.1754 14.2222 22.9741 14.2222 22.7642V21.5211C15.2778 21.2757 15.1064 21.4455 16 20.889C16.8889 20.6019 17.9104 21.0984 18.7049 20.3039L19.8494 19.1593C20.1585 18.8503 20.1585 18.3492 19.8494 18.0401L18.9705 17.1612C19.5349 16.2551 19.9462 15.2621 20.1877 14.2223H21.4309C21.6408 14.2223 21.8421 14.1389 21.9905 13.9905C22.1389 13.8421 22.2223 13.6408 22.2223 13.4309V10.5692C22.2223 10.3593 22.1389 10.1581 21.9905 10.0096C21.8421 9.86119 21.6408 9.77785 21.4309 9.77785Z" fill="url(#paint0_linear)"/>
<path d="M12 17.7778C15.191 17.7778 17.7778 15.191 17.7778 12C17.7778 8.80902 15.191 6.22223 12 6.22223C8.80905 6.22223 6.22226 8.80902 6.22226 12C6.22226 15.191 8.80905 17.7778 12 17.7778Z" fill="#7988FA"/>
<path d="M1.23582 14.2221H2.47895C2.72054 15.262 3.13177 16.2549 3.69615 17.1611L2.81724 18.04C2.66884 18.1884 2.58545 18.3897 2.58545 18.5995C2.58545 18.8094 2.66879 19.0107 2.8172 19.1591L4.8407 21.1827C5.14974 21.4917 5.65084 21.4917 5.95989 21.1827L6.06695 21.0756L4.15051 19.1591C3.84146 18.8501 3.84146 18.349 4.15051 18.04L5.02946 17.1611C4.46509 16.2549 4.05385 15.262 3.81226 14.2221H2.56913C2.35927 14.2221 2.15794 14.1387 2.00954 13.9903C1.86113 13.8419 1.77774 13.6406 1.77774 13.4307V10.5691C1.77774 10.132 2.13207 9.77763 2.56913 9.77763H3.81226C4.05381 8.7378 4.46504 7.74485 5.02946 6.83871L4.15056 5.9598C3.84151 5.65071 3.84151 5.14961 4.15056 4.84057L5.29515 3.69602C5.58296 3.41182 5.96612 3.2448 6.37023 3.22736L5.95993 2.81711C5.65089 2.50807 5.14979 2.50807 4.84074 2.81711L2.81724 4.84057C2.5082 5.14966 2.5082 5.65075 2.81724 5.9598L3.69615 6.83871C3.13173 7.74485 2.72049 8.73775 2.47895 9.77763H1.23582C0.798709 9.77763 0.444427 10.132 0.444427 10.5691V13.4307C0.444427 13.6406 0.527818 13.8419 0.676225 13.9903C0.824631 14.1387 1.02591 14.2221 1.23582 14.2221Z" fill="white"/>
<path d="M12 16C14.2091 16 16 14.2091 16 12C16 9.79085 14.2091 8 12 8C9.79088 8 8.00003 9.79085 8.00003 12C8.00003 14.2091 9.79088 16 12 16Z" fill="#7988FA"/>
<path d="M12 18.2222C8.56352 18.2222 5.77774 15.4365 5.77774 12C5.77774 8.56355 8.56352 5.77777 12 5.77777C15.4364 5.77777 18.2222 8.56355 18.2222 12C18.2184 15.4349 15.4348 18.2184 12 18.2222ZM12 6.66666C9.05444 6.66666 6.66663 9.05447 6.66663 12C6.66663 14.9455 9.05444 17.3333 12 17.3333C14.9455 17.3333 17.3333 14.9455 17.3333 12C17.3301 9.05583 14.9441 6.6699 12 6.66666Z" fill="#7B66FC"/>
<path d="M13.431 24H10.569C9.88688 23.9993 9.33403 23.4465 9.33333 22.7643V21.8676C8.48484 21.6391 7.66959 21.3015 6.90802 20.8633L6.27431 21.4969C5.78536 21.9642 5.01544 21.9642 4.52648 21.4969L2.50303 19.4735C2.02041 18.9908 2.02041 18.2083 2.50303 17.7256L3.13673 17.0919C2.69845 16.3304 2.36081 15.5151 2.13239 14.6666H1.23567C0.553547 14.6659 0.000703125 14.1131 0 13.431V10.569C0.000703125 9.88688 0.553547 9.33403 1.23567 9.33333H2.13239C2.36058 8.48475 2.69822 7.66945 3.13673 6.90802L2.50303 6.27431C2.02041 5.79164 2.02041 5.00916 2.50303 4.52648L4.52648 2.50303C5.01548 2.03602 5.78531 2.03602 6.27431 2.50303L6.90802 3.13673C7.66959 2.69845 8.48484 2.36086 9.33333 2.13239V1.23567C9.33408 0.553547 9.88688 0.000703125 10.569 0H13.431C14.1131 0.000703125 14.666 0.553547 14.6667 1.23567V2.13239C15.5152 2.36086 16.3304 2.69845 17.092 3.13673L17.7256 2.50303C18.2148 2.03644 18.9843 2.03644 19.4735 2.50303L21.4969 4.52648C21.9795 5.00916 21.9795 5.79164 21.4969 6.27431L20.8633 6.90802C21.3018 7.6695 21.6394 8.4848 21.8676 9.33333H22.7643C23.4465 9.33403 23.9993 9.88688 24 10.569V13.431C23.9993 14.1131 23.4465 14.666 22.7643 14.6667H21.8676C21.6391 15.5152 21.3015 16.3304 20.8633 17.092L21.4969 17.7256C21.9795 18.2083 21.9795 18.9908 21.4969 19.4735L19.4735 21.4969C18.9845 21.9639 18.2146 21.9639 17.7256 21.4969L17.0919 20.8633C16.3304 21.3015 15.5151 21.6391 14.6666 21.8676V22.7643C14.6659 23.4465 14.1131 23.9993 13.431 24ZM6.83897 19.8594C6.92198 19.8593 7.00336 19.8827 7.07377 19.9267C7.93852 20.4653 8.88609 20.8577 9.87844 21.0881C10.0798 21.1348 10.2223 21.3142 10.2222 21.5209V22.7644C10.2223 22.9559 10.3775 23.1111 10.569 23.1112H13.431C13.6224 23.1111 13.7776 22.9559 13.7777 22.7644V21.5209C13.7776 21.3142 13.9201 21.1348 14.1215 21.0881C15.1138 20.8577 16.0614 20.4653 16.9261 19.9267C17.1015 19.8173 17.3291 19.8435 17.4752 19.9897L18.3541 20.8686C18.4897 21.004 18.7094 21.004 18.845 20.8686L20.8684 18.8451C21.0038 18.7095 21.0038 18.4898 20.8684 18.3542L19.9895 17.4753C19.8433 17.3293 19.8172 17.1016 19.9266 16.9263C20.4652 16.0615 20.8576 15.114 21.0881 14.1216C21.1347 13.9203 21.3141 13.7777 21.5208 13.7778H22.7643C22.9558 13.7777 23.111 13.6225 23.1111 13.431V10.569C23.111 10.3776 22.9558 10.2224 22.7643 10.2223H21.5208C21.3141 10.2224 21.1347 10.0799 21.088 9.87853C20.8577 8.88614 20.4653 7.93852 19.9266 7.07386C19.8172 6.8985 19.8433 6.67088 19.9896 6.52481L20.8685 5.64591C21.0039 5.5103 21.0039 5.29064 20.8685 5.15503L18.845 3.13162C18.7094 2.9962 18.4897 2.9962 18.3541 3.13162L17.4752 4.01053C17.3294 4.15711 17.1015 4.18327 16.9262 4.07348C16.0614 3.53489 15.1139 3.14245 14.1215 2.91202C13.9202 2.86538 13.7776 2.68598 13.7778 2.47927V1.23567C13.7777 1.04419 13.6225 0.888984 13.431 0.888891H10.569C10.3775 0.888984 10.2223 1.04419 10.2222 1.23567V2.47917C10.2224 2.68584 10.0798 2.86528 9.87848 2.91192C8.88614 3.14236 7.93852 3.53475 7.07381 4.07334C6.89855 4.18308 6.67064 4.15697 6.52477 4.01039L5.64586 3.13148C5.51025 2.99606 5.29059 2.99606 5.15498 3.13148L3.13153 5.15494C2.99611 5.29055 2.99611 5.5102 3.13153 5.64581L4.01044 6.52472C4.15664 6.67078 4.18275 6.89841 4.07334 7.07377C3.53461 7.93842 3.14217 8.88605 2.91188 9.87844C2.86523 10.0798 2.68584 10.2223 2.47917 10.2222H1.23567C1.04419 10.2223 0.888984 10.3775 0.888891 10.569V13.431C0.888984 13.6225 1.04419 13.7777 1.23567 13.7778H2.47917C2.68584 13.7776 2.86528 13.9202 2.91192 14.1215C3.14236 15.1139 3.53475 16.0615 4.07334 16.9262C4.18275 17.1015 4.15664 17.3292 4.01039 17.4752L3.13148 18.3541C2.99606 18.4897 2.99606 18.7094 3.13148 18.845L5.15494 20.8685C5.29055 21.0039 5.5102 21.0039 5.64581 20.8685L6.52472 19.9896C6.60802 19.9062 6.72108 19.8593 6.83897 19.8594Z" fill="#7B66FC"/>
<path d="M12 16.4444C9.54536 16.4444 7.55551 14.4546 7.55551 12C7.55551 9.54539 9.54536 7.55554 12 7.55554C14.4546 7.55554 16.4444 9.54539 16.4444 12C16.4415 14.4534 14.4534 16.4415 12 16.4444ZM12 8.44443C10.0363 8.44443 8.4444 10.0363 8.4444 12C8.4444 13.9637 10.0363 15.5556 12 15.5556C13.9637 15.5556 15.5555 13.9637 15.5555 12C15.5533 10.0372 13.9627 8.44668 12 8.44443Z" fill="#7B66FC"/>
<defs>
<linearGradient id="paint0_linear" x1="3.49626" y1="4.16312" x2="20.0439" y2="18.8549" gradientUnits="userSpaceOnUse">
<stop stop-color="#D4E1F4"/>
<stop offset="0.1717" stop-color="#D4E1F4"/>
<stop offset="0.2" stop-color="#D4E1F4"/>
<stop offset="0.2001" stop-color="#DAE4F4"/>
<stop offset="0.2007" stop-color="#EBEBF4"/>
<stop offset="0.2014" stop-color="#F6F1F4"/>
<stop offset="0.2023" stop-color="#FDF4F4"/>
<stop offset="0.205" stop-color="#FFF5F4"/>
<stop offset="0.2522" stop-color="#FFF5F4"/>
<stop offset="0.26" stop-color="#D4E1F4"/>
<stop offset="0.3974" stop-color="#D4E1F4"/>
<stop offset="0.42" stop-color="#D4E1F4"/>
<stop offset="0.4201" stop-color="#DAE4F4"/>
<stop offset="0.4207" stop-color="#EBEBF4"/>
<stop offset="0.4214" stop-color="#F6F1F4"/>
<stop offset="0.4223" stop-color="#FDF4F4"/>
<stop offset="0.425" stop-color="#FFF5F4"/>
<stop offset="0.4894" stop-color="#FFF5F4"/>
<stop offset="0.5" stop-color="#F9F2F4"/>
<stop offset="0.5001" stop-color="#E8EBF4"/>
<stop offset="0.5003" stop-color="#DDE5F4"/>
<stop offset="0.5005" stop-color="#D6E2F4"/>
<stop offset="0.501" stop-color="#D4E1F4"/>
<stop offset="0.7062" stop-color="#D4E1F4"/>
<stop offset="0.74" stop-color="#D4E1F4"/>
<stop offset="0.741" stop-color="#FFF5F4"/>
<stop offset="0.8346" stop-color="#FFF5F4"/>
<stop offset="0.85" stop-color="#FFF5F4"/>
<stop offset="0.851" stop-color="#D4E1F4"/>
</linearGradient>
</defs>
</svg>
