<svg width="200" height="125" viewBox="0 0 200 125" fill="none" xmlns="http://www.w3.org/2000/svg">
<rect x="0.15" y="0.15" width="28.2714" height="124.7" rx="8.85" fill="white" stroke="black" stroke-width="0.3"/>
<path d="M19.9809 23.6604C20.2689 23.6604 20.4849 23.7264 20.6289 23.8584C20.7729 23.9904 20.8449 24.1764 20.8449 24.4164C20.8449 24.9324 20.5569 25.1904 19.9809 25.1904H13.9689C13.3809 25.1904 13.0869 24.9324 13.0869 24.4164C13.0869 24.1764 13.1589 23.9904 13.3029 23.8584C13.4589 23.7264 13.6809 23.6604 13.9689 23.6604H16.0389V14.6784L14.1849 15.8484C14.0649 15.9204 13.9449 15.9564 13.8249 15.9564C13.6209 15.9564 13.4409 15.8664 13.2849 15.6864C13.1409 15.5064 13.0689 15.3024 13.0689 15.0744C13.0689 14.7984 13.1889 14.5824 13.4289 14.4264L16.2009 12.6624C16.4769 12.4944 16.7409 12.4104 16.9929 12.4104C17.2569 12.4104 17.4729 12.4944 17.6409 12.6624C17.8089 12.8304 17.8929 13.0584 17.8929 13.3464V23.6604H19.9809Z" fill="black"/>
<rect x="28.7214" y="0.15" width="28.2714" height="124.7" rx="8.85" fill="white" stroke="black" stroke-width="0.3"/>
<path d="M48.9673 23.6604C49.2553 23.6604 49.4713 23.7264 49.6153 23.8584C49.7713 23.9904 49.8493 24.1764 49.8493 24.4164C49.8493 24.9324 49.5553 25.1904 48.9673 25.1904H42.0193C41.7553 25.1904 41.5453 25.1184 41.3893 24.9744C41.2453 24.8184 41.1733 24.6264 41.1733 24.3984C41.1733 24.1224 41.2813 23.8704 41.4973 23.6424L45.7273 19.0164C46.2913 18.4044 46.6993 17.8464 46.9513 17.3424C47.2033 16.8384 47.3293 16.3404 47.3293 15.8484C47.3293 15.2124 47.1433 14.7264 46.7713 14.3904C46.4113 14.0424 45.8953 13.8684 45.2233 13.8684C44.2033 13.8684 43.1893 14.2584 42.1813 15.0384C42.0493 15.1224 41.9353 15.1884 41.8393 15.2364C41.7553 15.2724 41.6653 15.2904 41.5693 15.2904C41.4013 15.2904 41.2573 15.2124 41.1373 15.0564C41.0173 14.9004 40.9573 14.7144 40.9573 14.4984C40.9573 14.1984 41.0773 13.9584 41.3173 13.7784C41.8213 13.3464 42.4273 13.0044 43.1353 12.7524C43.8433 12.4884 44.5573 12.3564 45.2773 12.3564C46.4653 12.3564 47.4073 12.6624 48.1033 13.2744C48.8113 13.8744 49.1653 14.6904 49.1653 15.7224C49.1653 16.4544 49.0033 17.1504 48.6793 17.8104C48.3673 18.4704 47.8393 19.2084 47.0953 20.0244L43.6933 23.6604H48.9673Z" fill="black"/>
<rect x="57.2929" y="0.15" width="28.2714" height="124.7" rx="8.85" fill="white" stroke="black" stroke-width="0.3"/>
<path d="M75.9917 18.6744C76.7597 18.8904 77.3417 19.2624 77.7377 19.7904C78.1337 20.3064 78.3317 20.9604 78.3317 21.7524C78.3317 22.8564 77.9417 23.7264 77.1617 24.3624C76.3937 24.9984 75.3497 25.3164 74.0297 25.3164C73.2497 25.3164 72.4997 25.1904 71.7797 24.9384C71.0717 24.6864 70.4717 24.3384 69.9797 23.8944C69.7397 23.7024 69.6197 23.4624 69.6197 23.1744C69.6197 22.9584 69.6797 22.7784 69.7997 22.6344C69.9197 22.4784 70.0637 22.4004 70.2317 22.4004C70.4117 22.4004 70.6157 22.4784 70.8437 22.6344C71.3597 23.0184 71.8637 23.3124 72.3557 23.5164C72.8597 23.7084 73.3997 23.8044 73.9757 23.8044C75.6797 23.8044 76.5317 23.0784 76.5317 21.6264C76.5317 20.9184 76.3037 20.3904 75.8477 20.0424C75.4037 19.6824 74.7257 19.5024 73.8137 19.5024H72.8237C72.5957 19.5024 72.4157 19.4304 72.2837 19.2864C72.1517 19.1304 72.0857 18.9504 72.0857 18.7464C72.0857 18.5544 72.1517 18.3864 72.2837 18.2424C72.4157 18.0864 72.5957 18.0084 72.8237 18.0084H73.5257C74.4017 18.0084 75.0677 17.8284 75.5237 17.4684C75.9917 17.0964 76.2257 16.5564 76.2257 15.8484C76.2257 15.2244 76.0337 14.7384 75.6497 14.3904C75.2777 14.0424 74.7497 13.8684 74.0657 13.8684C73.0577 13.8684 72.0497 14.2584 71.0417 15.0384C70.8137 15.1944 70.6097 15.2724 70.4297 15.2724C70.2617 15.2724 70.1177 15.2004 69.9977 15.0564C69.8777 14.9004 69.8177 14.7144 69.8177 14.4984C69.8177 14.2104 69.9377 13.9704 70.1777 13.7784C70.6697 13.3344 71.2637 12.9864 71.9597 12.7344C72.6677 12.4824 73.3937 12.3564 74.1377 12.3564C75.3257 12.3564 76.2737 12.6564 76.9817 13.2564C77.6897 13.8564 78.0377 14.6604 78.0257 15.6684C78.0257 16.3644 77.8457 16.9824 77.4857 17.5224C77.1257 18.0504 76.6277 18.4344 75.9917 18.6744Z" fill="black"/>
<rect x="85.8644" y="0.15" width="28.2714" height="124.7" rx="8.85" fill="white" stroke="black" stroke-width="0.3"/>
<path d="M106.289 21.0864C106.877 21.0864 107.171 21.3324 107.171 21.8244C107.171 22.3164 106.877 22.5624 106.289 22.5624H105.137V24.3444C105.137 24.6444 105.053 24.8784 104.885 25.0464C104.717 25.2024 104.495 25.2804 104.219 25.2804C103.955 25.2804 103.739 25.2024 103.571 25.0464C103.403 24.8784 103.319 24.6444 103.319 24.3444V22.5624H98.2612C97.9972 22.5624 97.7932 22.4904 97.6492 22.3464C97.5052 22.2024 97.4332 22.0164 97.4332 21.7884C97.4332 21.5484 97.5112 21.3144 97.6672 21.0864L103.409 12.8244C103.601 12.5484 103.871 12.4104 104.219 12.4104C104.471 12.4104 104.687 12.4944 104.867 12.6624C105.047 12.8184 105.137 13.0464 105.137 13.3464V21.0864H106.289ZM99.4312 21.0864H103.319V15.4704L99.4312 21.0864Z" fill="black"/>
<rect x="114.436" y="0.15" width="28.2714" height="124.7" rx="8.85" fill="white" stroke="black" stroke-width="0.3"/>
<path d="M131.242 17.1624C132.034 17.1624 132.73 17.3304 133.33 17.6664C133.942 18.0024 134.416 18.4764 134.752 19.0884C135.088 19.7004 135.256 20.4024 135.256 21.1944C135.256 21.9984 135.07 22.7124 134.698 23.3364C134.326 23.9604 133.804 24.4464 133.132 24.7944C132.472 25.1424 131.71 25.3164 130.846 25.3164C130.102 25.3164 129.37 25.1904 128.65 24.9384C127.942 24.6864 127.348 24.3384 126.868 23.8944C126.628 23.6904 126.508 23.4504 126.508 23.1744C126.508 22.9584 126.568 22.7784 126.688 22.6344C126.808 22.4784 126.952 22.4004 127.12 22.4004C127.228 22.4004 127.324 22.4184 127.408 22.4544C127.504 22.4904 127.612 22.5504 127.732 22.6344C128.224 23.0184 128.716 23.3124 129.208 23.5164C129.712 23.7084 130.24 23.8044 130.792 23.8044C131.632 23.8044 132.286 23.5824 132.754 23.1384C133.222 22.6824 133.456 22.0464 133.456 21.2304C133.456 20.4504 133.216 19.8264 132.736 19.3584C132.268 18.8904 131.638 18.6564 130.846 18.6564C130.33 18.6564 129.868 18.7464 129.46 18.9264C129.052 19.0944 128.668 19.3644 128.308 19.7364C128.128 19.9044 127.912 19.9884 127.66 19.9884C127.456 19.9884 127.282 19.9284 127.138 19.8084C127.006 19.6764 126.94 19.5084 126.94 19.3044V13.3824C126.94 13.1064 127.012 12.8904 127.156 12.7344C127.312 12.5784 127.534 12.5004 127.822 12.5004H134.014C134.29 12.5004 134.506 12.5664 134.662 12.6984C134.818 12.8304 134.896 13.0104 134.896 13.2384C134.896 13.4784 134.818 13.6644 134.662 13.7964C134.506 13.9284 134.29 13.9944 134.014 13.9944H128.776V17.9904C129.436 17.4384 130.258 17.1624 131.242 17.1624Z" fill="black"/>
<rect x="143.007" y="0.15" width="28.2714" height="124.7" rx="8.85" fill="white" stroke="black" stroke-width="0.3"/>
<path d="M159.561 17.1444C160.317 17.1444 160.995 17.3184 161.595 17.6664C162.195 18.0024 162.657 18.4764 162.981 19.0884C163.317 19.7004 163.485 20.4024 163.485 21.1944C163.485 21.9864 163.305 22.7004 162.945 23.3364C162.585 23.9604 162.087 24.4524 161.451 24.8124C160.827 25.1604 160.113 25.3344 159.309 25.3344C157.737 25.3344 156.525 24.8004 155.673 23.7324C154.833 22.6524 154.413 21.1164 154.413 19.1244C154.413 17.7204 154.611 16.5144 155.007 15.5064C155.403 14.4864 155.973 13.7064 156.717 13.1664C157.461 12.6264 158.343 12.3564 159.363 12.3564C160.047 12.3564 160.731 12.4824 161.415 12.7344C162.099 12.9864 162.681 13.3344 163.161 13.7784C163.401 13.9824 163.521 14.2224 163.521 14.4984C163.521 14.7144 163.461 14.9004 163.341 15.0564C163.221 15.2004 163.077 15.2724 162.909 15.2724C162.801 15.2724 162.699 15.2544 162.603 15.2184C162.519 15.1824 162.417 15.1224 162.297 15.0384C161.289 14.2584 160.329 13.8684 159.417 13.8684C158.421 13.8684 157.647 14.3304 157.095 15.2544C156.543 16.1664 156.267 17.4444 156.267 19.0884V19.1244C156.531 18.5124 156.957 18.0324 157.545 17.6844C158.145 17.3244 158.817 17.1444 159.561 17.1444ZM159.219 23.8224C159.963 23.8224 160.557 23.5884 161.001 23.1204C161.457 22.6404 161.685 22.0104 161.685 21.2304C161.685 20.4624 161.457 19.8444 161.001 19.3764C160.557 18.8964 159.963 18.6564 159.219 18.6564C158.463 18.6564 157.845 18.8964 157.365 19.3764C156.897 19.8444 156.663 20.4624 156.663 21.2304C156.663 22.0104 156.897 22.6404 157.365 23.1204C157.833 23.5884 158.451 23.8224 159.219 23.8224Z" fill="black"/>
<rect x="171.579" y="0.15" width="28.2714" height="124.7" rx="8.85" fill="white" stroke="black" stroke-width="0.3"/>
<path d="M191.427 12.5004C191.691 12.5004 191.889 12.5724 192.021 12.7164C192.165 12.8604 192.237 13.0464 192.237 13.2744C192.237 13.4904 192.171 13.7184 192.039 13.9584L186.153 24.8304C185.961 25.1664 185.697 25.3344 185.361 25.3344C185.133 25.3344 184.923 25.2564 184.731 25.1004C184.551 24.9324 184.461 24.7284 184.461 24.4884C184.461 24.3444 184.509 24.1764 184.605 23.9844L190.023 14.0304H184.173C183.885 14.0304 183.669 13.9644 183.525 13.8324C183.381 13.7004 183.309 13.5144 183.309 13.2744C183.309 12.7584 183.597 12.5004 184.173 12.5004H191.427Z" fill="black"/>
</svg>
