<svg width="32" height="32" viewBox="0 0 32 32" fill="none" xmlns="http://www.w3.org/2000/svg">
<g clip-path="url(#clip0)">
<path d="M31.9167 12.2751C31.7072 11.6271 31.1325 11.1669 30.4526 11.1056L21.2165 10.267L17.5643 1.71865C17.295 1.09217 16.6817 0.686646 16.0003 0.686646C15.3189 0.686646 14.7056 1.09217 14.4363 1.72012L10.7841 10.267L1.54654 11.1056C0.867816 11.1684 0.294559 11.6271 0.0838604 12.2751C-0.126838 12.923 0.0677467 13.6338 0.581188 14.0818L7.56257 20.2045L5.50392 29.2728C5.35328 29.9396 5.61208 30.6288 6.16532 31.0287C6.46269 31.2436 6.8106 31.353 7.16144 31.353C7.46393 31.353 7.76399 31.2714 8.03329 31.1103L16.0003 26.3487L23.9644 31.1103C24.5471 31.4609 25.2818 31.4289 25.8338 31.0287C26.3873 30.6276 26.6458 29.9381 26.4952 29.2728L24.4365 20.2045L31.4179 14.083C31.9314 13.6338 32.1274 12.9243 31.9167 12.2751V12.2751Z" fill="#FFC107"/>
</g>
<defs>
<clipPath id="clip0">
<rect width="32" height="32" fill="white"/>
</clipPath>
</defs>
</svg>
