<svg width="32" height="32" viewBox="0 0 32 32" fill="none" xmlns="http://www.w3.org/2000/svg">
<g clip-path="url(#clip0)">
<path d="M16 32.0001C24.8366 32.0001 32.0001 24.8366 32.0001 16C32.0001 7.16346 24.8366 0 16 0C7.16346 0 0 7.16346 0 16C0 24.8366 7.16346 32.0001 16 32.0001Z" fill="#D62127"/>
<path d="M7.44975 15.5588C7.65264 15.8122 7.8047 15.9145 7.85527 16.1677C7.44975 16.3711 7.04456 17.1826 7.04456 17.4362C7.09432 19.1607 8.71832 19.5165 8.71832 19.5165C8.71832 19.5165 8.71832 19.5165 13.5883 19.5165C13.9438 19.5668 13.6896 20.5311 13.487 20.8858C12.625 22.408 12.1174 23.7773 12.1174 24.4886C12.4213 27.99 14.8061 27.3796 14.9071 27.0251C14.9579 23.4734 15.7701 22.6619 16.6834 22.0528C17.597 21.4449 17.6985 20.7337 18.7632 18.2984C19.8286 15.8635 21.8078 16.6749 21.8078 16.6749C21.8078 16.6749 21.757 15.9142 21.757 8.76078C15.7701 7.64406 12.3708 7.79646 10.7986 7.94851C9.22486 8.10064 8.71825 9.16577 8.71825 9.72383C8.71825 10.3835 8.51515 10.7397 8.26121 10.8908C7.14503 11.8046 7.50025 12.1085 7.80443 12.7679C8.10915 13.4281 8.00706 13.631 7.50025 14.0875C6.90128 14.5964 7.24664 15.3061 7.44975 15.5588Z" fill="#FCC288"/>
<path d="M22.063 16.9293H25.1546C25.3236 16.9293 25.4606 16.7926 25.4606 16.6228V8.55968C25.4606 8.39114 25.3236 8.25293 25.1546 8.25293H22.063C21.894 8.25293 21.7571 8.39114 21.7571 8.55968V16.6228C21.7574 16.7926 21.8943 16.9293 22.063 16.9293Z" fill="#5C524A"/>
</g>
<defs>
<clipPath id="clip0">
<rect width="32" height="32" fill="white"/>
</clipPath>
</defs>
</svg>
