<svg width="32" height="32" viewBox="0 0 32 32" fill="none" xmlns="http://www.w3.org/2000/svg">
<g clip-path="url(#clip0)">
<path d="M16 32.0001C24.8366 32.0001 32.0001 24.8366 32.0001 16C32.0001 7.16346 24.8366 0 16 0C7.16346 0 0 7.16346 0 16C0 24.8366 7.16346 32.0001 16 32.0001Z" fill="#A0BF19"/>
<path d="M25.3279 15.9444C25.125 15.691 24.9732 15.5887 24.9226 15.3355C25.3279 15.1324 25.7333 14.3206 25.7333 14.0668C25.6833 12.3422 24.0596 11.987 24.0596 11.987C24.0596 11.987 24.0596 11.987 19.1893 11.987C18.8341 11.9365 19.088 10.9721 19.2909 10.6171C20.1529 9.09543 20.6605 7.72565 20.6605 7.01446C20.3565 3.51352 17.9715 4.12371 17.8705 4.47812C17.8197 8.02956 17.0075 8.84129 16.0944 9.45066C15.1808 10.0585 15.0793 10.7697 14.0146 13.2047C12.949 15.6397 10.9697 14.8283 10.9697 14.8283C10.9697 14.8283 11.0205 15.5889 11.0205 22.7424C17.0075 23.8593 20.407 23.7067 21.9793 23.5544C23.553 23.4028 24.0596 22.3374 24.0596 21.7793C24.0596 21.1199 24.2625 20.7634 24.5166 20.612C25.6328 19.6988 25.2773 19.3945 24.9734 18.7354C24.6687 18.0747 24.7708 17.8723 25.2773 17.4153C25.8764 16.9071 25.5312 16.1971 25.3279 15.9444Z" fill="#FCC288"/>
<path d="M10.7146 14.5743H7.62275C7.45402 14.5743 7.31702 14.7108 7.31702 14.8808V22.9438C7.31702 23.112 7.45395 23.2502 7.62275 23.2502H10.7146C10.8834 23.2502 11.0204 23.112 11.0204 22.9438V14.8808C11.0204 14.7107 10.8834 14.5743 10.7146 14.5743Z" fill="#5C524A"/>
</g>
<defs>
<clipPath id="clip0">
<rect width="32" height="32" fill="white"/>
</clipPath>
</defs>
</svg>
