<svg xmlns="http://www.w3.org/2000/svg" xmlns:xlink="http://www.w3.org/1999/xlink" viewBox="0 0 500 500"><defs><clipPath id="freepik--clip-path--inject-630"><path d="M383.42,200.26s5.68,1.05,8.67,2.67,25.89,25.8,26.5,28.49a24.66,24.66,0,0,0,3.58,7.84c1.22,1.61,5.14,6.38,5.4,8.36s-.53,3.6-1.47,2.22-3.14-4.63-4.83-5.92-6.87-2.36-6.87-2.36a25.67,25.67,0,0,1-.36,4.84c-.45,2.33-2.2,4.33-2.36,3.09a32.5,32.5,0,0,1-.37-6.5c.2-2.3.17-6.33.17-6.33l.67-4.38S397,222.7,391.3,219.68s-10.94-6.36-10.94-6.36l-3.57-.28s.17-6.32,2.35-8.88A21.17,21.17,0,0,1,383.42,200.26Z" style="fill:#fff"></path></clipPath><clipPath id="freepik--clip-path-2--inject-630"><path d="M313.72,207.08c-13.5,4.3-12.83,4.21-12.83,4.21l-19.6,2.85L290,231.37,312.78,234s22.34,21.08,26.53,21.89,6.67,5.69,6.67,5.69-1.65,2.94.56,4.24,5.43,1.54,12.23-.27,16.49-7.43,21-11,11-7.82,8.94-9.59a21.46,21.46,0,0,0-6.08-3.05l-20.84-21.73,17.2,1.33s-.19-10,.06-13.17,4.37-8.08,4.37-8.08-22-1.6-28.27-2.58-12.35-.62-14.9.63-14.17,4.39-14.84,4.48S313.72,207.08,313.72,207.08Z" style="fill:#fff"></path></clipPath><clipPath id="freepik--clip-path-3--inject-630"><path d="M314.75,209.67a108.41,108.41,0,0,1,2.86,11.19c.44,3.35-1.18,6.52.8,6s1.9-6.15,1.9-6.15l7.24,1.53,3.21-6.56s5.94,5.33,5.8,2.63S330.33,204,330,201.27s-3.63-3.37-5.87-1.48S314.75,209.67,314.75,209.67Z" style="fill:#fff"></path></clipPath><clipPath id="freepik--clip-path-4--inject-630"><path d="M305.51,206.81a63,63,0,0,0,7,2.93c2.6.79,15.51,15.86,15.06,12.52s-1.28-16.41-2.14-19.47a83.08,83.08,0,0,0-3.43-8.62s2.09-1.42-1.28-2.78-6,1.25-5.78,2.59.57,4.23-.3,4.58S305.51,206.81,305.51,206.81Z" style="fill:#fff"></path></clipPath><clipPath id="freepik--clip-path-5--inject-630"><path d="M296.19,177.86s-2,7.12-1.63,8.17a23.44,23.44,0,0,1,.92,3.51l-2.78,4.68s.47,1.76,1.39,1.86a13.45,13.45,0,0,1,3.14,1.4s2.68,9.86,3.63,10.18,3.14,1.4,4,.83,11-7.82,12.2-8.89.73-6.46.73-6.46,3.12-3.82,1.87-6.38-4.09-1.72-5,.21-1.21,2.89-1.21,2.89-2.17.74-2.57-.57l-.4-1.3s-3.8-2.9-3.89-3.57,1.25-7.66,1.25-7.66Z" style="fill:#fff"></path></clipPath><clipPath id="freepik--clip-path-6--inject-630"><path d="M426.79,250.86a1.35,1.35,0,0,1-1.1-.74c-.93-1.37-3.1-4.56-4.72-5.8-1.25-.95-4.66-1.81-6.06-2.13a25.35,25.35,0,0,1-.38,4.31c-.34,1.78-1.52,3.91-2.58,3.87a.82.82,0,0,1-.77-.81,33.8,33.8,0,0,1-.37-6.62c.2-2.24.17-6.24.17-6.28l.63-4.13c-2.09-1.32-15.35-9.65-20.55-12.41S381,214.3,380.2,213.81l-3.45-.27a.5.5,0,0,1-.46-.51c0-.26.2-6.53,2.46-9.2a21.79,21.79,0,0,1,4.4-4,.49.49,0,0,1,.36-.07c.23,0,5.79,1.08,8.82,2.72s26.07,25.81,26.75,28.82a24.54,24.54,0,0,0,3.48,7.65l.59.75c2.26,2.9,4.69,6.13,4.92,7.85.17,1.31-.05,2.89-.95,3.23A.81.81,0,0,1,426.79,250.86Zm-12.39-9.8h.1c.22.05,5.32,1.11,7.08,2.46s4,4.62,4.93,6c.18.27.29.31.29.31a3.18,3.18,0,0,0,.27-2.17c-.21-1.6-3.25-5.49-4.71-7.36l-.59-.76a25.15,25.15,0,0,1-3.66-8c-.51-2.23-23.09-26.44-26.26-28.16a36.08,36.08,0,0,0-8.33-2.58,21.88,21.88,0,0,0-4,3.69c-1.71,2-2.12,6.61-2.21,8.1l3.09.25a.48.48,0,0,1,.23.07c.05,0,5.29,3.36,10.9,6.34s20.74,12.52,20.89,12.62a.49.49,0,0,1,.23.5l-.68,4.37c0,.09,0,4-.16,6.3a31.61,31.61,0,0,0,.34,6.19,6,6,0,0,0,1.4-2.91,24.79,24.79,0,0,0,.35-4.73.52.52,0,0,1,.18-.4A.47.47,0,0,1,414.4,241.06Z" style="fill:#263238;clip-path:url(#freepik--clip-path--inject-630)"></path></clipPath><clipPath id="freepik--clip-path-7--inject-630"><path d="M350.94,267.34a9,9,0,0,1-4.65-1.1c-2-1.14-1.48-3.42-.88-4.66-.53-.94-2.79-4.56-6.19-5.21-4.17-.8-24.7-20.05-26.67-21.9l-22.93-2.64-9.09-18.09,20.29-2.94v0h0v0c1-.48,4-1.43,12.72-4.22,1.88-.72,11.1-4.22,11.79-4.31s12.26-3.25,14.69-4.44c2.78-1.36,9-1.64,15.19-.67s28,2.56,28.23,2.57l1,.07-.63.75s-4,4.78-4.26,7.8-.05,13-.05,13.12v.55l-16.45-1.27,19.85,20.7a21.07,21.07,0,0,1,6.14,3.1,1.53,1.53,0,0,1,.56,1.25c-.06,1.92-3.54,4.56-7.22,7.36-.79.59-1.57,1.18-2.3,1.76-4.36,3.43-14.15,9.19-21.19,11.07A32,32,0,0,1,350.94,267.34ZM290.27,230.9,313,233.52l.12.11c6.18,5.84,23,21.12,26.29,21.75,4.38.84,6.91,5.75,7,6l.12.24-.13.23c-.05.11-1.38,2.54.38,3.57s4.36,1.67,11.85-.33c6.9-1.84,16.53-7.51,20.82-10.89.74-.58,1.52-1.17,2.31-1.77,3-2.3,6.79-5.15,6.83-6.59a.53.53,0,0,0-.22-.46,21.06,21.06,0,0,0-5.91-3l-.12,0-.09-.09-21.74-22.68,18,1.39c0-2.15-.15-9.87.07-12.67.2-2.6,2.7-6.09,3.88-7.61-4.29-.32-21.9-1.66-27.36-2.51-5.89-.93-12-.68-14.6.58s-14.23,4.43-15,4.53c-.56.1-7.39,2.66-11.57,4.26h0c-11.46,3.66-12.63,4.12-12.75,4.18l-.21-.45h0l.07.5-18.91,2.74Z" style="fill:#263238;clip-path:url(#freepik--clip-path-2--inject-630)"></path></clipPath><clipPath id="freepik--clip-path-8--inject-630"><path d="M318.05,227.43a1,1,0,0,1-.73-.25c-.55-.48-.45-1.41-.3-2.7a14.72,14.72,0,0,0,.09-3.55,109.88,109.88,0,0,0-2.84-11.12l-.08-.27.18-.21c.3-.32,7.16-8,9.41-9.92a4.64,4.64,0,0,1,4.56-.93,3.32,3.32,0,0,1,2.13,2.73c.16,1.18,1.62,4.5,3,7.7,1.79,4.05,3.48,7.86,3.55,9.39a1.11,1.11,0,0,1-.57,1.19c-1.2.56-4-1.63-5.56-3l-3.1,6.32-7-1.49c0,1.7-.34,5.55-2.28,6A2.1,2.1,0,0,1,318.05,227.43Zm-.07-1a.6.6,0,0,0,.31,0c1.1-.27,1.55-3.48,1.52-5.67v-.62l7.48,1.58,3.33-6.81.49.45c2.14,1.92,4.44,3.43,5,3.26,0,0,0-.08,0-.24-.07-1.34-1.88-5.43-3.47-9-1.52-3.42-3-6.65-3.12-8a2.3,2.3,0,0,0-1.5-1.92,3.62,3.62,0,0,0-3.56.75c-2,1.68-8,8.35-9.11,9.62a100.3,100.3,0,0,1,2.79,11,15.11,15.11,0,0,1-.09,3.79,4.92,4.92,0,0,0,0,1.84Z" style="fill:#263238;clip-path:url(#freepik--clip-path-3--inject-630)"></path></clipPath><clipPath id="freepik--clip-path-9--inject-630"><path d="M327.33,223.24c-1,0-2.83-1.68-7.79-6.59-2.89-2.87-6.17-6.12-7.2-6.43a62.05,62.05,0,0,1-7-3l-.64-.31.52-.5c1.95-1.87,8.38-8,9.27-8.36.14-.1.43-.7,0-4a3,3,0,0,1,1.38-2.52,5,5,0,0,1,5.08-.61c1.41.58,2.14,1.25,2.22,2.05a1.68,1.68,0,0,1-.52,1.33,74.74,74.74,0,0,1,3.3,8.36c.58,2.07,1.14,8.46,1.59,13.6.23,2.58.42,4.81.57,5.93.08.63-.21.88-.39,1A.73.73,0,0,1,327.33,223.24Zm-20.95-16.57a56.56,56.56,0,0,0,6.25,2.59c1.18.36,3.66,2.76,7.61,6.67,2.41,2.39,5.63,5.58,6.8,6.2-.15-1.18-.34-3.33-.56-5.78-.44-5.1-1-11.44-1.55-13.42a81.74,81.74,0,0,0-3.4-8.55l-.18-.39.35-.24c.12-.08.45-.38.42-.68s-.22-.66-1.6-1.22a4,4,0,0,0-4.1.47,2.17,2.17,0,0,0-1,1.59c.38,2.86.41,4.71-.61,5.11C314.25,199.29,310.15,203.07,306.38,206.67Z" style="fill:#263238;clip-path:url(#freepik--clip-path-4--inject-630)"></path></clipPath><clipPath id="freepik--clip-path-10--inject-630"><path d="M304.18,209.16a8.9,8.9,0,0,1-2.85-.78l-.63-.25c-.79-.27-2.11-3.74-3.9-10.32a11.42,11.42,0,0,0-2.77-1.23c-1.23-.14-1.75-2-1.81-2.23l-.05-.2,2.79-4.71a22.77,22.77,0,0,0-.87-3.23c-.43-1.12,1.13-6.78,1.62-8.48l.1-.33,12.66-1.2-.13.65c-.54,2.82-1.28,7-1.24,7.51a25.17,25.17,0,0,0,3.69,3.23l.13.1.45,1.46a.49.49,0,0,0,.25.31,2.42,2.42,0,0,0,1.46,0c.15-.4.5-1.29,1.13-2.68a3.55,3.55,0,0,1,3.09-2.11,3.09,3.09,0,0,1,2.78,1.88c1.24,2.53-1.2,6-1.8,6.76.1,1.27.35,5.56-.92,6.67s-11.41,8.36-12.25,8.94A1.66,1.66,0,0,1,304.18,209.16Zm-10.93-14.87c.18.57.56,1.26.89,1.29a13.47,13.47,0,0,1,3.34,1.47l.17.1.06.2c1.21,4.47,2.81,9.39,3.38,9.87a4.74,4.74,0,0,1,.6.23c.78.3,2.4.94,2.86.63.83-.56,11-7.82,12.15-8.86.71-.62.76-3.9.56-6l0-.2.13-.16s2.91-3.61,1.81-5.85a2,2,0,0,0-1.87-1.32,2.57,2.57,0,0,0-2.19,1.52c-.85,1.88-1.18,2.83-1.19,2.84l-.07.23-.24.08a3.63,3.63,0,0,1-2.45,0,1.5,1.5,0,0,1-.76-.91l-.35-1.15c-2.55-2-3.87-3.24-3.95-3.81a71,71,0,0,1,1.13-7.16l-10.66,1c-.91,3.23-1.75,6.94-1.55,7.52a24.54,24.54,0,0,1,1,3.6l0,.18Z" style="fill:#263238;clip-path:url(#freepik--clip-path-5--inject-630)"></path></clipPath></defs><g id="freepik--background-simple--inject-630"><path d="M402.72,164.78c-6-4.91-12.44-9.4-18.46-14.34C355.84,127.12,339.65,92.58,307.11,74c-34.6-19.76-79.46-20.18-114.89-1.29-39.41,21-52.76,66.9-84.67,96.59-49.44,46-66.46,97.74-43.76,142.92,16.46,32.77,59.75,52.87,91.85,65.25,39.88,15.39,80,45.13,123.19,48.86,36.85,3.17,74-14.6,91.33-48.4,9.83-19.2,27.75-31.62,42.57-46.5,39-39.17,37.69-113.78,2.41-154.85A95.41,95.41,0,0,0,402.72,164.78Z" style="fill:#904AE9"></path><path d="M402.72,164.78c-6-4.91-12.44-9.4-18.46-14.34C355.84,127.12,339.65,92.58,307.11,74c-34.6-19.76-79.46-20.18-114.89-1.29-39.41,21-52.76,66.9-84.67,96.59-49.44,46-66.46,97.74-43.76,142.92,16.46,32.77,59.75,52.87,91.85,65.25,39.88,15.39,80,45.13,123.19,48.86,36.85,3.17,74-14.6,91.33-48.4,9.83-19.2,27.75-31.62,42.57-46.5,39-39.17,37.69-113.78,2.41-154.85A95.41,95.41,0,0,0,402.72,164.78Z" style="fill:#fff;opacity:0.7000000000000001"></path></g><g id="freepik--Device--inject-630"><path d="M278.27,384.09,156.4,394.19c-3.51.29-7-2.63-7.78-6.53l-51.84-255c-.79-3.89-2.39-11.21,11.77-11.89l123.26-9.53c3.5-.29,7,2.63,7.78,6.52L292.21,373.2C293,376.63,289.14,383.82,278.27,384.09Z" style="fill:#263238"></path><path d="M155.92,394.71c-3.56,0-7-3-7.79-6.95l-51.84-255c-.48-2.33-1.17-5.73.94-8.44,1.91-2.45,5.6-3.78,11.29-4l123.25-9.53c3.74-.31,7.47,2.8,8.31,6.92L292.7,373.1c.4,1.77-.32,4.11-1.87,6.09s-5.15,5.21-12.53,5.4L156.44,394.68A4.41,4.41,0,0,1,155.92,394.71Zm76.37-283-.44,0-123.26,9.53c-5.32.25-8.87,1.49-10.57,3.66-1.82,2.36-1.21,5.35-.77,7.54l51.86,255.14c.74,3.65,4,6.38,7.25,6.13L278.23,383.6h0c7-.17,10.37-3.21,11.78-5a6.92,6.92,0,0,0,1.68-5.27L239.1,117.82C238.39,114.33,235.4,111.67,232.29,111.67Z" style="fill:#263238"></path><path d="M287.6,379.43,165.73,389.52c-3.5.29-7-2.63-7.78-6.52L106.11,127.94c-.79-3.89,1.41-7.28,4.92-7.57L232.9,110.28c3.51-.3,7,2.62,7.78,6.52l51.84,255.05C293.31,375.75,291.11,379.14,287.6,379.43Z" style="fill:#fff"></path><path d="M165.26,390c-3.57,0-7-3-7.8-6.94L105.62,128a7.31,7.31,0,0,1,1.16-5.85,5.78,5.78,0,0,1,4.21-2.32l121.87-10.09c3.74-.32,7.47,2.79,8.31,6.92L293,371.75a7.29,7.29,0,0,1-1.16,5.86,5.75,5.75,0,0,1-4.21,2.31L165.78,390Zm68.12-279.29-.44,0-121.87,10.1a4.78,4.78,0,0,0-3.49,1.92,6.32,6.32,0,0,0-1,5L158.44,382.9c.74,3.64,4,6.39,7.25,6.12l121.87-10.09h0a4.81,4.81,0,0,0,3.49-1.92,6.3,6.3,0,0,0,1-5.06l-51.84-255C239.48,113.42,236.49,110.75,233.38,110.75Z" style="fill:#263238"></path><path d="M184.53,130.63,167.78,132a2.13,2.13,0,0,1-2.1-1.77h0A1.6,1.6,0,0,1,167,128.2l16.75-1.39a2.15,2.15,0,0,1,2.11,1.77h0A1.61,1.61,0,0,1,184.53,130.63Z" style="fill:#263238"></path><path d="M280.56,355.55,163,365.28,116.5,136.49l27.86-2.31,3.72,2.63A6.47,6.47,0,0,0,152.3,138L201.46,134a5.11,5.11,0,0,0,3.69-2l2.27-3,26.64-2.21Z" style="fill:#904AE9"></path><path d="M163,365.78a.49.49,0,0,1-.49-.4L116,136.59a.48.48,0,0,1,.09-.4.46.46,0,0,1,.35-.2l27.87-2.31a.49.49,0,0,1,.33.09l3.72,2.63a6,6,0,0,0,3.89,1.15l49.16-4.08a4.58,4.58,0,0,0,3.33-1.82l2.27-3a.52.52,0,0,1,.36-.19L234,126.25a.51.51,0,0,1,.53.4l46.5,228.8a.48.48,0,0,1-.09.4.5.5,0,0,1-.36.19L163,365.78ZM117.1,136.94l46.3,227.81L280,355.09l-46.3-227.8-26,2.15-2.13,2.82a5.59,5.59,0,0,1-4.05,2.21l-49.16,4.07a6.94,6.94,0,0,1-4.55-1.33l-3.57-2.52Z" style="fill:#263238"></path><path d="M227,367.15a3.32,3.32,0,0,0-3.28-2.74,2.5,2.5,0,0,0-2.07,3.19,3.31,3.31,0,0,0,3.28,2.74A2.5,2.5,0,0,0,227,367.15Z" style="fill:#263238"></path><path d="M150.92,185.55l-12.56,1a4.27,4.27,0,0,1-4.23-3.54l-2.84-14c-.43-2.11.77-4,2.68-4.11l12.56-1.05a4.29,4.29,0,0,1,4.23,3.55l2.84,13.94C154,183.55,152.83,185.39,150.92,185.55Z" style="fill:#fff"></path><path d="M138.1,187.1a4.84,4.84,0,0,1-4.46-3.95l-2.84-14a4.22,4.22,0,0,1,.67-3.36,3.39,3.39,0,0,1,2.46-1.35l12.56-1a4.78,4.78,0,0,1,4.76,3.94l2.84,13.94a4.2,4.2,0,0,1-.68,3.37,3.35,3.35,0,0,1-2.45,1.35l-12.56,1Zm8.69-22.67h-.22l-12.56,1a2.4,2.4,0,0,0-1.74,1,3.25,3.25,0,0,0-.49,2.57L134.62,183a3.78,3.78,0,0,0,3.7,3.14l12.56-1a2.32,2.32,0,0,0,1.73-1,3.21,3.21,0,0,0,.5-2.57l-2.84-13.94A3.82,3.82,0,0,0,146.79,164.43Z" style="fill:#fff"></path><path d="M179,183.23l-12.56,1a4.27,4.27,0,0,1-4.23-3.55l-2.84-13.94c-.43-2.12.77-4,2.68-4.12l12.56-1a4.27,4.27,0,0,1,4.23,3.55l2.84,13.94C182.09,181.23,180.89,183.07,179,183.23Z" style="fill:#fff"></path><path d="M166.16,184.78a4.84,4.84,0,0,1-4.46-4l-2.84-13.94a4.25,4.25,0,0,1,.67-3.37,3.43,3.43,0,0,1,2.46-1.35l12.56-1a4.8,4.8,0,0,1,4.76,3.95L182.15,179a4.25,4.25,0,0,1-.67,3.37,3.39,3.39,0,0,1-2.46,1.35h0l-12.56,1Zm8.7-22.67h-.23l-12.56,1a2.43,2.43,0,0,0-1.74,1,3.26,3.26,0,0,0-.49,2.57l2.84,13.94a3.79,3.79,0,0,0,3.7,3.15l12.56-1h0a2.43,2.43,0,0,0,1.74-.95,3.26,3.26,0,0,0,.49-2.57l-2.84-13.94A3.82,3.82,0,0,0,174.86,162.11Z" style="fill:#fff"></path><path d="M207,180.91l-12.56,1a4.28,4.28,0,0,1-4.23-3.55l-2.84-13.94c-.43-2.12.77-4,2.68-4.12l12.56-1a4.27,4.27,0,0,1,4.23,3.54l2.84,13.95C210.15,178.9,209,180.75,207,180.91Z" style="fill:#fff"></path><path d="M194.22,182.46a4.85,4.85,0,0,1-4.46-4l-2.84-13.94a4.24,4.24,0,0,1,.67-3.37,3.39,3.39,0,0,1,2.46-1.35l12.56-1a4.78,4.78,0,0,1,4.76,3.95l2.84,13.94a4.22,4.22,0,0,1-.67,3.36,3.39,3.39,0,0,1-2.46,1.35h0l-12.56,1Zm8.7-22.67h-.23l-12.56,1a2.36,2.36,0,0,0-1.74.95,3.26,3.26,0,0,0-.49,2.57l2.84,13.94a3.79,3.79,0,0,0,3.7,3.15l12.56-1a2.4,2.4,0,0,0,1.74-1,3.23,3.23,0,0,0,.49-2.56l-2.84-13.95A3.82,3.82,0,0,0,202.92,159.79Z" style="fill:#fff"></path><path d="M235.1,178.58l-12.56,1a4.27,4.27,0,0,1-4.23-3.55l-2.84-13.94c-.43-2.11.77-4,2.68-4.12l12.56-1a4.28,4.28,0,0,1,4.23,3.55l2.84,13.94C238.21,176.58,237,178.42,235.1,178.58Z" style="fill:#fff"></path><path d="M222.28,180.13a4.84,4.84,0,0,1-4.46-4L215,162.23a4.22,4.22,0,0,1,.67-3.36,3.39,3.39,0,0,1,2.46-1.35l12.56-1a4.78,4.78,0,0,1,4.76,3.94l2.84,13.94a4.24,4.24,0,0,1-.67,3.37,3.39,3.39,0,0,1-2.46,1.35h0l-12.56,1Zm8.7-22.67h-.23l-12.56,1a2.4,2.4,0,0,0-1.74,1A3.23,3.23,0,0,0,216,162L218.8,176a3.78,3.78,0,0,0,3.7,3.15l12.56-1h0a2.36,2.36,0,0,0,1.74-1,3.26,3.26,0,0,0,.49-2.57l-2.84-13.94A3.82,3.82,0,0,0,231,157.46Z" style="fill:#fff"></path><path d="M157.44,217.62l-12.56,1a4.29,4.29,0,0,1-4.24-3.55l-2.83-13.94c-.43-2.12.77-4,2.67-4.12l12.57-1a4.28,4.28,0,0,1,4.23,3.55l2.83,13.94C160.54,215.61,159.35,217.46,157.44,217.62Z" style="fill:#fff"></path><path d="M144.62,219.17a4.86,4.86,0,0,1-4.47-4l-2.83-13.94a4.2,4.2,0,0,1,.67-3.37,3.35,3.35,0,0,1,2.45-1.35l12.56-1a4.79,4.79,0,0,1,4.77,4l2.83,13.94a4.19,4.19,0,0,1-.67,3.36,3.35,3.35,0,0,1-2.45,1.35h0l-12.56,1Zm8.69-22.67h-.22l-12.56,1a2.36,2.36,0,0,0-1.74.95,3.18,3.18,0,0,0-.49,2.57L141.13,215a3.79,3.79,0,0,0,3.7,3.15l12.57-1a2.38,2.38,0,0,0,1.73-1,3.16,3.16,0,0,0,.49-2.56l-2.83-13.94A3.82,3.82,0,0,0,153.31,196.5Z" style="fill:#fff"></path><path d="M185.5,215.29l-12.56,1a4.28,4.28,0,0,1-4.24-3.55l-2.83-13.94c-.43-2.11.77-4,2.67-4.12l12.57-1a4.28,4.28,0,0,1,4.23,3.55l2.83,13.94C188.6,213.29,187.41,215.13,185.5,215.29Z" style="fill:#fff"></path><path d="M172.68,216.84a4.85,4.85,0,0,1-4.47-4l-2.83-13.94a4.19,4.19,0,0,1,.67-3.36,3.35,3.35,0,0,1,2.45-1.35l12.56-1a4.8,4.8,0,0,1,4.77,3.94l2.83,13.94a4.2,4.2,0,0,1-.67,3.37,3.35,3.35,0,0,1-2.45,1.35h0l-12.56,1Zm8.69-22.67h-.22l-12.56,1a2.4,2.4,0,0,0-1.74,1,3.19,3.19,0,0,0-.49,2.56l2.83,13.95a3.78,3.78,0,0,0,3.71,3.14l12.56-1h0a2.34,2.34,0,0,0,1.73-.95,3.18,3.18,0,0,0,.49-2.57l-2.83-13.94A3.82,3.82,0,0,0,181.37,194.17Z" style="fill:#fff"></path><path d="M241.62,210.64l-12.56,1.05a4.3,4.3,0,0,1-4.24-3.55L222,194.2c-.43-2.12.77-4,2.68-4.12l12.56-1a4.28,4.28,0,0,1,4.23,3.54l2.83,13.94C244.72,208.64,243.53,210.49,241.62,210.64Z" style="fill:#fff"></path><path d="M228.8,212.2a4.86,4.86,0,0,1-4.47-4L221.5,194.3a4.2,4.2,0,0,1,.67-3.37,3.35,3.35,0,0,1,2.45-1.35l12.57-1a4.79,4.79,0,0,1,4.76,3.94l2.83,14a4.19,4.19,0,0,1-.67,3.36,3.35,3.35,0,0,1-2.45,1.35h0l-12.56,1Zm8.69-22.67h-.22l-12.56,1a2.36,2.36,0,0,0-1.74.95,3.21,3.21,0,0,0-.49,2.57L225.31,208a3.77,3.77,0,0,0,3.71,3.15l12.56-1a2.38,2.38,0,0,0,1.73-1,3.17,3.17,0,0,0,.49-2.57L241,192.68A3.81,3.81,0,0,0,237.49,189.53Z" style="fill:#fff"></path><path d="M164,249.68l-12.56,1a4.28,4.28,0,0,1-4.23-3.55l-2.83-13.94c-.43-2.12.76-4,2.67-4.12l12.56-1a4.28,4.28,0,0,1,4.24,3.55l2.83,13.94C167.06,247.68,165.86,249.52,164,249.68Z" style="fill:#fff"></path><path d="M151.13,251.23a4.85,4.85,0,0,1-4.46-4l-2.83-13.94a4.18,4.18,0,0,1,.67-3.37,3.42,3.42,0,0,1,2.45-1.35l12.56-1a4.8,4.8,0,0,1,4.77,4l2.83,13.94a4.21,4.21,0,0,1-.67,3.37,3.37,3.37,0,0,1-2.45,1.35h0l-12.57,1Zm8.7-22.67h-.23l-12.56,1a2.38,2.38,0,0,0-1.73,1,3.16,3.16,0,0,0-.49,2.56l2.83,13.94a3.78,3.78,0,0,0,3.7,3.15l12.56-1a2.43,2.43,0,0,0,1.74-1,3.22,3.22,0,0,0,.49-2.57l-2.83-13.94A3.84,3.84,0,0,0,159.83,228.56Z" style="fill:#fff"></path><path d="M192,247.36l-12.56,1a4.28,4.28,0,0,1-4.23-3.55l-2.83-13.94c-.43-2.12.76-4,2.67-4.12l12.56-1a4.28,4.28,0,0,1,4.24,3.55l2.83,13.94C195.12,245.35,193.92,247.2,192,247.36Z" style="fill:#fff"></path><path d="M179.2,248.91a4.86,4.86,0,0,1-4.47-4L171.9,231a4.2,4.2,0,0,1,.67-3.37,3.35,3.35,0,0,1,2.45-1.35l12.56-1a4.8,4.8,0,0,1,4.77,3.95l2.83,13.94a4.19,4.19,0,0,1-.67,3.36,3.37,3.37,0,0,1-2.45,1.35l-12.57,1Zm8.69-22.67h-.23l-12.56,1a2.34,2.34,0,0,0-1.73,1,3.18,3.18,0,0,0-.49,2.57l2.83,13.94a3.77,3.77,0,0,0,3.7,3.15l12.56-1a2.4,2.4,0,0,0,1.74-1,3.19,3.19,0,0,0,.49-2.56l-2.83-13.94A3.84,3.84,0,0,0,187.89,226.24Z" style="fill:#fff"></path><path d="M220.07,245l-12.56,1a4.28,4.28,0,0,1-4.23-3.55l-2.83-13.94c-.43-2.11.76-4,2.67-4.12l12.56-1a4.29,4.29,0,0,1,4.24,3.55l2.83,13.94C223.18,243,222,244.87,220.07,245Z" style="fill:#fff"></path><path d="M207.26,246.58a4.85,4.85,0,0,1-4.47-4L200,228.68a4.19,4.19,0,0,1,.67-3.36,3.35,3.35,0,0,1,2.45-1.35l12.56-1a4.8,4.8,0,0,1,4.77,3.94l2.83,13.94a4.2,4.2,0,0,1-.67,3.37,3.35,3.35,0,0,1-2.45,1.35l-12.56,1ZM216,223.91h-.23l-12.56,1a2.38,2.38,0,0,0-1.73,1,3.16,3.16,0,0,0-.49,2.56l2.83,13.94a3.76,3.76,0,0,0,3.7,3.15l12.56-1a2.36,2.36,0,0,0,1.74-.95,3.22,3.22,0,0,0,.49-2.57l-2.83-13.94A3.84,3.84,0,0,0,216,223.91Z" style="fill:#fff"></path><path d="M248.14,242.71l-12.57,1a4.28,4.28,0,0,1-4.23-3.55l-2.83-13.94c-.43-2.12.76-4,2.67-4.12l12.56-1a4.28,4.28,0,0,1,4.24,3.55l2.83,13.94C251.24,240.71,250,242.55,248.14,242.71Z" style="fill:#fff"></path><path d="M235.32,244.26a4.86,4.86,0,0,1-4.47-4L228,226.36a4.21,4.21,0,0,1,.67-3.37,3.35,3.35,0,0,1,2.45-1.35l12.56-1a4.8,4.8,0,0,1,4.77,4l2.83,13.94a4.18,4.18,0,0,1-.67,3.36,3.4,3.4,0,0,1-2.45,1.36l-12.56,1ZM244,221.59h-.23l-12.56,1a2.41,2.41,0,0,0-1.73,1,3.18,3.18,0,0,0-.49,2.57l2.83,13.94a3.76,3.76,0,0,0,3.7,3.15l12.56-1a2.4,2.4,0,0,0,1.74-1,3.16,3.16,0,0,0,.49-2.56l-2.83-13.94A3.84,3.84,0,0,0,244,221.59Z" style="fill:#fff"></path><path d="M170.47,281.74l-12.56,1a4.27,4.27,0,0,1-4.23-3.54l-2.84-13.95c-.43-2.11.77-4,2.68-4.11l12.56-1.05a4.29,4.29,0,0,1,4.23,3.55l2.84,13.94C173.58,279.74,172.38,281.58,170.47,281.74Z" style="fill:#fff"></path><path d="M157.65,283.29a4.84,4.84,0,0,1-4.46-4l-2.84-13.94A4.22,4.22,0,0,1,151,262a3.39,3.39,0,0,1,2.46-1.35l12.56-1a4.77,4.77,0,0,1,4.76,3.94l2.84,13.94a4.24,4.24,0,0,1-.67,3.37,3.39,3.39,0,0,1-2.46,1.35h0l-12.56,1Zm8.7-22.67h-.23l-12.56,1a2.4,2.4,0,0,0-1.74,1,3.25,3.25,0,0,0-.49,2.57l2.84,13.94a3.79,3.79,0,0,0,3.7,3.15l12.56-1a2.4,2.4,0,0,0,1.74-1,3.25,3.25,0,0,0,.49-2.57l-2.84-13.94A3.82,3.82,0,0,0,166.35,260.62Z" style="fill:#fff"></path><path d="M198.53,279.42l-12.56,1a4.27,4.27,0,0,1-4.23-3.55L178.9,263c-.43-2.12.77-4,2.68-4.12l12.56-1a4.27,4.27,0,0,1,4.23,3.55l2.84,13.94C201.64,277.42,200.44,279.26,198.53,279.42Z" style="fill:#fff"></path><path d="M185.71,281a4.84,4.84,0,0,1-4.46-4l-2.84-13.94a4.25,4.25,0,0,1,.67-3.37,3.46,3.46,0,0,1,2.46-1.35l12.56-1a4.79,4.79,0,0,1,4.76,3.95l2.84,13.94a4.25,4.25,0,0,1-.67,3.37,3.43,3.43,0,0,1-2.46,1.35h0L186,281Zm8.7-22.67h-.23l-12.56,1a2.43,2.43,0,0,0-1.74.95,3.26,3.26,0,0,0-.49,2.57l2.84,13.94a3.77,3.77,0,0,0,3.7,3.15l12.56-1a2.43,2.43,0,0,0,1.74-.95,3.26,3.26,0,0,0,.49-2.57l-2.84-13.94A3.82,3.82,0,0,0,194.41,258.3Z" style="fill:#fff"></path><path d="M226.59,277.1l-12.56,1a4.28,4.28,0,0,1-4.23-3.55L207,260.65c-.43-2.12.77-4,2.68-4.12l12.56-1a4.27,4.27,0,0,1,4.23,3.54l2.84,14C229.7,275.09,228.5,276.94,226.59,277.1Z" style="fill:#fff"></path><path d="M213.77,278.65a4.85,4.85,0,0,1-4.46-4l-2.84-13.94a4.24,4.24,0,0,1,.67-3.37A3.39,3.39,0,0,1,209.6,256l12.56-1a4.77,4.77,0,0,1,4.76,3.95l2.84,13.94a4.22,4.22,0,0,1-.67,3.36,3.39,3.39,0,0,1-2.46,1.35l-12.56,1Zm8.7-22.67h-.23l-12.56,1a2.36,2.36,0,0,0-1.74,1,3.26,3.26,0,0,0-.49,2.57l2.84,13.94a3.79,3.79,0,0,0,3.7,3.15l12.56-1a2.4,2.4,0,0,0,1.74-1,3.23,3.23,0,0,0,.49-2.56l-2.84-13.95A3.82,3.82,0,0,0,222.47,256Z" style="fill:#fff"></path><path d="M254.65,274.77l-12.56,1a4.27,4.27,0,0,1-4.23-3.55L235,258.32c-.43-2.11.77-4,2.68-4.12l12.56-1a4.28,4.28,0,0,1,4.23,3.55l2.84,13.94C257.76,272.77,256.56,274.61,254.65,274.77Z" style="fill:#fff"></path><path d="M241.83,276.32a4.84,4.84,0,0,1-4.46-4l-2.84-13.94a4.19,4.19,0,0,1,.68-3.36,3.35,3.35,0,0,1,2.45-1.35l12.56-1a4.77,4.77,0,0,1,4.76,3.94l2.84,13.94a4.25,4.25,0,0,1-.67,3.37,3.39,3.39,0,0,1-2.46,1.35l-12.56,1Zm8.69-22.67h-.22l-12.56,1a2.4,2.4,0,0,0-1.74,1,3.23,3.23,0,0,0-.49,2.56l2.84,13.94a3.78,3.78,0,0,0,3.7,3.15l12.56-1a2.39,2.39,0,0,0,1.74-.95,3.26,3.26,0,0,0,.49-2.57L254,256.81A3.82,3.82,0,0,0,250.52,253.65Z" style="fill:#fff"></path><path d="M177,313.81l-12.56,1a4.29,4.29,0,0,1-4.24-3.55l-2.83-13.94c-.43-2.12.77-4,2.67-4.12l12.57-1a4.28,4.28,0,0,1,4.23,3.55l2.83,13.94C180.09,311.8,178.9,313.65,177,313.81Z" style="fill:#fff"></path><path d="M164.17,315.36a4.86,4.86,0,0,1-4.47-4l-2.83-13.94a4.2,4.2,0,0,1,.67-3.37,3.35,3.35,0,0,1,2.45-1.35l12.57-1a4.78,4.78,0,0,1,4.76,3.95l2.83,13.94a4.19,4.19,0,0,1-.67,3.36A3.35,3.35,0,0,1,177,314.3h0l-12.56,1Zm8.69-22.67h-.22l-12.56,1a2.36,2.36,0,0,0-1.74.95,3.18,3.18,0,0,0-.49,2.57l2.83,13.94a3.81,3.81,0,0,0,3.71,3.15l12.56-1a2.38,2.38,0,0,0,1.73-1,3.16,3.16,0,0,0,.49-2.56l-2.83-13.94A3.83,3.83,0,0,0,172.86,292.69Z" style="fill:#fff"></path><path d="M205.05,311.48l-12.56,1a4.28,4.28,0,0,1-4.24-3.54l-2.83-14c-.43-2.11.77-4,2.68-4.12l12.56-1a4.28,4.28,0,0,1,4.23,3.55l2.83,13.94C208.15,309.48,207,311.32,205.05,311.48Z" style="fill:#fff"></path><path d="M192.23,313a4.85,4.85,0,0,1-4.47-3.95l-2.83-13.95a4.19,4.19,0,0,1,.67-3.36,3.35,3.35,0,0,1,2.45-1.35l12.57-1a4.77,4.77,0,0,1,4.76,3.94l2.83,13.94a4.2,4.2,0,0,1-.67,3.37,3.35,3.35,0,0,1-2.45,1.35h0l-12.56,1Zm8.69-22.67h-.22l-12.56,1a2.4,2.4,0,0,0-1.74,1,3.19,3.19,0,0,0-.49,2.56l2.83,13.95a3.78,3.78,0,0,0,3.71,3.14L205,311a2.34,2.34,0,0,0,1.73-1,3.18,3.18,0,0,0,.49-2.57l-2.83-13.94A3.83,3.83,0,0,0,200.92,290.36Z" style="fill:#fff"></path><path d="M233.11,309.16l-12.56,1a4.28,4.28,0,0,1-4.24-3.55l-2.83-13.94c-.43-2.12.77-4,2.68-4.12l12.56-1A4.28,4.28,0,0,1,233,291.1L235.78,305C236.21,307.16,235,309,233.11,309.16Z" style="fill:#fff"></path><path d="M220.29,310.71a4.85,4.85,0,0,1-4.47-4L213,292.81a4.21,4.21,0,0,1,.67-3.37,3.37,3.37,0,0,1,2.45-1.35l12.57-1a4.77,4.77,0,0,1,4.76,3.95l2.83,13.94a4.17,4.17,0,0,1-.67,3.37,3.35,3.35,0,0,1-2.45,1.35l-12.56,1ZM229,288h-.22l-12.56,1a2.43,2.43,0,0,0-1.74,1,3.22,3.22,0,0,0-.49,2.57l2.83,13.94a3.78,3.78,0,0,0,3.71,3.15l12.56-1a2.41,2.41,0,0,0,1.73-1,3.18,3.18,0,0,0,.49-2.57l-2.83-13.94A3.82,3.82,0,0,0,229,288Z" style="fill:#fff"></path><path d="M261.17,306.83l-12.56,1.05a4.3,4.3,0,0,1-4.24-3.55l-2.83-13.94c-.43-2.12.77-4,2.68-4.12l12.56-1a4.28,4.28,0,0,1,4.23,3.54l2.83,14C264.27,304.83,263.08,306.68,261.17,306.83Z" style="fill:#fff"></path><path d="M248.35,308.39a4.86,4.86,0,0,1-4.47-4l-2.83-13.94a4.2,4.2,0,0,1,.67-3.37,3.37,3.37,0,0,1,2.45-1.35l12.57-1a4.79,4.79,0,0,1,4.76,3.94l2.83,13.95a4.19,4.19,0,0,1-.67,3.36,3.35,3.35,0,0,1-2.45,1.35l-12.56,1ZM257,285.72h-.22l-12.56,1a2.36,2.36,0,0,0-1.74,1,3.21,3.21,0,0,0-.49,2.57l2.83,13.94a3.81,3.81,0,0,0,3.71,3.15l12.56-1a2.38,2.38,0,0,0,1.73-1,3.17,3.17,0,0,0,.49-2.57l-2.83-13.94A3.81,3.81,0,0,0,257,285.72Z" style="fill:#fff"></path><path d="M183.5,345.87l-12.56,1a4.28,4.28,0,0,1-4.23-3.55l-2.83-13.94c-.43-2.12.76-4,2.67-4.12l12.56-1a4.28,4.28,0,0,1,4.24,3.55l2.83,13.94C186.61,343.87,185.41,345.71,183.5,345.87Z" style="fill:#263238"></path><path d="M211.57,343.55l-12.57,1a4.28,4.28,0,0,1-4.23-3.55l-2.83-13.94c-.43-2.12.76-4,2.67-4.12l12.56-1a4.28,4.28,0,0,1,4.24,3.55l2.83,13.94C214.67,341.54,213.47,343.39,211.57,343.55Z" style="fill:#263238"></path><path d="M239.63,341.22l-12.57,1a4.28,4.28,0,0,1-4.23-3.55L220,324.77c-.43-2.11.76-4,2.67-4.12l12.56-1a4.29,4.29,0,0,1,4.24,3.55l2.83,13.94C242.73,339.22,241.53,341.06,239.63,341.22Z" style="fill:#263238"></path><path d="M267.69,338.9l-12.57,1a4.28,4.28,0,0,1-4.23-3.55l-2.83-13.94c-.43-2.12.76-4,2.67-4.12l12.56-1a4.28,4.28,0,0,1,4.24,3.55l2.83,13.94C270.79,336.9,269.59,338.74,267.69,338.9Z" style="fill:#263238"></path><path d="M196.25,225.84c-3.74,0-7.35-3.18-8.19-7.33l-5.76-28.32a7.63,7.63,0,0,1,1.21-6.13,5.93,5.93,0,0,1,4.34-2.39l25.52-2.12c3.93-.32,7.85,3,8.73,7.31l5.76,28.32a7.66,7.66,0,0,1-1.2,6.13,6,6,0,0,1-4.35,2.39l-25.52,2.12Zm17.66-46.06-.52,0-25.52,2.12a5.71,5.71,0,0,0-4.16,2.29,7.35,7.35,0,0,0-1.16,5.93l5.75,28.32c.86,4.23,4.66,7.41,8.47,7.11l25.52-2.12a5.75,5.75,0,0,0,4.17-2.29,7.42,7.42,0,0,0,1.16-5.93l-5.76-28.32C221,182.87,217.54,179.78,213.91,179.78Z" style="fill:#263238"></path><path d="M197.55,222.58c-3.26,0-6.4-2.76-7.13-6.37l-4.91-24.16a6.66,6.66,0,0,1,1.05-5.34,5.23,5.23,0,0,1,3.81-2.1l21.77-1.8c3.42-.29,6.84,2.56,7.61,6.35l4.91,24.16a6.66,6.66,0,0,1-1.06,5.34,5.23,5.23,0,0,1-3.81,2.1L198,222.56A3.7,3.7,0,0,1,197.55,222.58Zm15.07-39.29a3.24,3.24,0,0,0-.44,0l-21.77,1.8A4.73,4.73,0,0,0,187,187a6.15,6.15,0,0,0-1,4.94l4.91,24.16c.72,3.55,3.87,6.2,7.07,5.95l21.77-1.8a4.71,4.71,0,0,0,3.45-1.9,6.15,6.15,0,0,0,1-4.94l-4.92-24.16C218.57,185.87,215.65,183.29,212.62,183.29Z" style="fill:#263238"></path><path d="M199.26,218.24a6.2,6.2,0,0,1-5.69-5.06l-3.79-18.68a5.32,5.32,0,0,1,.84-4.27,4.22,4.22,0,0,1,3.08-1.69l16.82-1.4c2.73-.22,5.46,2,6.07,5.05l3.8,18.68a5.32,5.32,0,0,1-.85,4.27,4.2,4.2,0,0,1-3.07,1.69l-16.83,1.4Zm11.65-30.36h-.33l-16.82,1.39a3.49,3.49,0,0,0-2.54,1.4,4.56,4.56,0,0,0-.71,3.67l3.8,18.68c.54,2.65,2.9,4.65,5.27,4.45l16.83-1.39a3.49,3.49,0,0,0,2.53-1.4,4.56,4.56,0,0,0,.71-3.67l-3.79-18.68A5.43,5.43,0,0,0,210.91,187.88Z" style="fill:#263238"></path><path d="M213.56,213,201,214a4.28,4.28,0,0,1-4.24-3.55l-2.83-13.94c-.43-2.12.77-4,2.67-4.12l12.57-1a4.28,4.28,0,0,1,4.23,3.55l2.83,13.94C216.66,211,215.47,212.81,213.56,213Z" style="fill:#263238"></path></g><g id="freepik--Character--inject-630"><path d="M402.72,164.78c-4-3.22-8.09-6.28-12.16-9.39l-86.63,13.06,6.89,32.15,55.87,53.58-19.13,59.7L386.61,356c8.35-8.52,17.73-16.16,26.12-24.58,39-39.17,37.69-113.78,2.41-154.85A95.41,95.41,0,0,0,402.72,164.78Z" style="opacity:0.1"></path><path d="M283.7,215.18S237.78,204.51,235.2,204s-13.2-3.68-15.69-3.58-11.4,1.3-13.1,2.21-1.13,1.74-.23,1.62l9.36-1.26,4.91,2.75s-3,3-3.19,5c-.42,5-.31,6.17.8,6s1.26-5.84,1.26-5.84l.84-.57.78,4.21s1.09,1.46,1.7-.19c.42-1.15-.42-3.84-.42-3.84l1.64-1.35s.41,3.49,1.2,3.92,1.23,0,1.14-.66-.48-3.27-.48-3.27l2.9-1.76s46.67,19.64,51.53,20.35a27.85,27.85,0,0,0,9.9-.64Z" style="fill:#fff"></path><path d="M283.18,228.39a21.92,21.92,0,0,1-3.1-.21c-4.75-.7-47.43-18.62-51.42-20.29l-2.4,1.46c.11.72.36,2.42.43,2.94a1.19,1.19,0,0,1-.47,1.18,1.33,1.33,0,0,1-1.4,0c-.72-.39-1.13-2.13-1.33-3.41l-.7.58c.23.8.7,2.77.31,3.83-.24.66-.61,1-1.09,1.1-.77.12-1.4-.69-1.47-.78a.67.67,0,0,1-.09-.21l-.64-3.41c-.09,2.73-.46,5.86-1.68,6a1.2,1.2,0,0,1-1-.29c-.67-.64-.67-2.12-.32-6.27.14-1.68,2-3.86,2.88-4.81l-4.2-2.35-9.2,1.23a1.2,1.2,0,0,1-1.38-.69c-.11-.37-.1-1.1,1.32-1.87,1.85-1,11-2.16,13.31-2.26,1.84-.08,7.78,1.49,12.1,2.64,1.61.43,3,.79,3.72,1,2.55.56,48,11.12,48.5,11.23a.49.49,0,0,1,.33.25l6.35,11.87a.5.5,0,0,1,0,.43.47.47,0,0,1-.33.28A29.29,29.29,0,0,1,283.18,228.39Zm-54.56-21.56a.43.43,0,0,1,.19,0c.47.19,46.67,19.62,51.41,20.32a27.16,27.16,0,0,0,9.08-.48l-5.93-11.1c-3.46-.8-45.83-10.63-48.27-11.17-.74-.16-2.08-.52-3.76-1-4-1.07-10.1-2.68-11.81-2.61-2.48.11-11.29,1.29-12.88,2.15-.66.35-.82.63-.83.69s.06,0,.17,0h.12l9.37-1.25a.48.48,0,0,1,.31.06l4.91,2.75a.5.5,0,0,1,.25.37.51.51,0,0,1-.15.42c-.8.79-2.92,3.16-3.05,4.65-.15,1.89-.42,5.05,0,5.47a.38.38,0,0,0,.22,0c.36-.26.77-2.78.83-5.36a.53.53,0,0,1,.22-.4l.83-.57a.54.54,0,0,1,.48-.05.53.53,0,0,1,.3.37l.76,4.08c.16.18.35.33.46.31s.16-.1.3-.45a7.91,7.91,0,0,0-.43-3.52.51.51,0,0,1,.16-.53l1.64-1.36a.53.53,0,0,1,.5-.08.51.51,0,0,1,.31.41c.21,1.68.65,3.34,1,3.55a.37.37,0,0,0,.35,0s.06-.11,0-.22c-.09-.67-.48-3.25-.48-3.25a.48.48,0,0,1,.24-.5l2.9-1.77A.48.48,0,0,1,228.62,206.83Z" style="fill:#263238"></path><path d="M418,241.84s-3.12,5-2.31,5.36,4.06-3.57,4.06-3.57l-1.6,5s-.11,1,1.74-.23,1.41-4.48,1.41-4.48l.2,5.27s-1.25,1.94.48,1.71,1.95-4.3,1.79-5.54a9.71,9.71,0,0,0-2.05-4C420.78,240.21,418.3,240.54,418,241.84Z" style="fill:#fff"></path><path d="M421.7,251.41a1.1,1.1,0,0,1-1-.46c-.38-.61,0-1.48.28-1.89l0-1a3.05,3.05,0,0,1-.79.77c-1,.69-1.67.87-2.13.59a.85.85,0,0,1-.39-.82l.9-2.82c-2.2,2.31-2.84,2-3.08,1.89a.72.72,0,0,1-.38-.47c-.29-1,1.58-4.17,2.45-5.54a2.22,2.22,0,0,1,1.77-1.41,2.87,2.87,0,0,1,2.8.8,10.13,10.13,0,0,1,2.15,4.26,11.3,11.3,0,0,1-.18,3.32c-.45,2.13-1.35,2.69-2,2.78A1.89,1.89,0,0,1,421.7,251.41Zm-.15-1a1.32,1.32,0,0,0,.34,0c.5-.07.93-.8,1.18-2a10.53,10.53,0,0,0,.17-3,9.44,9.44,0,0,0-1.94-3.77,1.87,1.87,0,0,0-1.81-.45,1.3,1.3,0,0,0-1,.76.35.35,0,0,1-.06.14,23.15,23.15,0,0,0-2.34,4.55,20.61,20.61,0,0,0,3.28-3.35.51.51,0,0,1,.63-.12.5.5,0,0,1,.24.59l-1.5,4.7a4.57,4.57,0,0,0,.87-.49,3.72,3.72,0,0,0,1.24-3l0-1.05a.5.5,0,0,1,.46-.51.5.5,0,0,1,.54.43,8,8,0,0,1,.05,1.13l.15,4.18a.46.46,0,0,1-.08.3,1.88,1.88,0,0,0-.35.94ZM416,246.92h0Zm1.94-5.08h0Z" style="fill:#263238"></path><path d="M383.42,200.26s5.68,1.05,8.67,2.67,25.89,25.8,26.5,28.49a24.66,24.66,0,0,0,3.58,7.84c1.22,1.61,5.14,6.38,5.4,8.36s-.53,3.6-1.47,2.22-3.14-4.63-4.83-5.92-6.87-2.36-6.87-2.36a25.67,25.67,0,0,1-.36,4.84c-.45,2.33-2.2,4.33-2.36,3.09a32.5,32.5,0,0,1-.37-6.5c.2-2.3.17-6.33.17-6.33l.67-4.38S397,222.7,391.3,219.68s-10.94-6.36-10.94-6.36l-3.57-.28s.17-6.32,2.35-8.88A21.17,21.17,0,0,1,383.42,200.26Z" style="fill:#fff"></path><path d="M426.79,250.86a1.35,1.35,0,0,1-1.1-.74c-.93-1.37-3.1-4.56-4.72-5.8-1.25-.95-4.66-1.81-6.06-2.13a25.35,25.35,0,0,1-.38,4.31c-.34,1.78-1.52,3.91-2.58,3.87a.82.82,0,0,1-.77-.81,33.8,33.8,0,0,1-.37-6.62c.2-2.24.17-6.24.17-6.28l.63-4.13c-2.09-1.32-15.35-9.65-20.55-12.41S381,214.3,380.2,213.81l-3.45-.27a.5.5,0,0,1-.46-.51c0-.26.2-6.53,2.46-9.2a21.79,21.79,0,0,1,4.4-4,.49.49,0,0,1,.36-.07c.23,0,5.79,1.08,8.82,2.72s26.07,25.81,26.75,28.82a24.54,24.54,0,0,0,3.48,7.65l.59.75c2.26,2.9,4.69,6.13,4.92,7.85.17,1.31-.05,2.89-.95,3.23A.81.81,0,0,1,426.79,250.86Zm-12.39-9.8h.1c.22.05,5.32,1.11,7.08,2.46s4,4.62,4.93,6c.18.27.29.31.29.31a3.18,3.18,0,0,0,.27-2.17c-.21-1.6-3.25-5.49-4.71-7.36l-.59-.76a25.15,25.15,0,0,1-3.66-8c-.51-2.23-23.09-26.44-26.26-28.16a36.08,36.08,0,0,0-8.33-2.58,21.88,21.88,0,0,0-4,3.69c-1.71,2-2.12,6.61-2.21,8.1l3.09.25a.48.48,0,0,1,.23.07c.05,0,5.29,3.36,10.9,6.34s20.74,12.52,20.89,12.62a.49.49,0,0,1,.23.5l-.68,4.37c0,.09,0,4-.16,6.3a31.61,31.61,0,0,0,.34,6.19,6,6,0,0,0,1.4-2.91,24.79,24.79,0,0,0,.35-4.73.52.52,0,0,1,.18-.4A.47.47,0,0,1,414.4,241.06Z" style="fill:#263238"></path><g style="clip-path:url(#freepik--clip-path-6--inject-630)"><path d="M418.59,231.42c-.61-2.69-23.51-26.87-26.5-28.49s-8.67-2.67-8.67-2.67a21.17,21.17,0,0,0-4.28,3.9c-2.18,2.56-2.35,8.88-2.35,8.88l3.57.28s.68.44,1.8,1.12l2.63-7.57s25.47,19.1,28,21.33,5.28,6.12,7.32,8.59a14,14,0,0,0,1.29,1.35A25.57,25.57,0,0,1,418.59,231.42Z" style="fill:#904AE9"></path><path d="M418.59,231.42c-.61-2.69-23.51-26.87-26.5-28.49s-8.67-2.67-8.67-2.67a21.17,21.17,0,0,0-4.28,3.9c-2.18,2.56-2.35,8.88-2.35,8.88l3.57.28s.68.44,1.8,1.12l2.63-7.57s25.47,19.1,28,21.33,5.28,6.12,7.32,8.59a14,14,0,0,0,1.29,1.35A25.57,25.57,0,0,1,418.59,231.42Z" style="fill:#fff;opacity:0.5"></path></g><path d="M347.15,264.93l1,12.73s-4.73,42,4.71,54.11,39.91,43.85,39.91,43.85l4.79-5.69s-17-33-20.17-37.66-8.33-17-8.33-17,10.54-43.79,11.28-47.67.35-14.42.21-15.41-11.95,4.87-18.94,7.32S347.15,264.93,347.15,264.93Z" style="fill:#263238"></path><path d="M392.72,376.12a.48.48,0,0,1-.36-.16c-.31-.31-30.6-31.9-39.95-43.88s-5-52.75-4.81-54.47l-1-12.65a.52.52,0,0,1,.31-.5c.08,0,7.51-3,14.43-5.46,2.94-1,6.8-2.69,10.19-4.16,6.7-2.88,8.47-3.57,9.12-3.21a.74.74,0,0,1,.3.45c.13,1,.55,11.57-.21,15.57-.72,3.78-10.45,44.2-11.26,47.53.6,1.43,5.33,12.55,8.22,16.81,3.13,4.6,19.51,36.36,20.2,37.71a.5.5,0,0,1-.06.55l-4.79,5.69a.51.51,0,0,1-.37.18Zm-45-110.87.92,12.38c-.05.51-4.6,42,4.6,53.83,8.74,11.21,35.93,39.69,39.49,43.41l4.22-5c-1.71-3.31-17.05-33-20-37.32-3.14-4.61-8.17-16.62-8.38-17.13a.55.55,0,0,1,0-.31c.11-.44,10.55-43.82,11.28-47.64.68-3.55.39-12.84.24-14.91a74.46,74.46,0,0,0-8.06,3.2c-3.41,1.47-7.28,3.14-10.26,4.18C355.67,262.06,349.21,264.64,347.68,265.25Z" style="fill:#263238"></path><path d="M365.23,268.06s-3.29,3.72-2.41,4.61l.87.89s-18.46,24.16-20.89,30.54-7.19,21.64-7.09,22.39,3.22,3.35,5.24,3.33,64.38,4.26,64.38,4.26l1.43-6.24-45.3-14.38s27.23-39.71,28.5-43.41-.35-15.84-.58-17.58-2.58-4.19-4.56-3.93-19,12.38-19,12.38" style="fill:#263238"></path><path d="M405.33,334.58h0c-.62,0-62.13-4.26-64.33-4.26h0c-2.14,0-5.57-2.64-5.72-3.77s5-16.89,7.13-22.63c2.29-6,18.34-27.22,20.69-30.32l-.57-.58c-1-1.06,1.05-3.77,2.39-5.29a.5.5,0,0,1,.71,0,.48.48,0,0,1,0,.7c-1.44,1.63-2.62,3.55-2.42,3.94l.87.88a.51.51,0,0,1,0,.66c-.18.24-18.45,24.17-20.82,30.41-2.46,6.48-7,21.15-7.06,22.18.16.52,3,2.86,4.71,2.86h0c2.17,0,58.05,3.83,64,4.23l1.23-5.38-44.86-14.23a.51.51,0,0,1-.32-.32.46.46,0,0,1,.06-.44c9.4-13.72,27.45-40.41,28.44-43.29,1.14-3.34-.18-14.12-.61-17.35a4.52,4.52,0,0,0-1.47-2.41,3.32,3.32,0,0,0-2.53-1.09c-1.35.18-12.25,7.63-18.8,12.29a.5.5,0,0,1-.7-.12.49.49,0,0,1,.12-.69c1.75-1.25,17.2-12.2,19.25-12.47a4.31,4.31,0,0,1,3.34,1.34,5.54,5.54,0,0,1,1.78,3c.56,4.2,1.75,14.35.56,17.8s-24.74,38-28.18,43l44.66,14.17a.5.5,0,0,1,.34.59l-1.44,6.24A.49.49,0,0,1,405.33,334.58Z" style="fill:#263238"></path><path d="M347.33,295.64a.46.46,0,0,1-.27-.09.5.5,0,0,1-.14-.69l15.91-23.68c.3-.73,3.4-7.64,12.91-9.53a.5.5,0,0,1,.58.4.48.48,0,0,1-.39.58c-9.3,1.85-12.16,8.9-12.19,9l-.05.1-15.94,23.72A.51.51,0,0,1,347.33,295.64Z" style="fill:#fff"></path><path d="M365.13,265.1a.51.51,0,0,1-.41-.2.51.51,0,0,1,.11-.7c.52-.38,12.71-9.23,19.88-7.66a.5.5,0,0,1,.38.6.49.49,0,0,1-.59.38c-6.72-1.47-19,7.4-19.08,7.48A.46.46,0,0,1,365.13,265.1Z" style="fill:#fff"></path><path d="M350.84,321.87a.52.52,0,0,1-.33-.12.51.51,0,0,1-.05-.71l20.41-23.84a.5.5,0,0,1,.76.65l-20.41,23.84A.49.49,0,0,1,350.84,321.87Z" style="fill:#fff"></path><path d="M365.18,315.21l-.12,0-6.65-1.59a.5.5,0,0,1-.37-.6.49.49,0,0,1,.6-.37l6.65,1.59a.5.5,0,0,1-.11,1Z" style="fill:#fff"></path><path d="M313.72,207.08c-13.5,4.3-12.83,4.21-12.83,4.21l-19.6,2.85L290,231.37,312.78,234s22.34,21.08,26.53,21.89,6.67,5.69,6.67,5.69-1.65,2.94.56,4.24,5.43,1.54,12.23-.27,16.49-7.43,21-11,11-7.82,8.94-9.59a21.46,21.46,0,0,0-6.08-3.05l-20.84-21.73,17.2,1.33s-.19-10,.06-13.17,4.37-8.08,4.37-8.08-22-1.6-28.27-2.58-12.35-.62-14.9.63-14.17,4.39-14.84,4.48S313.72,207.08,313.72,207.08Z" style="fill:#fff"></path><path d="M350.94,267.34a9,9,0,0,1-4.65-1.1c-2-1.14-1.48-3.42-.88-4.66-.53-.94-2.79-4.56-6.19-5.21-4.17-.8-24.7-20.05-26.67-21.9l-22.93-2.64-9.09-18.09,20.29-2.94v0h0v0c1-.48,4-1.43,12.72-4.22,1.88-.72,11.1-4.22,11.79-4.31s12.26-3.25,14.69-4.44c2.78-1.36,9-1.64,15.19-.67s28,2.56,28.23,2.57l1,.07-.63.75s-4,4.78-4.26,7.8-.05,13-.05,13.12v.55l-16.45-1.27,19.85,20.7a21.07,21.07,0,0,1,6.14,3.1,1.53,1.53,0,0,1,.56,1.25c-.06,1.92-3.54,4.56-7.22,7.36-.79.59-1.57,1.18-2.3,1.76-4.36,3.43-14.15,9.19-21.19,11.07A32,32,0,0,1,350.94,267.34ZM290.27,230.9,313,233.52l.12.11c6.18,5.84,23,21.12,26.29,21.75,4.38.84,6.91,5.75,7,6l.12.24-.13.23c-.05.11-1.38,2.54.38,3.57s4.36,1.67,11.85-.33c6.9-1.84,16.53-7.51,20.82-10.89.74-.58,1.52-1.17,2.31-1.77,3-2.3,6.79-5.15,6.83-6.59a.53.53,0,0,0-.22-.46,21.06,21.06,0,0,0-5.91-3l-.12,0-.09-.09-21.74-22.68,18,1.39c0-2.15-.15-9.87.07-12.67.2-2.6,2.7-6.09,3.88-7.61-4.29-.32-21.9-1.66-27.36-2.51-5.89-.93-12-.68-14.6.58s-14.23,4.43-15,4.53c-.56.1-7.39,2.66-11.57,4.26h0c-11.46,3.66-12.63,4.12-12.75,4.18l-.21-.45h0l.07.5-18.91,2.74Z" style="fill:#263238"></path><g style="clip-path:url(#freepik--clip-path-7--inject-630)"><path d="M355.15,197.68c-6.26-1-12.35-.62-14.9.63s-14.17,4.39-14.84,4.48c-.13,0-.61.18-1.3.42l2.26,6.45,6.2-1.84S345.31,205,351,205s27.7,1.92,27.7,1.92l.69-.16a26.22,26.22,0,0,1,4-6.45S361.41,198.66,355.15,197.68Z" style="fill:#904AE9"></path><path d="M355.15,197.68c-6.26-1-12.35-.62-14.9.63s-14.17,4.39-14.84,4.48c-.13,0-.61.18-1.3.42l2.26,6.45,6.2-1.84S345.31,205,351,205s27.7,1.92,27.7,1.92l.69-.16a26.22,26.22,0,0,1,4-6.45S361.41,198.66,355.15,197.68Z" style="fill:#fff;opacity:0.5"></path><path d="M388.71,245a21.46,21.46,0,0,0-6.08-3.05L363,221.4l-5.2-1.73-18.34,3,32.16,12.26c-.58.12-1.85.41-4.49,1.07-6.67,1.67-27.33,0-27.33,0s15.66,6.33,23.66,9.33,11,2.34,6.34,4.67-10.34,3.67-26,2.33c-4.09-.34-7.87-.65-11.24-.9,3.08,2.45,5.63,4.22,6.79,4.45,4.2.8,6.67,5.69,6.67,5.69s-1.65,2.94.56,4.24,5.43,1.54,12.23-.27,16.49-7.43,21-11S390.76,246.73,388.71,245Z" style="fill:#904AE9"></path><path d="M388.71,245a21.46,21.46,0,0,0-6.08-3.05L363,221.4l-5.2-1.73-18.34,3,32.16,12.26c-.58.12-1.85.41-4.49,1.07-6.67,1.67-27.33,0-27.33,0s15.66,6.33,23.66,9.33,11,2.34,6.34,4.67-10.34,3.67-26,2.33c-4.09-.34-7.87-.65-11.24-.9,3.08,2.45,5.63,4.22,6.79,4.45,4.2.8,6.67,5.69,6.67,5.69s-1.65,2.94.56,4.24,5.43,1.54,12.23-.27,16.49-7.43,21-11S390.76,246.73,388.71,245Z" style="fill:#fff;opacity:0.5"></path></g><polyline points="327.54 222.91 335.87 234.58 338.05 232.6 331.97 225.14" style="fill:#fff"></polyline><path d="M335.87,235.08h-.05a.47.47,0,0,1-.36-.21l-8.33-11.67a.5.5,0,0,1,.12-.7.52.52,0,0,1,.7.12l8,11.21,1.41-1.28-5.77-7.09a.5.5,0,0,1,.07-.71.5.5,0,0,1,.7.07l6.07,7.47a.49.49,0,0,1-.05.68l-2.17,2A.5.5,0,0,1,335.87,235.08Z" style="fill:#263238"></path><path d="M312.78,234.49a.48.48,0,0,1-.26-.07l-18.34-11.17a.5.5,0,1,1,.52-.85L309,231.08l-8.49-8a.5.5,0,1,1,.69-.73l12,11.27a.49.49,0,0,1,.05.67A.47.47,0,0,1,312.78,234.49Z" style="fill:#263238"></path><path d="M361.79,220.68h-.09L346.84,218a.5.5,0,0,1,.18-1l14.86,2.68a.5.5,0,0,1,.4.58A.51.51,0,0,1,361.79,220.68Z" style="fill:#263238"></path><path d="M345.3,221.23a.5.5,0,0,1,0-1l15-.68a.49.49,0,0,1,.53.47.5.5,0,0,1-.48.52l-14.95.69Z" style="fill:#263238"></path><path d="M375,241.7c.74-.06,1.48-.13,2.21-.23" style="fill:#fff"></path><path d="M375,242.2a.5.5,0,0,1,0-1c.73-.06,1.46-.14,2.18-.24a.51.51,0,0,1,.57.43.5.5,0,0,1-.43.56c-.74.1-1.49.18-2.24.24Z" style="fill:#263238"></path><path d="M370.7,242.37A95.07,95.07,0,0,1,347.34,239a.5.5,0,0,1-.34-.62.51.51,0,0,1,.62-.34c.13,0,13.13,3.83,25.33,3.33a.49.49,0,0,1,.52.48.5.5,0,0,1-.48.52C372.23,242.36,371.46,242.37,370.7,242.37Z" style="fill:#263238"></path><path d="M314.75,209.67a108.41,108.41,0,0,1,2.86,11.19c.44,3.35-1.18,6.52.8,6s1.9-6.15,1.9-6.15l7.24,1.53,3.21-6.56s5.94,5.33,5.8,2.63S330.33,204,330,201.27s-3.63-3.37-5.87-1.48S314.75,209.67,314.75,209.67Z" style="fill:#fff"></path><path d="M318.05,227.43a1,1,0,0,1-.73-.25c-.55-.48-.45-1.41-.3-2.7a14.72,14.72,0,0,0,.09-3.55,109.88,109.88,0,0,0-2.84-11.12l-.08-.27.18-.21c.3-.32,7.16-8,9.41-9.92a4.64,4.64,0,0,1,4.56-.93,3.32,3.32,0,0,1,2.13,2.73c.16,1.18,1.62,4.5,3,7.7,1.79,4.05,3.48,7.86,3.55,9.39a1.11,1.11,0,0,1-.57,1.19c-1.2.56-4-1.63-5.56-3l-3.1,6.32-7-1.49c0,1.7-.34,5.55-2.28,6A2.1,2.1,0,0,1,318.05,227.43Zm-.07-1a.6.6,0,0,0,.31,0c1.1-.27,1.55-3.48,1.52-5.67v-.62l7.48,1.58,3.33-6.81.49.45c2.14,1.92,4.44,3.43,5,3.26,0,0,0-.08,0-.24-.07-1.34-1.88-5.43-3.47-9-1.52-3.42-3-6.65-3.12-8a2.3,2.3,0,0,0-1.5-1.92,3.62,3.62,0,0,0-3.56.75c-2,1.68-8,8.35-9.11,9.62a100.3,100.3,0,0,1,2.79,11,15.11,15.11,0,0,1-.09,3.79,4.92,4.92,0,0,0,0,1.84Z" style="fill:#263238"></path><g style="clip-path:url(#freepik--clip-path-8--inject-630)"><path d="M330,201.27c-.36-2.67-3.63-3.37-5.87-1.48a11.82,11.82,0,0,0-.9.83l3.17,9,6.12-1.82A39.13,39.13,0,0,1,330,201.27Z" style="fill:#904AE9"></path><path d="M330,201.27c-.36-2.67-3.63-3.37-5.87-1.48a11.82,11.82,0,0,0-.9.83l3.17,9,6.12-1.82A39.13,39.13,0,0,1,330,201.27Z" style="fill:#fff;opacity:0.5"></path></g><path d="M305.51,206.81a63,63,0,0,0,7,2.93c2.6.79,15.51,15.86,15.06,12.52s-1.28-16.41-2.14-19.47a83.08,83.08,0,0,0-3.43-8.62s2.09-1.42-1.28-2.78-6,1.25-5.78,2.59.57,4.23-.3,4.58S305.51,206.81,305.51,206.81Z" style="fill:#fff"></path><path d="M327.33,223.24c-1,0-2.83-1.68-7.79-6.59-2.89-2.87-6.17-6.12-7.2-6.43a62.05,62.05,0,0,1-7-3l-.64-.31.52-.5c1.95-1.87,8.38-8,9.27-8.36.14-.1.43-.7,0-4a3,3,0,0,1,1.38-2.52,5,5,0,0,1,5.08-.61c1.41.58,2.14,1.25,2.22,2.05a1.68,1.68,0,0,1-.52,1.33,74.74,74.74,0,0,1,3.3,8.36c.58,2.07,1.14,8.46,1.59,13.6.23,2.58.42,4.81.57,5.93.08.63-.21.88-.39,1A.73.73,0,0,1,327.33,223.24Zm-20.95-16.57a56.56,56.56,0,0,0,6.25,2.59c1.18.36,3.66,2.76,7.61,6.67,2.41,2.39,5.63,5.58,6.8,6.2-.15-1.18-.34-3.33-.56-5.78-.44-5.1-1-11.44-1.55-13.42a81.74,81.74,0,0,0-3.4-8.55l-.18-.39.35-.24c.12-.08.45-.38.42-.68s-.22-.66-1.6-1.22a4,4,0,0,0-4.1.47,2.17,2.17,0,0,0-1,1.59c.38,2.86.41,4.71-.61,5.11C314.25,199.29,310.15,203.07,306.38,206.67Z" style="fill:#263238"></path><g style="clip-path:url(#freepik--clip-path-9--inject-630)"><path d="M325.41,202.79a83.08,83.08,0,0,0-3.43-8.62s2.09-1.42-1.28-2.78-6,1.25-5.78,2.59.57,4.23-.3,4.58c-.57.22-4.39,3.78-6.9,6.15l-.3,1.84,18.95,3.11A54.28,54.28,0,0,0,325.41,202.79Z" style="fill:#904AE9"></path><path d="M325.41,202.79a83.08,83.08,0,0,0-3.43-8.62s2.09-1.42-1.28-2.78-6,1.25-5.78,2.59.57,4.23-.3,4.58c-.57.22-4.39,3.78-6.9,6.15l-.3,1.84,18.95,3.11A54.28,54.28,0,0,0,325.41,202.79Z" style="fill:#fff;opacity:0.5"></path></g><path d="M298,179.22a21.66,21.66,0,0,1-7.16-2.68c-2.76-1.9-1.7-5.9,1.24-7.66s6.47-4.27,10.32-4.33,5.09,4.09,7.82,4.18,10-3.16,14.1.16,3.59,15,2.1,17.42-4.4,7.86-4.4,7.86-2.35-.6-4.22-1-.65-1.5-2.63-1-4,1-5.73-.37-2.2-2.88-3.27-4.1-3-3.91-2.69-4.86a19.73,19.73,0,0,0,.44-3.47Z" style="fill:#263238"></path><path d="M322.24,194.75l-.38-.1s-2.34-.59-4.21-1a2.14,2.14,0,0,1-1.54-1l-.09-.13a1.81,1.81,0,0,0-.77.11c-2.06.51-4.19,1-6.15-.46a9.5,9.5,0,0,1-2.38-2.8,10.52,10.52,0,0,0-1-1.37s-3.32-3.81-2.79-5.35a14.53,14.53,0,0,0,.39-2.82l-5.47-.11a21.59,21.59,0,0,1-7.37-2.76,4.07,4.07,0,0,1-1.81-3.6,6.18,6.18,0,0,1,3.09-4.9l1.18-.72c2.77-1.7,5.9-3.62,9.38-3.68,2.27-.05,3.75,1.3,5,2.47,1,.9,1.79,1.67,2.84,1.71a16.36,16.36,0,0,0,3.17-.5c3.43-.74,8.13-1.75,11.23.77,4.22,3.43,3.86,15.34,2.21,18.07-1.46,2.43-4.36,7.78-4.39,7.84Zm-6.32-3.24a1.11,1.11,0,0,1,1,.58c.14.22.27.42.92.57,1.42.32,3.12.74,3.86.93.67-1.23,3-5.44,4.23-7.53,1.45-2.41,1.71-13.77-2-16.79-2.73-2.21-7.16-1.26-10.39-.56a17.18,17.18,0,0,1-3.41.52c-1.42,0-2.47-1-3.49-2-1.16-1.09-2.37-2.21-4.24-2.21h-.07c-3.21,0-6.22,1.9-8.88,3.53l-1.19.73a5.16,5.16,0,0,0-2.6,4.08,3.07,3.07,0,0,0,1.38,2.74,21,21,0,0,0,6.93,2.59l6.4.12,0,.52a18.48,18.48,0,0,1-.47,3.6c-.18.51,1.11,2.68,2.6,4.37a13.24,13.24,0,0,1,1.06,1.5,8.72,8.72,0,0,0,2.14,2.54c1.58,1.2,3.38.75,5.3.28A4,4,0,0,1,315.92,191.51Z" style="fill:#263238"></path><path d="M324,182.69a.49.49,0,0,1-.34-.14c-4-3.86-14-4.8-14.11-4.81a.51.51,0,0,1-.46-.55.52.52,0,0,1,.55-.45c.42,0,10.43,1,14.71,5.09a.49.49,0,0,1,0,.7A.48.48,0,0,1,324,182.69Z" style="fill:#fff"></path><path d="M323.77,186.38a.46.46,0,0,1-.33-.13,15.51,15.51,0,0,0-2-1.48.51.51,0,0,1,.53-.86,16.64,16.64,0,0,1,2.17,1.59.5.5,0,0,1-.33.88Z" style="fill:#fff"></path><path d="M318.52,183.28a.63.63,0,0,1-.19,0,33.31,33.31,0,0,0-8.81-2.08.5.5,0,0,1-.47-.53.49.49,0,0,1,.54-.46,33.5,33.5,0,0,1,9.11,2.14.5.5,0,0,1-.18,1Z" style="fill:#fff"></path><path d="M322.8,179.17a.48.48,0,0,1-.4-.21,9.58,9.58,0,0,0-2.69-2.25.5.5,0,0,1,.51-.86,9.9,9.9,0,0,1,3,2.54.49.49,0,0,1-.12.69A.48.48,0,0,1,322.8,179.17Z" style="fill:#fff"></path><path d="M297.2,177a3.77,3.77,0,0,1-2.07-.6,2.4,2.4,0,0,1-1.25-1.94c-.11-2,2.47-4.13,2.77-4.36a.5.5,0,0,1,.7.08.52.52,0,0,1-.08.71c-.69.54-2.46,2.23-2.39,3.52a1.42,1.42,0,0,0,.79,1.14c1.29.81,2.56.4,4.66-.3a29.78,29.78,0,0,1,9.92-1.76,20.35,20.35,0,0,1,8.19,1.5.5.5,0,0,1,.26.65.51.51,0,0,1-.66.27,19.12,19.12,0,0,0-7.78-1.42,28.72,28.72,0,0,0-9.62,1.71A11.39,11.39,0,0,1,297.2,177Z" style="fill:#fff"></path><path d="M296.19,177.86s-2,7.12-1.63,8.17a23.44,23.44,0,0,1,.92,3.51l-2.78,4.68s.47,1.76,1.39,1.86a13.45,13.45,0,0,1,3.14,1.4s2.68,9.86,3.63,10.18,3.14,1.4,4,.83,11-7.82,12.2-8.89.73-6.46.73-6.46,3.12-3.82,1.87-6.38-4.09-1.72-5,.21-1.21,2.89-1.21,2.89-2.17.74-2.57-.57l-.4-1.3s-3.8-2.9-3.89-3.57,1.25-7.66,1.25-7.66Z" style="fill:#fff"></path><path d="M304.18,209.16a8.9,8.9,0,0,1-2.85-.78l-.63-.25c-.79-.27-2.11-3.74-3.9-10.32a11.42,11.42,0,0,0-2.77-1.23c-1.23-.14-1.75-2-1.81-2.23l-.05-.2,2.79-4.71a22.77,22.77,0,0,0-.87-3.23c-.43-1.12,1.13-6.78,1.62-8.48l.1-.33,12.66-1.2-.13.65c-.54,2.82-1.28,7-1.24,7.51a25.17,25.17,0,0,0,3.69,3.23l.13.1.45,1.46a.49.49,0,0,0,.25.31,2.42,2.42,0,0,0,1.46,0c.15-.4.5-1.29,1.13-2.68a3.55,3.55,0,0,1,3.09-2.11,3.09,3.09,0,0,1,2.78,1.88c1.24,2.53-1.2,6-1.8,6.76.1,1.27.35,5.56-.92,6.67s-11.41,8.36-12.25,8.94A1.66,1.66,0,0,1,304.18,209.16Zm-10.93-14.87c.18.57.56,1.26.89,1.29a13.47,13.47,0,0,1,3.34,1.47l.17.1.06.2c1.21,4.47,2.81,9.39,3.38,9.87a4.74,4.74,0,0,1,.6.23c.78.3,2.4.94,2.86.63.83-.56,11-7.82,12.15-8.86.71-.62.76-3.9.56-6l0-.2.13-.16s2.91-3.61,1.81-5.85a2,2,0,0,0-1.87-1.32,2.57,2.57,0,0,0-2.19,1.52c-.85,1.88-1.18,2.83-1.19,2.84l-.07.23-.24.08a3.63,3.63,0,0,1-2.45,0,1.5,1.5,0,0,1-.76-.91l-.35-1.15c-2.55-2-3.87-3.24-3.95-3.81a71,71,0,0,1,1.13-7.16l-10.66,1c-.91,3.23-1.75,6.94-1.55,7.52a24.54,24.54,0,0,1,1,3.6l0,.18Z" style="fill:#263238"></path><g style="clip-path:url(#freepik--clip-path-10--inject-630)"><path d="M319.63,186.76c-1.25-2.55-4.09-1.72-5,.21s-1.21,2.89-1.21,2.89-2.17.74-2.57-.57l-.4-1.3s-3.8-2.9-3.89-3.57,1.25-7.66,1.25-7.66l-3.45.33c-1.54,3.88-2.87,8.13-2.08,9.72,1.59,3.18,3.19,4.77,3.19,7s1.27,4.14,1.59,6.05c.25,1.53-2.35,6.73-3.4,8.74a1.59,1.59,0,0,0,1.13-.11c.83-.56,11-7.82,12.2-8.89s.73-6.46.73-6.46S320.88,189.32,319.63,186.76Z" style="fill:#904AE9"></path><path d="M319.63,186.76c-1.25-2.55-4.09-1.72-5,.21s-1.21,2.89-1.21,2.89-2.17.74-2.57-.57l-.4-1.3s-3.8-2.9-3.89-3.57,1.25-7.66,1.25-7.66l-3.45.33c-1.54,3.88-2.87,8.13-2.08,9.72,1.59,3.18,3.19,4.77,3.19,7s1.27,4.14,1.59,6.05c.25,1.53-2.35,6.73-3.4,8.74a1.59,1.59,0,0,0,1.13-.11c.83-.56,11-7.82,12.2-8.89s.73-6.46.73-6.46S320.88,189.32,319.63,186.76Z" style="fill:#fff;opacity:0.5"></path></g><path d="M222.19,203.42s-4.22,2.38-5.92,3.29-4.18,1-3.36,2,5.36-.71,5.36-.71,5.22,0,7.22-.29a3.42,3.42,0,0,0,2.66-2.17" style="fill:#fff"></path><path d="M214,209.56a1.85,1.85,0,0,1-1.49-.5,1,1,0,0,1-.23-.93c.18-.61,1-.86,2-1.17a11.92,11.92,0,0,0,1.8-.69c1.67-.9,5.86-3.26,5.9-3.29a.51.51,0,0,1,.69.19.5.5,0,0,1-.19.68c-.05,0-4.25,2.4-5.93,3.3a12.27,12.27,0,0,1-2,.76,6.5,6.5,0,0,0-1.26.49l0,0c.31.39,2.59,0,4.79-.87a.47.47,0,0,1,.17,0c.06,0,5.21,0,7.17-.28a2.91,2.91,0,0,0,2.25-1.84.5.5,0,1,1,.95.33,3.94,3.94,0,0,1-3.07,2.5c-1.89.25-6.47.29-7.2.29A14.32,14.32,0,0,1,214,209.56Z" style="fill:#263238"></path><path d="M392.72,375.62l-.48,9.65-6.12,12.67c-.4.81.33,2.48,2.24,1.72s5.95-4.58,8.23-6.4,5.71-6.31,7.78-7.85,4.39-4.87,4.29-5.62-11.15-9.86-11.15-9.86Z" style="fill:#904AE9"></path><path d="M387.46,400.35a1.89,1.89,0,0,1-1.79-2.63c.37-.77,5.54-11.48,6.08-12.58l.47-9.55a.48.48,0,0,1,.11-.3l4.79-5.68a.51.51,0,0,1,.71-.06c11.2,9.24,11.3,9.94,11.33,10.18.14,1-2.46,4.57-4.49,6.08a35.16,35.16,0,0,0-3.81,3.83,40.84,40.84,0,0,1-4,4c-.65.52-1.43,1.19-2.27,1.91-2.17,1.87-4.63,4-6.08,4.56A2.88,2.88,0,0,1,387.46,400.35Zm5.75-24.54-.47,9.48a.41.41,0,0,1-.05.19l-6.12,12.68a.9.9,0,0,0,.19.91c.3.33.79.37,1.42.12,1.29-.51,3.79-2.66,5.8-4.38.85-.73,1.64-1.42,2.3-1.94a39.74,39.74,0,0,0,3.84-3.9,34,34,0,0,1,3.95-4,14.48,14.48,0,0,0,4.09-5.11c-.66-.92-6.64-6-10.59-9.27Zm-1,9.46h0Zm16-5.31Z" style="fill:#263238"></path><path d="M404.37,385.41c2.06-1.54,4.39-4.87,4.29-5.62a6.27,6.27,0,0,0-1.3-1.4c-1.5,1.65-4.5,4.95-7.17,7.83-3,3.26-10.78,10.61-13.65,13.31a1.72,1.72,0,0,0,1.82.13c1.92-.76,5.95-4.58,8.23-6.4S402.3,387,404.37,385.41Z" style="fill:#263238"></path><path d="M387.48,400.34a1.93,1.93,0,0,1-1.25-.43.52.52,0,0,1-.19-.37.55.55,0,0,1,.16-.38c3.11-2.93,10.65-10.08,13.62-13.28,2.67-2.86,5.64-6.13,7.17-7.83a.48.48,0,0,1,.35-.16.5.5,0,0,1,.36.13c1.31,1.22,1.43,1.47,1.46,1.71.14,1-2.46,4.57-4.49,6.08a35.16,35.16,0,0,0-3.81,3.83,40.84,40.84,0,0,1-4,4c-.65.52-1.43,1.19-2.27,1.91-2.17,1.87-4.63,4-6.08,4.56A3,3,0,0,1,387.48,400.34Zm0-1a1.48,1.48,0,0,0,.72-.16c1.29-.51,3.79-2.66,5.8-4.38.85-.73,1.64-1.42,2.3-1.94a39.74,39.74,0,0,0,3.84-3.9,34,34,0,0,1,3.95-4,14.81,14.81,0,0,0,4.09-5.1,10,10,0,0,0-.77-.81c-1.61,1.78-4.36,4.79-6.84,7.46C397.74,389.59,390.85,396.15,387.46,399.35ZM408.2,380Z" style="fill:#263238"></path><path d="M405.33,334.08l5.32,5.85L419,357s2.08.48,3-.15-.65-21.85-1.08-25.07.14-4.56-1.2-5.14-12.95,1.23-12.95,1.23Z" style="fill:#904AE9"></path><path d="M420.52,357.65a7.89,7.89,0,0,1-1.65-.19.49.49,0,0,1-.34-.27l-8.3-17L405,334.42a.49.49,0,0,1-.12-.45l1.44-6.25a.48.48,0,0,1,.41-.38c2-.3,11.82-1.8,13.22-1.19,1.2.52,1.24,1.5,1.29,3,0,.67.06,1.51.2,2.53,0,.24,2.33,24.56.87,25.56A3.18,3.18,0,0,1,420.52,357.65Zm-1.2-1.12a4.46,4.46,0,0,0,2.31-.07c.59-1.82-.71-20.83-1.22-24.65a24.88,24.88,0,0,1-.2-2.62c-.07-1.53-.13-1.88-.69-2.12-.74-.32-6.8.36-12.35,1.21l-1.3,5.66,5.15,5.65.08.12Zm2.28,0Z" style="fill:#263238"></path><path d="M419.71,326.61a5.05,5.05,0,0,0-1.58-.11c.66,5.9,2.33,20.75,2.75,23.91a38.34,38.34,0,0,1,.14,6.71,2.13,2.13,0,0,0,1-.3c.92-.62-.65-21.85-1.08-25.07S421.05,327.19,419.71,326.61Z" style="fill:#263238"></path><path d="M421,357.62a.52.52,0,0,1-.35-.14.51.51,0,0,1-.15-.39,37.26,37.26,0,0,0-.14-6.61c-.42-3.16-2.06-17.78-2.74-23.92a.47.47,0,0,1,.11-.38.55.55,0,0,1,.37-.18,4.45,4.45,0,0,1,1.79.15h0c1.2.52,1.24,1.5,1.29,3,0,.67.06,1.51.2,2.53,0,.24,2.33,24.56.87,25.56a2.7,2.7,0,0,1-1.2.38ZM418.69,327c.72,6.41,2.27,20.29,2.68,23.35a35.74,35.74,0,0,1,.18,6.14l.08,0c.59-1.82-.71-20.83-1.22-24.65a24.88,24.88,0,0,1-.2-2.62c-.07-1.53-.13-1.88-.69-2.12h0A2.6,2.6,0,0,0,418.69,327Z" style="fill:#263238"></path></g><g id="freepik--Stars--inject-630"><path d="M98.75,260.7a.5.5,0,0,1-.5-.5v-8.87a.51.51,0,0,1,.5-.5.5.5,0,0,1,.5.5v8.87A.5.5,0,0,1,98.75,260.7Z" style="fill:#263238"></path><path d="M103.19,256.27H94.32a.5.5,0,0,1-.5-.5.5.5,0,0,1,.5-.5h8.87a.5.5,0,0,1,.5.5A.51.51,0,0,1,103.19,256.27Z" style="fill:#263238"></path><path d="M345.9,150.59a.5.5,0,0,1-.5-.5v-8.87a.5.5,0,0,1,1,0v8.87A.5.5,0,0,1,345.9,150.59Z" style="fill:#263238"></path><path d="M350.34,146.15h-8.87a.5.5,0,0,1-.5-.5.5.5,0,0,1,.5-.5h8.87a.51.51,0,0,1,.5.5A.5.5,0,0,1,350.34,146.15Z" style="fill:#263238"></path><path d="M331.85,382a.51.51,0,0,1-.5-.5v-8.87a.5.5,0,0,1,.5-.5.5.5,0,0,1,.5.5v8.87A.5.5,0,0,1,331.85,382Z" style="fill:#263238"></path><path d="M336.29,377.59h-8.87a.5.5,0,0,1-.5-.5.5.5,0,0,1,.5-.5h8.87a.5.5,0,0,1,.5.5A.5.5,0,0,1,336.29,377.59Z" style="fill:#263238"></path><path d="M219.9,81.92a.5.5,0,0,1-.5-.5V72.55a.5.5,0,1,1,1,0v8.87A.5.5,0,0,1,219.9,81.92Z" style="fill:#263238"></path><path d="M224.34,77.49h-8.87a.5.5,0,0,1-.5-.5.5.5,0,0,1,.5-.5h8.87a.5.5,0,0,1,.5.5A.51.51,0,0,1,224.34,77.49Z" style="fill:#263238"></path><path d="M73.9,325.92a.5.5,0,0,1-.5-.5v-8.87a.5.5,0,0,1,1,0v8.87A.5.5,0,0,1,73.9,325.92Z" style="fill:#263238"></path><path d="M78.34,321.49H69.47a.5.5,0,0,1-.5-.5.5.5,0,0,1,.5-.5h8.87a.5.5,0,0,1,.5.5A.51.51,0,0,1,78.34,321.49Z" style="fill:#263238"></path><path d="M334.6,117.08a7.83,7.83,0,1,1,7.83-7.83A7.84,7.84,0,0,1,334.6,117.08Zm0-14.66a6.83,6.83,0,1,0,6.83,6.83A6.84,6.84,0,0,0,334.6,102.42Z" style="fill:#263238"></path><path d="M82.18,273.52A7.83,7.83,0,1,1,90,265.69,7.84,7.84,0,0,1,82.18,273.52Zm0-14.66A6.83,6.83,0,1,0,89,265.69,6.83,6.83,0,0,0,82.18,258.86Z" style="fill:#263238"></path><path d="M373.6,186.42a2.17,2.17,0,1,1,2.16-2.17A2.17,2.17,0,0,1,373.6,186.42Zm0-3.34a1.17,1.17,0,1,0,1.16,1.17A1.17,1.17,0,0,0,373.6,183.08Z" style="fill:#263238"></path><path d="M316.94,389.25a2.17,2.17,0,1,1,2.16-2.16A2.17,2.17,0,0,1,316.94,389.25Zm0-3.33a1.17,1.17,0,1,0,1.16,1.17A1.17,1.17,0,0,0,316.94,385.92Z" style="fill:#263238"></path><path d="M408.58,295.62a2.17,2.17,0,1,1,2.16-2.17A2.17,2.17,0,0,1,408.58,295.62Zm0-3.33a1.17,1.17,0,1,0,1.16,1.16A1.16,1.16,0,0,0,408.58,292.29Z" style="fill:#263238"></path><path d="M316.27,271.2a2.17,2.17,0,1,1,2.17-2.17A2.17,2.17,0,0,1,316.27,271.2Zm0-3.33a1.17,1.17,0,1,0,1.17,1.16A1.17,1.17,0,0,0,316.27,267.87Z" style="fill:#263238"></path><path d="M200.22,89.26a2.17,2.17,0,1,1,2.17-2.17A2.17,2.17,0,0,1,200.22,89.26Zm0-3.33a1.17,1.17,0,1,0,1.17,1.16A1.17,1.17,0,0,0,200.22,85.93Z" style="fill:#263238"></path></g></svg>